<svg width="192" height="47" viewBox="0 0 192 47" fill="none" xmlns="http://www.w3.org/2000/svg">
<rect y="0.203125" width="192" height="46.2025" rx="4" fill="#5B52B6"/>
<path d="M55.2134 24.0678C55.1855 21.0358 57.7597 19.5607 57.8774 19.492C56.4195 17.4196 54.1598 17.1364 53.3657 17.1138C51.4678 16.9191 49.6268 18.2211 48.66 18.2211C47.6739 18.2211 46.1851 17.1326 44.5806 17.1646C42.5157 17.1957 40.5841 18.3613 39.5246 20.1713C37.3382 23.8618 38.9689 29.2852 41.0636 32.2684C42.1114 33.7293 43.3359 35.3606 44.9385 35.3032C46.5064 35.2402 47.0921 34.3286 48.9842 34.3286C50.859 34.3286 51.4089 35.3032 53.0434 35.2665C54.7262 35.2402 55.7856 33.799 56.7968 32.3248C58.0077 30.6503 58.494 29.0011 58.5133 28.9165C58.4737 28.9033 55.2453 27.702 55.2134 24.0678Z" fill="white"/>
<path d="M52.1258 15.1514C52.9691 14.1232 53.5461 12.7243 53.386 11.3047C52.1654 11.3574 50.639 12.1278 49.76 13.1335C48.9823 14.0197 48.2876 15.4722 48.4671 16.8382C49.8381 16.9379 51.2459 16.1637 52.1258 15.1514Z" fill="white"/>
<path d="M64.8217 28.3047L68.4057 18.5047H70.5477L74.1177 28.3047H72.1157L69.4697 20.6607L66.8097 28.3047H64.8217ZM66.4037 26.0787L66.9077 24.6087H71.8917L72.3817 26.0787H66.4037ZM76.1135 31.3847V21.2487H77.7935L78.0035 22.2287C78.1528 22.0234 78.3301 21.8367 78.5355 21.6687C78.7408 21.4914 78.9835 21.3514 79.2635 21.2487C79.5528 21.1367 79.8888 21.0807 80.2715 21.0807C80.9341 21.0807 81.5175 21.244 82.0215 21.5707C82.5255 21.8974 82.9221 22.3407 83.2115 22.9007C83.5101 23.4514 83.6595 24.0814 83.6595 24.7907C83.6595 25.5 83.5101 26.1347 83.2115 26.6947C82.9128 27.2454 82.5115 27.6794 82.0075 27.9967C81.5035 28.314 80.9295 28.4727 80.2855 28.4727C79.7628 28.4727 79.3101 28.3794 78.9275 28.1927C78.5541 27.9967 78.2461 27.7307 78.0035 27.3947V31.3847H76.1135ZM79.8375 26.8207C80.2108 26.8207 80.5375 26.7367 80.8175 26.5687C81.1068 26.4007 81.3308 26.1627 81.4895 25.8547C81.6481 25.5467 81.7275 25.192 81.7275 24.7907C81.7275 24.3894 81.6481 24.0347 81.4895 23.7267C81.3308 23.4094 81.1068 23.1667 80.8175 22.9987C80.5375 22.8214 80.2108 22.7327 79.8375 22.7327C79.4735 22.7327 79.1468 22.8214 78.8575 22.9987C78.5775 23.1667 78.3535 23.4047 78.1855 23.7127C78.0268 24.0207 77.9475 24.3754 77.9475 24.7767C77.9475 25.178 78.0268 25.5374 78.1855 25.8547C78.3535 26.1627 78.5775 26.4007 78.8575 26.5687C79.1468 26.7367 79.4735 26.8207 79.8375 26.8207ZM86.0373 31.3847V21.2487H87.7173L87.9273 22.2287C88.0766 22.0234 88.2539 21.8367 88.4593 21.6687C88.6646 21.4914 88.9073 21.3514 89.1873 21.2487C89.4766 21.1367 89.8126 21.0807 90.1953 21.0807C90.8579 21.0807 91.4413 21.244 91.9453 21.5707C92.4493 21.8974 92.8459 22.3407 93.1353 22.9007C93.4339 23.4514 93.5833 24.0814 93.5833 24.7907C93.5833 25.5 93.4339 26.1347 93.1353 26.6947C92.8366 27.2454 92.4353 27.6794 91.9313 27.9967C91.4273 28.314 90.8533 28.4727 90.2093 28.4727C89.6866 28.4727 89.2339 28.3794 88.8513 28.1927C88.4779 27.9967 88.1699 27.7307 87.9273 27.3947V31.3847H86.0373ZM89.7613 26.8207C90.1346 26.8207 90.4613 26.7367 90.7413 26.5687C91.0306 26.4007 91.2546 26.1627 91.4133 25.8547C91.5719 25.5467 91.6513 25.192 91.6513 24.7907C91.6513 24.3894 91.5719 24.0347 91.4133 23.7267C91.2546 23.4094 91.0306 23.1667 90.7413 22.9987C90.4613 22.8214 90.1346 22.7327 89.7613 22.7327C89.3973 22.7327 89.0706 22.8214 88.7813 22.9987C88.5013 23.1667 88.2773 23.4047 88.1093 23.7127C87.9506 24.0207 87.8713 24.3754 87.8713 24.7767C87.8713 25.178 87.9506 25.5374 88.1093 25.8547C88.2773 26.1627 88.5013 26.4007 88.7813 26.5687C89.0706 26.7367 89.3973 26.8207 89.7613 26.8207ZM95.9611 28.3047V18.2247H97.8511V28.3047H95.9611ZM103.832 28.4727C103.122 28.4727 102.492 28.3234 101.942 28.0247C101.4 27.7167 100.976 27.292 100.668 26.7507C100.369 26.2 100.22 25.5654 100.22 24.8467C100.22 24.1094 100.369 23.4607 100.668 22.9007C100.976 22.3314 101.4 21.888 101.942 21.5707C102.483 21.244 103.113 21.0807 103.832 21.0807C104.532 21.0807 105.143 21.2347 105.666 21.5427C106.188 21.8507 106.594 22.266 106.884 22.7887C107.173 23.3114 107.318 23.904 107.318 24.5667C107.318 24.66 107.318 24.7674 107.318 24.8887C107.318 25.0007 107.308 25.1174 107.29 25.2387H101.564V24.0907H105.414C105.386 23.6334 105.222 23.274 104.924 23.0127C104.634 22.7514 104.27 22.6207 103.832 22.6207C103.514 22.6207 103.22 22.6954 102.95 22.8447C102.679 22.9847 102.464 23.204 102.306 23.5027C102.156 23.8014 102.082 24.1794 102.082 24.6367V25.0427C102.082 25.4254 102.152 25.7614 102.292 26.0507C102.441 26.3307 102.646 26.55 102.908 26.7087C103.169 26.858 103.472 26.9327 103.818 26.9327C104.163 26.9327 104.448 26.858 104.672 26.7087C104.905 26.5594 105.078 26.368 105.19 26.1347H107.122C106.991 26.5734 106.772 26.97 106.464 27.3247C106.156 27.6794 105.778 27.9594 105.33 28.1647C104.882 28.37 104.382 28.4727 103.832 28.4727ZM117.076 28.4727C116.367 28.4727 115.732 28.3514 115.172 28.1087C114.622 27.866 114.183 27.5114 113.856 27.0447C113.539 26.578 113.376 26.0134 113.366 25.3507H115.368C115.378 25.64 115.452 25.9014 115.592 26.1347C115.732 26.368 115.924 26.5547 116.166 26.6947C116.418 26.8254 116.717 26.8907 117.062 26.8907C117.361 26.8907 117.618 26.844 117.832 26.7507C118.056 26.648 118.229 26.508 118.35 26.3307C118.472 26.1534 118.532 25.9434 118.532 25.7007C118.532 25.4207 118.462 25.1874 118.322 25.0007C118.192 24.814 118.005 24.6554 117.762 24.5247C117.529 24.394 117.254 24.2774 116.936 24.1747C116.628 24.0627 116.302 23.946 115.956 23.8247C115.182 23.5727 114.589 23.2367 114.178 22.8167C113.777 22.3967 113.576 21.8414 113.576 21.1507C113.576 20.5627 113.716 20.0587 113.996 19.6387C114.286 19.2187 114.682 18.8967 115.186 18.6727C115.69 18.4487 116.264 18.3367 116.908 18.3367C117.571 18.3367 118.15 18.4534 118.644 18.6867C119.148 18.9107 119.545 19.2374 119.834 19.6667C120.133 20.096 120.287 20.6 120.296 21.1787H118.28C118.271 20.964 118.206 20.7634 118.084 20.5767C117.972 20.3807 117.814 20.2267 117.608 20.1147C117.403 19.9934 117.16 19.9327 116.88 19.9327C116.638 19.9234 116.414 19.9607 116.208 20.0447C116.012 20.1287 115.854 20.2547 115.732 20.4227C115.62 20.5814 115.564 20.782 115.564 21.0247C115.564 21.258 115.62 21.454 115.732 21.6127C115.854 21.7714 116.017 21.9114 116.222 22.0327C116.428 22.1447 116.67 22.252 116.95 22.3547C117.23 22.448 117.534 22.546 117.86 22.6487C118.346 22.8167 118.794 23.0174 119.204 23.2507C119.615 23.4747 119.942 23.7687 120.184 24.1327C120.427 24.4967 120.548 24.9774 120.548 25.5747C120.548 26.088 120.413 26.564 120.142 27.0027C119.872 27.4414 119.48 27.796 118.966 28.0667C118.462 28.3374 117.832 28.4727 117.076 28.4727ZM126.038 28.3047C125.543 28.3047 125.109 28.23 124.736 28.0807C124.372 27.922 124.087 27.6654 123.882 27.3107C123.676 26.9467 123.574 26.452 123.574 25.8267V22.8307H122.37V21.2487H123.574L123.784 19.3307H125.464V21.2487H127.326V22.8307H125.464V25.8547C125.464 26.172 125.534 26.3914 125.674 26.5127C125.814 26.634 126.052 26.6947 126.388 26.6947H127.312V28.3047H126.038ZM132.82 28.4727C132.148 28.4727 131.542 28.3187 131 28.0107C130.468 27.6934 130.044 27.2594 129.726 26.7087C129.418 26.1487 129.264 25.5094 129.264 24.7907C129.264 24.0534 129.418 23.4094 129.726 22.8587C130.044 22.2987 130.473 21.8647 131.014 21.5567C131.556 21.2394 132.162 21.0807 132.834 21.0807C133.516 21.0807 134.122 21.2394 134.654 21.5567C135.196 21.8647 135.62 22.2987 135.928 22.8587C136.246 23.4094 136.404 24.0487 136.404 24.7767C136.404 25.5047 136.246 26.1487 135.928 26.7087C135.62 27.2594 135.196 27.6934 134.654 28.0107C134.113 28.3187 133.502 28.4727 132.82 28.4727ZM132.82 26.8347C133.138 26.8347 133.418 26.76 133.66 26.6107C133.912 26.4614 134.108 26.2327 134.248 25.9247C134.398 25.6167 134.472 25.234 134.472 24.7767C134.472 24.3194 134.398 23.9414 134.248 23.6427C134.108 23.3347 133.912 23.106 133.66 22.9567C133.418 22.798 133.142 22.7187 132.834 22.7187C132.536 22.7187 132.26 22.798 132.008 22.9567C131.756 23.106 131.556 23.3347 131.406 23.6427C131.266 23.9414 131.196 24.3194 131.196 24.7767C131.196 25.234 131.266 25.6167 131.406 25.9247C131.556 26.2327 131.752 26.4614 131.994 26.6107C132.246 26.76 132.522 26.8347 132.82 26.8347ZM138.783 28.3047V21.2487H140.463L140.645 22.5507C140.813 22.2427 141.023 21.9814 141.275 21.7667C141.537 21.552 141.831 21.384 142.157 21.2627C142.493 21.1414 142.862 21.0807 143.263 21.0807V23.0827H142.619C142.339 23.0827 142.078 23.1154 141.835 23.1807C141.602 23.246 141.397 23.3534 141.219 23.5027C141.042 23.6427 140.907 23.8387 140.813 24.0907C140.72 24.3427 140.673 24.66 140.673 25.0427V28.3047H138.783ZM148.541 28.4727C147.831 28.4727 147.201 28.3234 146.651 28.0247C146.109 27.7167 145.685 27.292 145.377 26.7507C145.078 26.2 144.929 25.5654 144.929 24.8467C144.929 24.1094 145.078 23.4607 145.377 22.9007C145.685 22.3314 146.109 21.888 146.651 21.5707C147.192 21.244 147.822 21.0807 148.541 21.0807C149.241 21.0807 149.852 21.2347 150.375 21.5427C150.897 21.8507 151.303 22.266 151.593 22.7887C151.882 23.3114 152.027 23.904 152.027 24.5667C152.027 24.66 152.027 24.7674 152.027 24.8887C152.027 25.0007 152.017 25.1174 151.999 25.2387H146.273V24.0907H150.123C150.095 23.6334 149.931 23.274 149.633 23.0127C149.343 22.7514 148.979 22.6207 148.541 22.6207C148.223 22.6207 147.929 22.6954 147.659 22.8447C147.388 22.9847 147.173 23.204 147.015 23.5027C146.865 23.8014 146.791 24.1794 146.791 24.6367V25.0427C146.791 25.4254 146.861 25.7614 147.001 26.0507C147.15 26.3307 147.355 26.55 147.617 26.7087C147.878 26.858 148.181 26.9327 148.527 26.9327C148.872 26.9327 149.157 26.858 149.381 26.7087C149.614 26.5594 149.787 26.368 149.899 26.1347H151.831C151.7 26.5734 151.481 26.97 151.173 27.3247C150.865 27.6794 150.487 27.9594 150.039 28.1647C149.591 28.37 149.091 28.4727 148.541 28.4727Z" fill="white"/>
</svg>
