<svg width="147" height="52" viewBox="0 0 147 52" fill="none" xmlns="http://www.w3.org/2000/svg">
<rect x="1" y="0.5" width="145" height="51" rx="7.5" stroke="#F1F1F1"/>
<g clip-path="url(#clip0_3416_68731)">
<path d="M12.9193 36.1903L14.3305 38.6278C14.6237 39.141 15.0452 39.5443 15.5401 39.8375C16.9575 38.0383 17.9442 36.6576 18.5001 35.6954C19.0643 34.719 19.7577 33.1917 20.5802 31.1135C18.3632 30.8217 16.6832 30.6758 15.5402 30.6758C14.4432 30.6758 12.7631 30.8217 10.5 31.1135C10.5 31.6817 10.6466 32.2498 10.9399 32.763L12.9193 36.1903Z" fill="#0066DA"/>
<path d="M37.4592 39.8375C37.9542 39.5443 38.3757 39.141 38.6689 38.6279L39.2554 37.6199L42.0596 32.763C42.3474 32.2609 42.499 31.6923 42.4994 31.1135C40.2231 30.8217 38.5462 30.6758 37.4685 30.6758C36.3103 30.6758 34.6332 30.8217 32.4375 31.1135C33.2503 33.2031 33.9346 34.7304 34.4902 35.6954C35.0506 36.669 36.0402 38.0497 37.4592 39.8375Z" fill="#EA4335"/>
<path d="M26.5011 20.8514C28.1411 18.8707 29.2713 17.3434 29.8917 16.2695C30.3914 15.4047 30.9412 14.024 31.5412 12.1274C31.0463 11.8341 30.4782 11.6875 29.8917 11.6875H23.1104C22.5239 11.6875 21.9559 11.8525 21.4609 12.1274C22.2243 14.3026 22.8719 15.8507 23.4039 16.7716C23.9919 17.7894 25.0243 19.1493 26.5011 20.8514Z" fill="#00832D"/>
<path d="M32.4208 31.1133H20.581L15.541 39.8373C16.0358 40.1305 16.6039 40.2772 17.1904 40.2772H35.8114C36.3979 40.2772 36.9661 40.1122 37.4609 39.8372L32.4208 31.1133Z" fill="#2684FC"/>
<path d="M26.5001 20.8528L21.4601 12.1289C20.9651 12.4222 20.5436 12.8253 20.2504 13.3385L10.9399 29.4669C10.652 29.969 10.5004 30.5376 10.5 31.1164H20.5802L26.5001 20.8528Z" fill="#00AC47"/>
<path d="M37.405 21.4028L32.7496 13.3385C32.4565 12.8253 32.0349 12.4222 31.54 12.1289L26.5 20.8529L32.4198 31.1165H42.4818C42.4818 30.5483 42.3351 29.9803 42.0419 29.467L37.405 21.4028Z" fill="#FFBA00"/>
</g>
<path d="M51.21 21V14H53.95C54.4433 14 54.8533 14.0767 55.18 14.23C55.5133 14.3833 55.7633 14.5967 55.93 14.87C56.0967 15.1367 56.18 15.4467 56.18 15.8C56.18 16.1533 56.1033 16.45 55.95 16.69C55.7967 16.93 55.5933 17.1133 55.34 17.24C55.0933 17.3667 54.8233 17.4433 54.53 17.47L54.68 17.36C54.9933 17.3667 55.2733 17.45 55.52 17.61C55.7733 17.77 55.9733 17.98 56.12 18.24C56.2667 18.4933 56.34 18.7767 56.34 19.09C56.34 19.4567 56.25 19.7867 56.07 20.08C55.8967 20.3667 55.64 20.5933 55.3 20.76C54.96 20.92 54.5433 21 54.05 21H51.21ZM52.41 20.02H53.87C54.2633 20.02 54.57 19.9267 54.79 19.74C55.01 19.5533 55.12 19.2933 55.12 18.96C55.12 18.6267 55.0067 18.3633 54.78 18.17C54.5533 17.97 54.2433 17.87 53.85 17.87H52.41V20.02ZM52.41 16.96H53.78C54.1667 16.96 54.46 16.8733 54.66 16.7C54.86 16.52 54.96 16.2733 54.96 15.96C54.96 15.6533 54.86 15.4133 54.66 15.24C54.46 15.06 54.1633 14.97 53.77 14.97H52.41V16.96ZM57.4493 21V15.96H58.5193L58.6293 16.9C58.7493 16.68 58.8993 16.4933 59.0793 16.34C59.2593 16.18 59.4693 16.0567 59.7093 15.97C59.956 15.8833 60.226 15.84 60.5193 15.84V17.11H60.0993C59.8993 17.11 59.7093 17.1367 59.5293 17.19C59.3493 17.2367 59.1926 17.3167 59.0593 17.43C58.9326 17.5367 58.8326 17.6867 58.7593 17.88C58.686 18.0667 58.6493 18.3033 58.6493 18.59V21H57.4493ZM63.1039 21.12C62.6906 21.12 62.3472 21.05 62.0739 20.91C61.8006 20.77 61.5972 20.5833 61.4639 20.35C61.3306 20.1167 61.2639 19.8633 61.2639 19.59C61.2639 19.27 61.3439 18.9933 61.5039 18.76C61.6706 18.5267 61.9139 18.3467 62.2339 18.22C62.5539 18.0867 62.9472 18.02 63.4139 18.02H64.6839C64.6839 17.7533 64.6472 17.5333 64.5739 17.36C64.5006 17.18 64.3872 17.0467 64.2339 16.96C64.0806 16.8733 63.8839 16.83 63.6439 16.83C63.3706 16.83 63.1372 16.8933 62.9439 17.02C62.7506 17.14 62.6306 17.3267 62.5839 17.58H61.4039C61.4439 17.22 61.5639 16.9133 61.7639 16.66C61.9639 16.4 62.2272 16.2 62.5539 16.06C62.8872 15.9133 63.2506 15.84 63.6439 15.84C64.1172 15.84 64.5206 15.9233 64.8539 16.09C65.1872 16.25 65.4406 16.4833 65.6139 16.79C65.7939 17.09 65.8839 17.4533 65.8839 17.88V21H64.8639L64.7439 20.19C64.6772 20.3233 64.5906 20.4467 64.4839 20.56C64.3839 20.6733 64.2672 20.7733 64.1339 20.86C64.0006 20.94 63.8472 21.0033 63.6739 21.05C63.5072 21.0967 63.3172 21.12 63.1039 21.12ZM63.3739 20.17C63.5672 20.17 63.7372 20.1367 63.8839 20.07C64.0372 19.9967 64.1672 19.8967 64.2739 19.77C64.3872 19.6367 64.4739 19.49 64.5339 19.33C64.5939 19.17 64.6339 19 64.6539 18.82V18.8H63.5439C63.3106 18.8 63.1172 18.83 62.9639 18.89C62.8106 18.9433 62.7006 19.0233 62.6339 19.13C62.5672 19.2367 62.5339 19.36 62.5339 19.5C62.5339 19.64 62.5672 19.76 62.6339 19.86C62.7006 19.96 62.7972 20.0367 62.9239 20.09C63.0506 20.1433 63.2006 20.17 63.3739 20.17ZM67.1661 21V15.96H68.2261L68.3161 16.8C68.4694 16.5067 68.6894 16.2733 68.9761 16.1C69.2628 15.9267 69.6028 15.84 69.9961 15.84C70.4028 15.84 70.7494 15.9267 71.0361 16.1C71.3228 16.2667 71.5428 16.5133 71.6961 16.84C71.8561 17.1667 71.9361 17.5733 71.9361 18.06V21H70.7361V18.17C70.7361 17.75 70.6428 17.4267 70.4561 17.2C70.2694 16.9733 69.9928 16.86 69.6261 16.86C69.3861 16.86 69.1694 16.9167 68.9761 17.03C68.7894 17.1433 68.6394 17.31 68.5261 17.53C68.4194 17.7433 68.3661 18.0033 68.3661 18.31V21H67.1661ZM75.4413 21.12C74.9746 21.12 74.5579 21.0067 74.1913 20.78C73.8246 20.5533 73.5379 20.24 73.3313 19.84C73.1313 19.44 73.0313 18.9867 73.0313 18.48C73.0313 17.9733 73.1346 17.5233 73.3413 17.13C73.5479 16.73 73.8346 16.4167 74.2013 16.19C74.5746 15.9567 74.9946 15.84 75.4613 15.84C75.8413 15.84 76.1713 15.9133 76.4513 16.06C76.7379 16.2 76.9646 16.4 77.1313 16.66V13.8H78.3313V21H77.2513L77.1313 20.27C77.0246 20.4167 76.8946 20.5567 76.7413 20.69C76.5879 20.8167 76.4046 20.92 76.1913 21C75.9779 21.08 75.7279 21.12 75.4413 21.12ZM75.6913 20.08C75.9779 20.08 76.2313 20.0133 76.4513 19.88C76.6713 19.74 76.8413 19.55 76.9613 19.31C77.0813 19.07 77.1413 18.7933 77.1413 18.48C77.1413 18.1667 77.0813 17.89 76.9613 17.65C76.8413 17.41 76.6713 17.2233 76.4513 17.09C76.2313 16.9567 75.9779 16.89 75.6913 16.89C75.4179 16.89 75.1713 16.9567 74.9513 17.09C74.7313 17.2233 74.5579 17.41 74.4313 17.65C74.3113 17.89 74.2513 18.1667 74.2513 18.48C74.2513 18.7933 74.3113 19.07 74.4313 19.31C74.5579 19.55 74.7313 19.74 74.9513 19.88C75.1713 20.0133 75.4179 20.08 75.6913 20.08ZM79.7161 21V15.96H80.9161V21H79.7161ZM80.3161 15.16C80.0961 15.16 79.9128 15.0933 79.7661 14.96C79.6261 14.82 79.5561 14.65 79.5561 14.45C79.5561 14.2433 79.6261 14.0767 79.7661 13.95C79.9128 13.8167 80.0961 13.75 80.3161 13.75C80.5361 13.75 80.7161 13.8167 80.8561 13.95C81.0028 14.0767 81.0761 14.2433 81.0761 14.45C81.0761 14.65 81.0028 14.82 80.8561 14.96C80.7161 15.0933 80.5361 15.16 80.3161 15.16ZM82.3028 21V15.96H83.3628L83.4528 16.8C83.6061 16.5067 83.8261 16.2733 84.1128 16.1C84.3995 15.9267 84.7395 15.84 85.1328 15.84C85.5395 15.84 85.8861 15.9267 86.1728 16.1C86.4595 16.2667 86.6795 16.5133 86.8328 16.84C86.9928 17.1667 87.0728 17.5733 87.0728 18.06V21H85.8728V18.17C85.8728 17.75 85.7795 17.4267 85.5928 17.2C85.4061 16.9733 85.1295 16.86 84.7628 16.86C84.5228 16.86 84.3061 16.9167 84.1128 17.03C83.9261 17.1433 83.7761 17.31 83.6628 17.53C83.5561 17.7433 83.5028 18.0033 83.5028 18.31V21H82.3028ZM90.458 23.32C89.9846 23.32 89.568 23.26 89.208 23.14C88.8546 23.0267 88.578 22.85 88.378 22.61C88.1846 22.3767 88.088 22.0833 88.088 21.73C88.088 21.5233 88.138 21.32 88.238 21.12C88.3446 20.9267 88.5013 20.7467 88.708 20.58C88.9213 20.4067 89.1913 20.2567 89.518 20.13L90.048 20.71C89.728 20.8233 89.5046 20.96 89.378 21.12C89.2513 21.28 89.188 21.4433 89.188 21.61C89.188 21.7833 89.2413 21.9267 89.348 22.04C89.4613 22.16 89.6113 22.25 89.798 22.31C89.9913 22.37 90.208 22.4 90.448 22.4C90.6813 22.4 90.8846 22.3667 91.058 22.3C91.2313 22.24 91.3646 22.1533 91.458 22.04C91.558 21.9267 91.608 21.79 91.608 21.63C91.608 21.43 91.538 21.2667 91.398 21.14C91.258 21.02 90.9813 20.9467 90.568 20.92C90.2146 20.8933 89.9046 20.8567 89.638 20.81C89.3713 20.7567 89.1413 20.6967 88.948 20.63C88.7613 20.5633 88.6013 20.49 88.468 20.41C88.3346 20.3233 88.2246 20.2367 88.138 20.15V19.92L89.188 18.82L90.078 19.11L88.898 20.26L89.208 19.68C89.2746 19.7267 89.3413 19.77 89.408 19.81C89.4813 19.85 89.5713 19.8867 89.678 19.92C89.7913 19.9467 89.938 19.9733 90.118 20C90.298 20.0267 90.5313 20.0533 90.818 20.08C91.2646 20.1133 91.628 20.1933 91.908 20.32C92.188 20.4467 92.3946 20.6167 92.528 20.83C92.6613 21.0433 92.728 21.3 92.728 21.6C92.728 21.8933 92.6446 22.17 92.478 22.43C92.318 22.69 92.0713 22.9033 91.738 23.07C91.4046 23.2367 90.978 23.32 90.458 23.32ZM90.458 19.49C90.038 19.49 89.6746 19.41 89.368 19.25C89.068 19.0833 88.838 18.8633 88.678 18.59C88.518 18.31 88.438 18.0033 88.438 17.67C88.438 17.33 88.518 17.0233 88.678 16.75C88.838 16.4767 89.068 16.2567 89.368 16.09C89.6746 15.9233 90.038 15.84 90.458 15.84C90.878 15.84 91.238 15.9233 91.538 16.09C91.838 16.2567 92.068 16.4767 92.228 16.75C92.388 17.0233 92.468 17.33 92.468 17.67C92.468 18.0033 92.388 18.31 92.228 18.59C92.068 18.8633 91.838 19.0833 91.538 19.25C91.238 19.41 90.878 19.49 90.458 19.49ZM90.458 18.56C90.7446 18.56 90.9746 18.4833 91.148 18.33C91.3213 18.1767 91.408 17.9567 91.408 17.67C91.408 17.3833 91.3213 17.1667 91.148 17.02C90.9746 16.8667 90.7446 16.79 90.458 16.79C90.1713 16.79 89.938 16.8667 89.758 17.02C89.578 17.1667 89.488 17.3833 89.488 17.67C89.488 17.9567 89.578 18.1767 89.758 18.33C89.938 18.4833 90.1713 18.56 90.458 18.56ZM91.288 16.84L91.058 15.96H93.128V16.71L91.288 16.84ZM96.209 21L98.769 14H100.109L102.669 21H101.399L99.429 15.4L97.459 21H96.209ZM97.349 19.35L97.669 18.4H101.119L101.439 19.35H97.349ZM105.602 21.12C105.155 21.12 104.765 21.05 104.432 20.91C104.105 20.7633 103.845 20.5633 103.652 20.31C103.465 20.05 103.355 19.7533 103.322 19.42H104.522C104.555 19.56 104.615 19.69 104.702 19.81C104.789 19.9233 104.905 20.0133 105.052 20.08C105.205 20.1467 105.385 20.18 105.592 20.18C105.792 20.18 105.955 20.1533 106.082 20.1C106.209 20.04 106.302 19.9633 106.362 19.87C106.422 19.7767 106.452 19.6767 106.452 19.57C106.452 19.41 106.409 19.2867 106.322 19.2C106.235 19.1133 106.109 19.0467 105.942 19C105.782 18.9467 105.589 18.8967 105.362 18.85C105.122 18.8033 104.889 18.7467 104.662 18.68C104.442 18.6067 104.242 18.5167 104.062 18.41C103.889 18.3033 103.749 18.1667 103.642 18C103.542 17.8333 103.492 17.63 103.492 17.39C103.492 17.0967 103.569 16.8333 103.722 16.6C103.882 16.3667 104.109 16.1833 104.402 16.05C104.702 15.91 105.059 15.84 105.472 15.84C106.059 15.84 106.525 15.9767 106.872 16.25C107.225 16.5167 107.432 16.8933 107.492 17.38H106.352C106.319 17.1933 106.225 17.05 106.072 16.95C105.919 16.8433 105.715 16.79 105.462 16.79C105.202 16.79 105.002 16.84 104.862 16.94C104.729 17.0333 104.662 17.16 104.662 17.32C104.662 17.42 104.702 17.5133 104.782 17.6C104.869 17.68 104.992 17.75 105.152 17.81C105.312 17.8633 105.509 17.9167 105.742 17.97C106.115 18.0433 106.445 18.13 106.732 18.23C107.019 18.33 107.245 18.4767 107.412 18.67C107.579 18.8633 107.662 19.1367 107.662 19.49C107.669 19.81 107.585 20.0933 107.412 20.34C107.245 20.5867 107.009 20.78 106.702 20.92C106.395 21.0533 106.029 21.12 105.602 21.12ZM110.836 21.12C110.39 21.12 110 21.05 109.666 20.91C109.34 20.7633 109.08 20.5633 108.886 20.31C108.7 20.05 108.59 19.7533 108.556 19.42H109.756C109.79 19.56 109.85 19.69 109.936 19.81C110.023 19.9233 110.14 20.0133 110.286 20.08C110.44 20.1467 110.62 20.18 110.826 20.18C111.026 20.18 111.19 20.1533 111.316 20.1C111.443 20.04 111.536 19.9633 111.596 19.87C111.656 19.7767 111.686 19.6767 111.686 19.57C111.686 19.41 111.643 19.2867 111.556 19.2C111.47 19.1133 111.343 19.0467 111.176 19C111.016 18.9467 110.823 18.8967 110.596 18.85C110.356 18.8033 110.123 18.7467 109.896 18.68C109.676 18.6067 109.476 18.5167 109.296 18.41C109.123 18.3033 108.983 18.1667 108.876 18C108.776 17.8333 108.726 17.63 108.726 17.39C108.726 17.0967 108.803 16.8333 108.956 16.6C109.116 16.3667 109.343 16.1833 109.636 16.05C109.936 15.91 110.293 15.84 110.706 15.84C111.293 15.84 111.76 15.9767 112.106 16.25C112.46 16.5167 112.666 16.8933 112.726 17.38H111.586C111.553 17.1933 111.46 17.05 111.306 16.95C111.153 16.8433 110.95 16.79 110.696 16.79C110.436 16.79 110.236 16.84 110.096 16.94C109.963 17.0333 109.896 17.16 109.896 17.32C109.896 17.42 109.936 17.5133 110.016 17.6C110.103 17.68 110.226 17.75 110.386 17.81C110.546 17.8633 110.743 17.9167 110.976 17.97C111.35 18.0433 111.68 18.13 111.966 18.23C112.253 18.33 112.48 18.4767 112.646 18.67C112.813 18.8633 112.896 19.1367 112.896 19.49C112.903 19.81 112.82 20.0933 112.646 20.34C112.48 20.5867 112.243 20.78 111.936 20.92C111.63 21.0533 111.263 21.12 110.836 21.12ZM116.421 21.12C115.921 21.12 115.481 21.0133 115.101 20.8C114.721 20.58 114.424 20.2733 114.211 19.88C113.997 19.4867 113.891 19.0333 113.891 18.52C113.891 17.9867 113.994 17.52 114.201 17.12C114.414 16.72 114.711 16.4067 115.091 16.18C115.477 15.9533 115.924 15.84 116.431 15.84C116.924 15.84 117.354 15.95 117.721 16.17C118.087 16.39 118.371 16.6867 118.571 17.06C118.771 17.4267 118.871 17.84 118.871 18.3C118.871 18.3667 118.871 18.44 118.871 18.52C118.871 18.6 118.864 18.6833 118.851 18.77H114.751V18H117.661C117.647 17.6333 117.524 17.3467 117.291 17.14C117.057 16.9267 116.767 16.82 116.421 16.82C116.174 16.82 115.947 16.8767 115.741 16.99C115.534 17.1033 115.371 17.2733 115.251 17.5C115.131 17.72 115.071 18 115.071 18.34V18.63C115.071 18.9433 115.127 19.2133 115.241 19.44C115.361 19.6667 115.521 19.84 115.721 19.96C115.927 20.0733 116.157 20.13 116.411 20.13C116.691 20.13 116.921 20.07 117.101 19.95C117.287 19.83 117.424 19.67 117.511 19.47H118.731C118.637 19.7833 118.484 20.0667 118.271 20.32C118.057 20.5667 117.794 20.7633 117.481 20.91C117.167 21.05 116.814 21.12 116.421 21.12ZM122.071 21C121.731 21 121.434 20.9467 121.181 20.84C120.934 20.7333 120.741 20.5567 120.601 20.31C120.461 20.0633 120.391 19.73 120.391 19.31V16.97H119.531V15.96H120.391L120.531 14.63H121.591V15.96H122.961V16.97H121.591V19.31C121.591 19.5633 121.644 19.74 121.751 19.84C121.864 19.9333 122.051 19.98 122.311 19.98H122.931V21H122.071ZM126.1 21.12C125.653 21.12 125.263 21.05 124.93 20.91C124.603 20.7633 124.343 20.5633 124.15 20.31C123.963 20.05 123.853 19.7533 123.82 19.42H125.02C125.053 19.56 125.113 19.69 125.2 19.81C125.287 19.9233 125.403 20.0133 125.55 20.08C125.703 20.1467 125.883 20.18 126.09 20.18C126.29 20.18 126.453 20.1533 126.58 20.1C126.707 20.04 126.8 19.9633 126.86 19.87C126.92 19.7767 126.95 19.6767 126.95 19.57C126.95 19.41 126.907 19.2867 126.82 19.2C126.733 19.1133 126.607 19.0467 126.44 19C126.28 18.9467 126.087 18.8967 125.86 18.85C125.62 18.8033 125.387 18.7467 125.16 18.68C124.94 18.6067 124.74 18.5167 124.56 18.41C124.387 18.3033 124.247 18.1667 124.14 18C124.04 17.8333 123.99 17.63 123.99 17.39C123.99 17.0967 124.067 16.8333 124.22 16.6C124.38 16.3667 124.607 16.1833 124.9 16.05C125.2 15.91 125.557 15.84 125.97 15.84C126.557 15.84 127.023 15.9767 127.37 16.25C127.723 16.5167 127.93 16.8933 127.99 17.38H126.85C126.817 17.1933 126.723 17.05 126.57 16.95C126.417 16.8433 126.213 16.79 125.96 16.79C125.7 16.79 125.5 16.84 125.36 16.94C125.227 17.0333 125.16 17.16 125.16 17.32C125.16 17.42 125.2 17.5133 125.28 17.6C125.367 17.68 125.49 17.75 125.65 17.81C125.81 17.8633 126.007 17.9167 126.24 17.97C126.613 18.0433 126.943 18.13 127.23 18.23C127.517 18.33 127.743 18.4767 127.91 18.67C128.077 18.8633 128.16 19.1367 128.16 19.49C128.167 19.81 128.083 20.0933 127.91 20.34C127.743 20.5867 127.507 20.78 127.2 20.92C126.893 21.0533 126.527 21.12 126.1 21.12Z" fill="#101828"/>
<path d="M51.21 38V31H52.63L54.87 35.52L57.09 31H58.52V38H57.32V33.06L55.34 37.02H54.4L52.41 33.07V38H51.21ZM62.2605 38.12C61.7605 38.12 61.3205 38.0133 60.9405 37.8C60.5605 37.58 60.2638 37.2733 60.0505 36.88C59.8371 36.4867 59.7305 36.0333 59.7305 35.52C59.7305 34.9867 59.8338 34.52 60.0405 34.12C60.2538 33.72 60.5505 33.4067 60.9305 33.18C61.3171 32.9533 61.7638 32.84 62.2705 32.84C62.7638 32.84 63.1938 32.95 63.5605 33.17C63.9271 33.39 64.2105 33.6867 64.4105 34.06C64.6105 34.4267 64.7105 34.84 64.7105 35.3C64.7105 35.3667 64.7105 35.44 64.7105 35.52C64.7105 35.6 64.7038 35.6833 64.6905 35.77H60.5905V35H63.5005C63.4871 34.6333 63.3638 34.3467 63.1305 34.14C62.8971 33.9267 62.6071 33.82 62.2605 33.82C62.0138 33.82 61.7871 33.8767 61.5805 33.99C61.3738 34.1033 61.2105 34.2733 61.0905 34.5C60.9705 34.72 60.9105 35 60.9105 35.34V35.63C60.9105 35.9433 60.9671 36.2133 61.0805 36.44C61.2005 36.6667 61.3605 36.84 61.5605 36.96C61.7671 37.0733 61.9971 37.13 62.2505 37.13C62.5305 37.13 62.7605 37.07 62.9405 36.95C63.1271 36.83 63.2638 36.67 63.3505 36.47H64.5705C64.4771 36.7833 64.3238 37.0667 64.1105 37.32C63.8971 37.5667 63.6338 37.7633 63.3205 37.91C63.0071 38.05 62.6538 38.12 62.2605 38.12ZM68.0584 38.12C67.5918 38.12 67.1751 38.0067 66.8084 37.78C66.4418 37.5533 66.1551 37.24 65.9484 36.84C65.7484 36.44 65.6484 35.9867 65.6484 35.48C65.6484 34.9733 65.7518 34.5233 65.9584 34.13C66.1651 33.73 66.4518 33.4167 66.8184 33.19C67.1918 32.9567 67.6118 32.84 68.0784 32.84C68.4584 32.84 68.7884 32.9133 69.0684 33.06C69.3551 33.2 69.5818 33.4 69.7484 33.66V30.8H70.9484V38H69.8684L69.7484 37.27C69.6418 37.4167 69.5118 37.5567 69.3584 37.69C69.2051 37.8167 69.0218 37.92 68.8084 38C68.5951 38.08 68.3451 38.12 68.0584 38.12ZM68.3084 37.08C68.5951 37.08 68.8484 37.0133 69.0684 36.88C69.2884 36.74 69.4584 36.55 69.5784 36.31C69.6984 36.07 69.7584 35.7933 69.7584 35.48C69.7584 35.1667 69.6984 34.89 69.5784 34.65C69.4584 34.41 69.2884 34.2233 69.0684 34.09C68.8484 33.9567 68.5951 33.89 68.3084 33.89C68.0351 33.89 67.7884 33.9567 67.5684 34.09C67.3484 34.2233 67.1751 34.41 67.0484 34.65C66.9284 34.89 66.8684 35.1667 66.8684 35.48C66.8684 35.7933 66.9284 36.07 67.0484 36.31C67.1751 36.55 67.3484 36.74 67.5684 36.88C67.7884 37.0133 68.0351 37.08 68.3084 37.08ZM72.3333 38V32.96H73.5333V38H72.3333ZM72.9333 32.16C72.7133 32.16 72.5299 32.0933 72.3833 31.96C72.2433 31.82 72.1733 31.65 72.1733 31.45C72.1733 31.2433 72.2433 31.0767 72.3833 30.95C72.5299 30.8167 72.7133 30.75 72.9333 30.75C73.1533 30.75 73.3333 30.8167 73.4733 30.95C73.6199 31.0767 73.6933 31.2433 73.6933 31.45C73.6933 31.65 73.6199 31.82 73.4733 31.96C73.3333 32.0933 73.1533 32.16 72.9333 32.16ZM76.6 38.12C76.1867 38.12 75.8433 38.05 75.57 37.91C75.2967 37.77 75.0933 37.5833 74.96 37.35C74.8267 37.1167 74.76 36.8633 74.76 36.59C74.76 36.27 74.84 35.9933 75 35.76C75.1667 35.5267 75.41 35.3467 75.73 35.22C76.05 35.0867 76.4433 35.02 76.91 35.02H78.18C78.18 34.7533 78.1433 34.5333 78.07 34.36C77.9967 34.18 77.8833 34.0467 77.73 33.96C77.5767 33.8733 77.38 33.83 77.14 33.83C76.8667 33.83 76.6333 33.8933 76.44 34.02C76.2467 34.14 76.1267 34.3267 76.08 34.58H74.9C74.94 34.22 75.06 33.9133 75.26 33.66C75.46 33.4 75.7233 33.2 76.05 33.06C76.3833 32.9133 76.7467 32.84 77.14 32.84C77.6133 32.84 78.0167 32.9233 78.35 33.09C78.6833 33.25 78.9367 33.4833 79.11 33.79C79.29 34.09 79.38 34.4533 79.38 34.88V38H78.36L78.24 37.19C78.1733 37.3233 78.0867 37.4467 77.98 37.56C77.88 37.6733 77.7633 37.7733 77.63 37.86C77.4967 37.94 77.3433 38.0033 77.17 38.05C77.0033 38.0967 76.8133 38.12 76.6 38.12ZM76.87 37.17C77.0633 37.17 77.2333 37.1367 77.38 37.07C77.5333 36.9967 77.6633 36.8967 77.77 36.77C77.8833 36.6367 77.97 36.49 78.03 36.33C78.09 36.17 78.13 36 78.15 35.82V35.8H77.04C76.8067 35.8 76.6133 35.83 76.46 35.89C76.3067 35.9433 76.1967 36.0233 76.13 36.13C76.0633 36.2367 76.03 36.36 76.03 36.5C76.03 36.64 76.0633 36.76 76.13 36.86C76.1967 36.96 76.2933 37.0367 76.42 37.09C76.5467 37.1433 76.6967 37.17 76.87 37.17ZM83.1836 35.55V34.55H87.3236V35.55H83.1836ZM91.2393 38V31H93.4993C94.3126 31 94.9826 31.1433 95.5093 31.43C96.0426 31.7167 96.436 32.1233 96.6893 32.65C96.9493 33.17 97.0793 33.79 97.0793 34.51C97.0793 35.2167 96.9493 35.8333 96.6893 36.36C96.436 36.88 96.0426 37.2833 95.5093 37.57C94.9826 37.8567 94.3126 38 93.4993 38H91.2393ZM92.4393 36.98H93.4393C94.046 36.98 94.5226 36.8833 94.8693 36.69C95.2226 36.49 95.4726 36.2067 95.6193 35.84C95.7726 35.4667 95.8493 35.0233 95.8493 34.51C95.8493 33.99 95.7726 33.5467 95.6193 33.18C95.4726 32.8067 95.2226 32.52 94.8693 32.32C94.5226 32.1133 94.046 32.01 93.4393 32.01H92.4393V36.98ZM100.561 38.12C100.081 38.12 99.6477 38.01 99.261 37.79C98.881 37.5633 98.581 37.2533 98.361 36.86C98.1477 36.46 98.041 36.0033 98.041 35.49C98.041 34.9633 98.151 34.5033 98.371 34.11C98.591 33.71 98.891 33.4 99.271 33.18C99.6577 32.9533 100.091 32.84 100.571 32.84C101.051 32.84 101.481 32.9533 101.861 33.18C102.248 33.4 102.548 33.7067 102.761 34.1C102.981 34.4933 103.091 34.9533 103.091 35.48C103.091 36.0067 102.981 36.4667 102.761 36.86C102.541 37.2533 102.238 37.5633 101.851 37.79C101.471 38.01 101.041 38.12 100.561 38.12ZM100.561 37.09C100.801 37.09 101.018 37.03 101.211 36.91C101.411 36.79 101.571 36.61 101.691 36.37C101.811 36.13 101.871 35.8333 101.871 35.48C101.871 35.1267 101.811 34.8333 101.691 34.6C101.578 34.36 101.421 34.18 101.221 34.06C101.028 33.94 100.811 33.88 100.571 33.88C100.338 33.88 100.121 33.94 99.921 34.06C99.721 34.18 99.561 34.36 99.441 34.6C99.321 34.8333 99.261 35.1267 99.261 35.48C99.261 35.8333 99.321 36.13 99.441 36.37C99.561 36.61 99.7177 36.79 99.911 36.91C100.111 37.03 100.328 37.09 100.561 37.09ZM105.09 38L103.61 32.96H104.8L105.83 37.1L105.61 37.09L106.76 32.96H108.1L109.26 37.09H109.04L110.07 32.96H111.26L109.78 38H108.54L107.31 33.73H107.56L106.33 38H105.09ZM112.117 38V32.96H113.177L113.267 33.8C113.421 33.5067 113.641 33.2733 113.927 33.1C114.214 32.9267 114.554 32.84 114.947 32.84C115.354 32.84 115.701 32.9267 115.987 33.1C116.274 33.2667 116.494 33.5133 116.647 33.84C116.807 34.1667 116.887 34.5733 116.887 35.06V38H115.687V35.17C115.687 34.75 115.594 34.4267 115.407 34.2C115.221 33.9733 114.944 33.86 114.577 33.86C114.337 33.86 114.121 33.9167 113.927 34.03C113.741 34.1433 113.591 34.31 113.477 34.53C113.371 34.7433 113.317 35.0033 113.317 35.31V38H112.117ZM118.152 38V30.8H119.352V38H118.152ZM123.041 38.12C122.561 38.12 122.128 38.01 121.741 37.79C121.361 37.5633 121.061 37.2533 120.841 36.86C120.628 36.46 120.521 36.0033 120.521 35.49C120.521 34.9633 120.631 34.5033 120.851 34.11C121.071 33.71 121.371 33.4 121.751 33.18C122.138 32.9533 122.571 32.84 123.051 32.84C123.531 32.84 123.961 32.9533 124.341 33.18C124.728 33.4 125.028 33.7067 125.241 34.1C125.461 34.4933 125.571 34.9533 125.571 35.48C125.571 36.0067 125.461 36.4667 125.241 36.86C125.021 37.2533 124.718 37.5633 124.331 37.79C123.951 38.01 123.521 38.12 123.041 38.12ZM123.041 37.09C123.281 37.09 123.498 37.03 123.691 36.91C123.891 36.79 124.051 36.61 124.171 36.37C124.291 36.13 124.351 35.8333 124.351 35.48C124.351 35.1267 124.291 34.8333 124.171 34.6C124.058 34.36 123.901 34.18 123.701 34.06C123.508 33.94 123.291 33.88 123.051 33.88C122.818 33.88 122.601 33.94 122.401 34.06C122.201 34.18 122.041 34.36 121.921 34.6C121.801 34.8333 121.741 35.1267 121.741 35.48C121.741 35.8333 121.801 36.13 121.921 36.37C122.041 36.61 122.198 36.79 122.391 36.91C122.591 37.03 122.808 37.09 123.041 37.09ZM128.426 38.12C128.013 38.12 127.67 38.05 127.396 37.91C127.123 37.77 126.92 37.5833 126.786 37.35C126.653 37.1167 126.586 36.8633 126.586 36.59C126.586 36.27 126.666 35.9933 126.826 35.76C126.993 35.5267 127.236 35.3467 127.556 35.22C127.876 35.0867 128.27 35.02 128.736 35.02H130.006C130.006 34.7533 129.97 34.5333 129.896 34.36C129.823 34.18 129.71 34.0467 129.556 33.96C129.403 33.8733 129.206 33.83 128.966 33.83C128.693 33.83 128.46 33.8933 128.266 34.02C128.073 34.14 127.953 34.3267 127.906 34.58H126.726C126.766 34.22 126.886 33.9133 127.086 33.66C127.286 33.4 127.55 33.2 127.876 33.06C128.21 32.9133 128.573 32.84 128.966 32.84C129.44 32.84 129.843 32.9233 130.176 33.09C130.51 33.25 130.763 33.4833 130.936 33.79C131.116 34.09 131.206 34.4533 131.206 34.88V38H130.186L130.066 37.19C130 37.3233 129.913 37.4467 129.806 37.56C129.706 37.6733 129.59 37.7733 129.456 37.86C129.323 37.94 129.17 38.0033 128.996 38.05C128.83 38.0967 128.64 38.12 128.426 38.12ZM128.696 37.17C128.89 37.17 129.06 37.1367 129.206 37.07C129.36 36.9967 129.49 36.8967 129.596 36.77C129.71 36.6367 129.796 36.49 129.856 36.33C129.916 36.17 129.956 36 129.976 35.82V35.8H128.866C128.633 35.8 128.44 35.83 128.286 35.89C128.133 35.9433 128.023 36.0233 127.956 36.13C127.89 36.2367 127.856 36.36 127.856 36.5C127.856 36.64 127.89 36.76 127.956 36.86C128.023 36.96 128.12 37.0367 128.246 37.09C128.373 37.1433 128.523 37.17 128.696 37.17ZM134.728 38.12C134.262 38.12 133.845 38.0067 133.478 37.78C133.112 37.5533 132.825 37.24 132.618 36.84C132.418 36.44 132.318 35.9867 132.318 35.48C132.318 34.9733 132.422 34.5233 132.628 34.13C132.835 33.73 133.122 33.4167 133.488 33.19C133.862 32.9567 134.282 32.84 134.748 32.84C135.128 32.84 135.458 32.9133 135.738 33.06C136.025 33.2 136.252 33.4 136.418 33.66V30.8H137.618V38H136.538L136.418 37.27C136.312 37.4167 136.182 37.5567 136.028 37.69C135.875 37.8167 135.692 37.92 135.478 38C135.265 38.08 135.015 38.12 134.728 38.12ZM134.978 37.08C135.265 37.08 135.518 37.0133 135.738 36.88C135.958 36.74 136.128 36.55 136.248 36.31C136.368 36.07 136.428 35.7933 136.428 35.48C136.428 35.1667 136.368 34.89 136.248 34.65C136.128 34.41 135.958 34.2233 135.738 34.09C135.518 33.9567 135.265 33.89 134.978 33.89C134.705 33.89 134.458 33.9567 134.238 34.09C134.018 34.2233 133.845 34.41 133.718 34.65C133.598 34.89 133.538 35.1667 133.538 35.48C133.538 35.7933 133.598 36.07 133.718 36.31C133.845 36.55 134.018 36.74 134.238 36.88C134.458 37.0133 134.705 37.08 134.978 37.08Z" fill="#757678"/>
<defs>
<clipPath id="clip0_3416_68731">
<rect width="32" height="28.625" fill="white" transform="translate(10.5 11.6875)"/>
</clipPath>
</defs>
</svg>
