<svg width="24" height="25" viewBox="0 0 24 25" fill="none" xmlns="http://www.w3.org/2000/svg">
<path d="M2.5 12.5C2.5 7.26614 6.76614 3 12 3C17.2339 3 21.5 7.26614 21.5 12.5C21.5 17.7339 17.2339 22 12 22C6.76614 22 2.5 17.7339 2.5 12.5ZM15.7136 16.2136C16.1988 15.7283 16.1988 14.9317 15.7136 14.4464L13.7671 12.5L15.7136 10.5536C16.1988 10.0683 16.1988 9.27171 15.7136 8.78645C15.2283 8.30118 14.4317 8.30118 13.9464 8.78645L12 10.7329L10.0536 8.78645C9.56829 8.30118 8.77171 8.30118 8.28645 8.78645C7.80118 9.27171 7.80118 10.0683 8.28645 10.5536L10.2329 12.5L8.28645 14.4464C7.80118 14.9317 7.80118 15.7283 8.28645 16.2136C8.53516 16.4623 8.85455 16.58 9.17 16.58C9.48545 16.58 9.80484 16.4623 10.0536 16.2136L12 14.2671L13.9464 16.2136C14.1952 16.4623 14.5145 16.58 14.83 16.58C15.1455 16.58 15.4648 16.4623 15.7136 16.2136Z" fill="#5B52B6" stroke="#5B52B6"/>
</svg>
