<svg width="31" height="32" viewBox="0 0 31 32" fill="none" xmlns="http://www.w3.org/2000/svg">
<rect x="0.5" y="1" width="30" height="30" rx="15" stroke="#F0F0F9"/>
<path d="M16.19 10.5H9.79C9.53 10.5 9.28 10.51 9.04 10.54C6.35 10.77 5 12.36 5 15.29V19.29C5 23.29 6.6 24.08 9.79 24.08H10.19C10.41 24.08 10.7 24.23 10.83 24.4L12.03 26C12.56 26.71 13.42 26.71 13.95 26L15.15 24.4C15.3 24.2 15.54 24.08 15.79 24.08H16.19C19.12 24.08 20.71 22.74 20.94 20.04C20.97 19.8 20.98 19.55 20.98 19.29V15.29C20.98 12.1 19.38 10.5 16.19 10.5ZM9.5 18.5C8.94 18.5 8.5 18.05 8.5 17.5C8.5 16.95 8.95 16.5 9.5 16.5C10.05 16.5 10.5 16.95 10.5 17.5C10.5 18.05 10.05 18.5 9.5 18.5ZM12.99 18.5C12.43 18.5 11.99 18.05 11.99 17.5C11.99 16.95 12.44 16.5 12.99 16.5C13.54 16.5 13.99 16.95 13.99 17.5C13.99 18.05 13.55 18.5 12.99 18.5ZM16.49 18.5C15.93 18.5 15.49 18.05 15.49 17.5C15.49 16.95 15.94 16.5 16.49 16.5C17.04 16.5 17.49 16.95 17.49 17.5C17.49 18.05 17.04 18.5 16.49 18.5Z" fill="#5B52B6"/>
<path d="M24.9802 11.29V15.29C24.9802 17.29 24.3602 18.65 23.1202 19.4C22.8202 19.58 22.4702 19.34 22.4702 18.99L22.4802 15.29C22.4802 11.29 20.1902 9 16.1902 9L10.1002 9.01C9.75025 9.01 9.51025 8.66 9.69025 8.36C10.4402 7.12 11.8002 6.5 13.7902 6.5H20.1902C23.3802 6.5 24.9802 8.1 24.9802 11.29Z" fill="#5B52B6"/>
</svg>
