<svg width="132" height="66" viewBox="0 0 132 66" fill="none" xmlns="http://www.w3.org/2000/svg">
<path d="M8.31285 55.2542C6.88779 55.2542 5.66065 54.9177 4.63144 54.2448C3.60223 53.5718 2.81053 52.6449 2.25634 51.4639C1.70215 50.283 1.42506 48.9338 1.42506 47.4164C1.42506 45.8725 1.70875 44.5102 2.27614 43.3292C2.85012 42.1417 3.64842 41.2147 4.67103 40.5484C5.70024 39.8754 6.90098 39.5389 8.27326 39.5389C9.34206 39.5389 10.3053 39.7369 11.163 40.1327C12.0206 40.5286 12.7233 41.0828 13.2709 41.7953C13.8185 42.5078 14.1582 43.3391 14.2902 44.2891H11.9547C11.7765 43.5964 11.3807 42.9828 10.7671 42.4484C10.1601 41.9074 9.34206 41.6369 8.31285 41.6369C7.40239 41.6369 6.60409 41.8745 5.91796 42.3495C5.23841 42.8179 4.70731 43.4809 4.32466 44.3386C3.9486 45.1897 3.76057 46.1892 3.76057 47.3372C3.76057 48.5115 3.9453 49.5342 4.31476 50.405C4.69082 51.2759 5.21862 51.9521 5.89816 52.4337C6.5843 52.9154 7.3892 53.1562 8.31285 53.1562C8.91982 53.1562 9.47071 53.0506 9.96552 52.8395C10.4603 52.6284 10.8793 52.3249 11.2223 51.929C11.5654 51.5332 11.8095 51.0582 11.9547 50.504H14.2902C14.1582 51.4012 13.8317 52.2094 13.3104 52.9286C12.7958 53.6411 12.113 54.2085 11.2619 54.6307C10.4174 55.0464 9.43442 55.2542 8.31285 55.2542ZM23.8796 55.2542C22.5074 55.2542 21.3033 54.9276 20.2675 54.2745C19.2383 53.6213 18.4334 52.7075 17.8528 51.5332C17.2788 50.3588 16.9919 48.9866 16.9919 47.4164C16.9919 45.833 17.2788 44.4508 17.8528 43.2698C18.4334 42.0889 19.2383 41.1718 20.2675 40.5187C21.3033 39.8655 22.5074 39.5389 23.8796 39.5389C25.2519 39.5389 26.4527 39.8655 27.4819 40.5187C28.5177 41.1718 29.3226 42.0889 29.8966 43.2698C30.4771 44.4508 30.7674 45.833 30.7674 47.4164C30.7674 48.9866 30.4771 50.3588 29.8966 51.5332C29.3226 52.7075 28.5177 53.6213 27.4819 54.2745C26.4527 54.9276 25.2519 55.2542 23.8796 55.2542ZM23.8796 53.1562C24.922 53.1562 25.7797 52.889 26.4527 52.3546C27.1256 51.8202 27.6237 51.1175 27.947 50.2467C28.2703 49.3758 28.4319 48.4324 28.4319 47.4164C28.4319 46.4003 28.2703 45.4536 27.947 44.5761C27.6237 43.6987 27.1256 42.9894 26.4527 42.4484C25.7797 41.9074 24.922 41.6369 23.8796 41.6369C22.8372 41.6369 21.9796 41.9074 21.3066 42.4484C20.6337 42.9894 20.1356 43.6987 19.8123 44.5761C19.489 45.4536 19.3274 46.4003 19.3274 47.4164C19.3274 48.4324 19.489 49.3758 19.8123 50.2467C20.1356 51.1175 20.6337 51.8202 21.3066 52.3546C21.9796 52.889 22.8372 53.1562 23.8796 53.1562ZM36.6681 45.7934V54.9375H34.3326V39.7369H36.5889V42.112H36.7868C37.1431 41.3401 37.6841 40.7199 38.4098 40.2515C39.1355 39.7765 40.0724 39.5389 41.2203 39.5389C42.2495 39.5389 43.1501 39.7501 43.922 40.1723C44.6939 40.5879 45.2943 41.2213 45.7231 42.0724C46.152 42.9169 46.3664 43.9857 46.3664 45.2788V54.9375H44.0309V45.4371C44.0309 44.243 43.7208 43.3127 43.1006 42.6464C42.4805 41.9734 41.6294 41.6369 40.5474 41.6369C39.8019 41.6369 39.1355 41.7986 38.5484 42.1219C37.9678 42.4451 37.5092 42.9169 37.1728 43.537C36.8363 44.1572 36.6681 44.9093 36.6681 45.7934ZM61.4013 43.1412L59.3033 43.7349C59.1713 43.3853 58.9767 43.0455 58.7194 42.7156C58.4687 42.3792 58.1256 42.1021 57.6902 41.8844C57.2547 41.6666 56.6972 41.5578 56.0177 41.5578C55.0875 41.5578 54.3122 41.7722 53.6921 42.201C53.0785 42.6233 52.7717 43.161 52.7717 43.8141C52.7717 44.3947 52.9828 44.8532 53.4051 45.1897C53.8273 45.5262 54.4871 45.8066 55.3843 46.0309L57.6407 46.5851C58.9998 46.9149 60.0125 47.4197 60.6788 48.0992C61.3452 48.7721 61.6784 49.6397 61.6784 50.7019C61.6784 51.5728 61.4276 52.3513 60.9262 53.0374C60.4314 53.7236 59.7387 54.2646 58.848 54.6604C57.9574 55.0563 56.9216 55.2542 55.7406 55.2542C54.1902 55.2542 52.907 54.9177 51.891 54.2448C50.8749 53.5718 50.2317 52.5888 49.9612 51.2957L52.178 50.7415C52.3891 51.5596 52.7882 52.1731 53.3754 52.5822C53.9692 52.9912 54.7444 53.1958 55.701 53.1958C56.7896 53.1958 57.6539 52.9648 58.2938 52.503C58.9404 52.0346 59.2637 51.4738 59.2637 50.8207C59.2637 50.2929 59.0789 49.8508 58.7095 49.4946C58.34 49.1317 57.7726 48.8612 57.0073 48.6831L54.4739 48.0893C53.0818 47.7594 52.0592 47.2481 51.406 46.5554C50.7595 45.856 50.4362 44.9819 50.4362 43.9329C50.4362 43.0752 50.677 42.3165 51.1586 41.6567C51.6469 40.997 52.3099 40.4791 53.1478 40.103C53.9923 39.727 54.9489 39.5389 56.0177 39.5389C57.5219 39.5389 58.7029 39.8688 59.5606 40.5286C60.4248 41.1883 61.0384 42.0592 61.4013 43.1412ZM74.7736 48.7227V39.7369H77.1091V54.9375H74.7736V52.3645H74.6152C74.259 53.1364 73.7048 53.7928 72.9526 54.3338C72.2005 54.8682 71.2505 55.1354 70.1025 55.1354C69.1525 55.1354 68.308 54.9276 67.5691 54.512C66.8302 54.0897 66.2496 53.4564 65.8273 52.6119C65.4051 51.7608 65.194 50.6887 65.194 49.3956V39.7369H67.5295V49.2373C67.5295 50.3456 67.8396 51.2297 68.4598 51.8895C69.0865 52.5492 69.8848 52.8791 70.8546 52.8791C71.4352 52.8791 72.0257 52.7306 72.6261 52.4337C73.233 52.1369 73.741 51.6816 74.1501 51.0681C74.5657 50.4545 74.7736 49.6727 74.7736 48.7227ZM83.7222 34.67V54.9375H81.3867V34.67H83.7222ZM94.6106 39.7369V41.7161H86.7332V39.7369H94.6106ZM89.0291 36.095H91.3646V50.5832C91.3646 51.2429 91.4603 51.7377 91.6516 52.0676C91.8495 52.3909 92.1002 52.6086 92.4037 52.7207C92.7138 52.8263 93.0404 52.8791 93.3834 52.8791C93.6407 52.8791 93.8519 52.8659 94.0168 52.8395C94.1817 52.8065 94.3137 52.7801 94.4127 52.7603L94.8877 54.8583C94.7293 54.9177 94.5083 54.9771 94.2246 55.0365C93.9409 55.1024 93.5814 55.1354 93.1459 55.1354C92.4862 55.1354 91.8396 54.9936 91.2063 54.7099C90.5795 54.4262 90.0583 53.9941 89.6427 53.4135C89.2336 52.8329 89.0291 52.1006 89.0291 51.2165V36.095ZM98.1237 54.9375V39.7369H100.459V54.9375H98.1237ZM99.3113 37.2034C98.8561 37.2034 98.4635 37.0484 98.1336 36.7383C97.8104 36.4282 97.6487 36.0555 97.6487 35.62C97.6487 35.1846 97.8104 34.8118 98.1336 34.5018C98.4635 34.1917 98.8561 34.0366 99.3113 34.0366C99.7665 34.0366 100.156 34.1917 100.479 34.5018C100.809 34.8118 100.974 35.1846 100.974 35.62C100.974 36.0555 100.809 36.4282 100.479 36.7383C100.156 37.0484 99.7665 37.2034 99.3113 37.2034ZM109.21 55.2938C108.247 55.2938 107.373 55.1123 106.588 54.7495C105.802 54.38 105.179 53.8489 104.717 53.1562C104.255 52.4568 104.024 51.6124 104.024 50.6227C104.024 49.7519 104.196 49.0459 104.539 48.5049C104.882 47.9573 105.341 47.5285 105.915 47.2184C106.489 46.9083 107.122 46.6774 107.815 46.5257C108.514 46.3674 109.217 46.242 109.923 46.1496C110.846 46.0309 111.595 45.9418 112.169 45.8824C112.75 45.8165 113.172 45.7076 113.436 45.5559C113.706 45.4041 113.841 45.1402 113.841 44.7642V44.685C113.841 43.7086 113.574 42.9498 113.04 42.4089C112.512 41.8679 111.71 41.5974 110.635 41.5974C109.52 41.5974 108.646 41.8415 108.013 42.3297C107.379 42.8179 106.934 43.3391 106.677 43.8933L104.46 43.1016C104.856 42.1779 105.383 41.4588 106.043 40.9442C106.71 40.423 107.435 40.0601 108.22 39.8556C109.012 39.6445 109.791 39.5389 110.556 39.5389C111.044 39.5389 111.605 39.5983 112.238 39.7171C112.878 39.8292 113.495 40.0634 114.089 40.4197C114.689 40.776 115.187 41.3137 115.583 42.0328C115.979 42.7519 116.177 43.7152 116.177 44.9225V54.9375H113.841V52.8791H113.723C113.564 53.209 113.3 53.5619 112.931 53.938C112.562 54.314 112.07 54.634 111.456 54.8979C110.843 55.1618 110.094 55.2938 109.21 55.2938ZM109.566 53.1958C110.49 53.1958 111.268 53.0143 111.902 52.6515C112.542 52.2886 113.023 51.8202 113.347 51.2462C113.677 50.6722 113.841 50.0685 113.841 49.4352V47.2976C113.742 47.4164 113.525 47.5252 113.188 47.6242C112.858 47.7165 112.476 47.799 112.04 47.8716C111.612 47.9376 111.193 47.9969 110.784 48.0497C110.381 48.0959 110.054 48.1355 109.804 48.1685C109.197 48.2476 108.629 48.3763 108.102 48.5544C107.58 48.726 107.158 48.9866 106.835 49.3362C106.518 49.6793 106.36 50.1477 106.36 50.7415C106.36 51.553 106.66 52.1666 107.26 52.5822C107.867 52.9912 108.636 53.1958 109.566 53.1958Z" fill="#3A3285"/>
<path d="M80.5138 33.4695C79.7015 8.22729 43.565 2.96971 36.5844 27.9979L35.8498 33.4695H15.8613C16.3624 -0.242706 62.0966 -13.2115 79.4728 16.8918C82.3867 21.9378 83.9117 27.6599 84.0747 33.4695H80.5138Z" fill="#3A3285"/>
<path d="M78.3489 33.4679C78.0254 20.3945 58.6231 20.1392 58.2947 33.4679H47.4395C47.6194 14.794 75.5323 12.2941 78.1932 31.4519L78.3416 33.4679H78.3465H78.3489Z" fill="#3A3285"/>
</svg>
