<svg width="24" height="24" viewBox="0 0 24 24" fill="none" xmlns="http://www.w3.org/2000/svg">
<path d="M21 21.5H3C2.86614 21.5 2.75 21.3839 2.75 21.25C2.75 21.1161 2.86614 21 3 21H21C21.1339 21 21.25 21.1161 21.25 21.25C21.25 21.3839 21.1339 21.5 21 21.5Z" fill="#5B52B6" stroke="#5B52B6"/>
<path d="M18.667 3.83518L18.667 3.83518L18.6688 3.83695C19.6137 4.77245 19.9987 5.61032 19.9906 6.41657L19.9906 6.41657V6.42162C19.9906 7.19909 19.6056 8.0289 18.6688 8.95628L18.6688 8.95626L18.6655 8.95954L17.506 10.1287C15.0581 9.41072 13.0962 7.45057 12.3757 5.00362L13.5441 3.83518C14.4865 2.89282 15.338 2.5028 16.1211 2.50786C16.9058 2.51294 17.7473 2.9155 18.667 3.83518Z" fill="#5B52B6" stroke="#5B52B6"/>
<path d="M15.6103 11.5308C15.3203 11.3908 15.0403 11.2508 14.7703 11.0908C14.5503 10.9608 14.3403 10.8208 14.1303 10.6708C13.9603 10.5608 13.7603 10.4008 13.5703 10.2408C13.5503 10.2308 13.4803 10.1708 13.4003 10.0908C13.0703 9.81078 12.7003 9.45078 12.3703 9.05078C12.3403 9.03078 12.2903 8.96078 12.2203 8.87078C12.1203 8.75078 11.9503 8.55078 11.8003 8.32078C11.6803 8.17078 11.5403 7.95078 11.4103 7.73078C11.2503 7.46078 11.1103 7.19078 10.9703 6.91078C10.9491 6.86539 10.9286 6.82022 10.9088 6.77532C10.7612 6.442 10.3265 6.34455 10.0688 6.60231L4.34032 12.3308C4.21032 12.4608 4.09032 12.7108 4.06032 12.8808L3.52032 16.7108C3.42032 17.3908 3.61032 18.0308 4.03032 18.4608C4.39032 18.8108 4.89032 19.0008 5.43032 19.0008C5.55032 19.0008 5.67032 18.9908 5.79032 18.9708L9.63032 18.4308C9.81032 18.4008 10.0603 18.2808 10.1803 18.1508L15.9016 12.4295C16.1612 12.1699 16.0633 11.7245 15.7257 11.5804C15.6877 11.5642 15.6492 11.5476 15.6103 11.5308Z" fill="#5B52B6"/>
</svg>
