<svg width="20" height="20" viewBox="0 0 20 20" fill="none" xmlns="http://www.w3.org/2000/svg">
<path d="M13.491 1.66797H6.50768C3.47435 1.66797 1.66602 3.4763 1.66602 6.50964V13.4846C1.66602 16.5263 3.47435 18.3346 6.50768 18.3346H13.4827C16.516 18.3346 18.3243 16.5263 18.3243 13.493V6.50964C18.3327 3.4763 16.5243 1.66797 13.491 1.66797ZM14.166 14.3763H5.83268C5.49102 14.3763 5.20768 14.093 5.20768 13.7513C5.20768 13.4096 5.49102 13.1263 5.83268 13.1263H14.166C14.5077 13.1263 14.791 13.4096 14.791 13.7513C14.791 14.093 14.5077 14.3763 14.166 14.3763ZM14.166 10.6263H5.83268C5.49102 10.6263 5.20768 10.343 5.20768 10.0013C5.20768 9.65964 5.49102 9.3763 5.83268 9.3763H14.166C14.5077 9.3763 14.791 9.65964 14.791 10.0013C14.791 10.343 14.5077 10.6263 14.166 10.6263ZM14.166 6.8763H5.83268C5.49102 6.8763 5.20768 6.59297 5.20768 6.2513C5.20768 5.90964 5.49102 5.6263 5.83268 5.6263H14.166C14.5077 5.6263 14.791 5.90964 14.791 6.2513C14.791 6.59297 14.5077 6.8763 14.166 6.8763Z" fill="white"/>
</svg>
