<svg width="24" height="24" viewBox="0 0 24 24" fill="none" xmlns="http://www.w3.org/2000/svg">
<path d="M20.8283 9.4183L20.8282 9.41812C18.5878 5.89757 15.3515 3.92969 12 3.92969C10.3204 3.92969 8.68041 4.41972 7.17256 5.3452C5.66421 6.28099 4.29615 7.65414 3.17172 9.4183H20.8283ZM20.8283 9.4183C21.2661 10.1056 21.5 11.0394 21.5 11.9984C21.5 12.9577 21.266 13.8882 20.8291 14.5699L20.8284 14.5709C19.7039 16.3352 18.3358 17.7084 16.8273 18.6442C15.3195 19.5697 13.6796 20.0597 12 20.0597C8.64787 20.0597 5.41201 18.1012 3.17217 14.5718L3.17172 14.5711M20.8283 9.4183L3.17172 14.5711M3.17172 14.5711C2.7338 13.8835 2.5 12.9522 2.5 11.9947M3.17172 14.5711L2.5 11.9947M2.5 11.9947C2.5 11.0372 2.73377 10.106 3.17164 9.41842L2.5 11.9947ZM7.46 11.9997C7.46 14.505 9.48305 16.5397 12 16.5397C14.5169 16.5397 16.54 14.505 16.54 11.9997C16.54 9.49435 14.5169 7.45969 12 7.45969C9.48305 7.45969 7.46 9.49435 7.46 11.9997Z" fill="#5B52B6" stroke="#5B52B6"/>
<path d="M9.65039 12.0006C9.65039 10.6956 10.7077 9.64062 12.0004 9.64062C13.2942 9.64062 14.3604 10.7068 14.3604 12.0006C14.3604 13.2922 13.2965 14.3506 12.0004 14.3506C10.7065 14.3506 9.65039 13.2945 9.65039 12.0006Z" fill="#5B52B6" stroke="#5B52B6"/>
</svg>
