<svg width="25" height="24" viewBox="0 0 25 24" fill="none" xmlns="http://www.w3.org/2000/svg">
<path d="M19.9345 4.03448C20.0668 4.2424 19.8401 4.48461 19.5998 4.43C19.1298 4.29 18.6098 4.22 18.0798 4.22H14.7796C14.6223 4.22 14.4743 4.14605 14.3798 4.02037L13.2298 2.49C13.089 2.29044 13.2221 2 13.4664 2H16.2198C17.7808 2 19.1559 2.81073 19.9345 4.03448Z" fill="#5B52B6"/>
<path d="M20.64 6.54C20.21 6.23 19.72 6 19.19 5.87C18.83 5.77 18.46 5.72 18.08 5.72H14.36C13.78 5.72 13.74 5.67 13.43 5.26L12.03 3.4C11.38 2.53 10.87 2 9.24 2H6.92C4.48 2 2.5 3.98 2.5 6.42V17.58C2.5 20.02 4.48 22 6.92 22H18.08C20.52 22 22.5 20.02 22.5 17.58V10.14C22.5 8.65 21.77 7.34 20.64 6.54ZM14.89 16.34H10.1C9.71 16.34 9.41 16.03 9.41 15.64C9.41 15.26 9.71 14.94 10.1 14.94H14.89C15.28 14.94 15.59 15.26 15.59 15.64C15.59 16.03 15.28 16.34 14.89 16.34Z" fill="#5B52B6"/>
</svg>
