<svg width="192" height="47" viewBox="0 0 192 47" fill="none" xmlns="http://www.w3.org/2000/svg">
<rect width="192" height="46.2025" rx="4" fill="#5B52B6"/>
<path d="M38.393 11.4742C38.1119 11.7611 37.9492 12.2078 37.9492 12.7864V33.4217C37.9492 34.0002 38.1119 34.447 38.393 34.7339L38.4624 34.7969L50.3223 23.2382V22.9652L38.4624 11.4065L38.393 11.4742Z" fill="url(#paint0_linear_3389_41736)"/>
<path d="M54.2712 27.0898L50.3223 23.235V22.9621L54.276 19.1072L54.3645 19.1574L59.0467 21.7549C60.3829 22.492 60.3829 23.705 59.0467 24.4469L54.3645 27.0397L54.2712 27.0898Z" fill="url(#paint1_linear_3389_41736)"/>
<path d="M54.364 27.0407L50.3218 23.0996L38.3926 34.7318C38.8364 35.1866 39.5601 35.2415 40.3832 34.7866L54.364 27.0407Z" fill="url(#paint2_linear_3389_41736)"/>
<path d="M54.364 19.1565L40.3832 11.4107C39.5601 10.9604 38.8364 11.0153 38.3926 11.4701L50.3218 23.0977L54.364 19.1565Z" fill="url(#paint3_linear_3389_41736)"/>
<path d="M71.3148 28.2696C70.3814 28.2696 69.5694 28.0642 68.8788 27.6536C68.1881 27.2336 67.6514 26.6502 67.2688 25.9036C66.8861 25.1476 66.6948 24.2702 66.6948 23.2716C66.6948 22.2636 66.8908 21.3769 67.2828 20.6116C67.6748 19.8369 68.2394 19.2302 68.9768 18.7916C69.7141 18.3529 70.5961 18.1336 71.6228 18.1336C72.7708 18.1336 73.7228 18.4089 74.4788 18.9596C75.2441 19.5102 75.7388 20.2756 75.9628 21.2556H73.8488C73.7088 20.8262 73.4474 20.4902 73.0648 20.2476C72.6914 19.9956 72.2061 19.8696 71.6088 19.8696C70.9741 19.8696 70.4328 20.0096 69.9848 20.2896C69.5368 20.5696 69.1961 20.9616 68.9628 21.4656C68.7294 21.9696 68.6128 22.5716 68.6128 23.2716C68.6128 23.9809 68.7294 24.5829 68.9628 25.0776C69.1961 25.5722 69.5274 25.9502 69.9568 26.2116C70.3954 26.4636 70.9088 26.5896 71.4968 26.5896C72.3554 26.5896 73.0041 26.3609 73.4428 25.9036C73.8908 25.4369 74.1568 24.8349 74.2408 24.0976H71.8328V22.6836H76.1448V28.1016H74.3948L74.2548 26.8556C74.0494 27.1636 73.8068 27.4249 73.5268 27.6396C73.2561 27.8449 72.9388 27.9989 72.5748 28.1016C72.2108 28.2136 71.7908 28.2696 71.3148 28.2696ZM81.9533 28.2696C81.2813 28.2696 80.6746 28.1156 80.1333 27.8076C79.6013 27.4902 79.1766 27.0562 78.8593 26.5056C78.5513 25.9456 78.3973 25.3062 78.3973 24.5876C78.3973 23.8502 78.5513 23.2062 78.8593 22.6556C79.1766 22.0956 79.6059 21.6616 80.1473 21.3536C80.6886 21.0362 81.2953 20.8776 81.9673 20.8776C82.6486 20.8776 83.2553 21.0362 83.7873 21.3536C84.3286 21.6616 84.7533 22.0956 85.0613 22.6556C85.3786 23.2062 85.5373 23.8456 85.5373 24.5736C85.5373 25.3016 85.3786 25.9456 85.0613 26.5056C84.7533 27.0562 84.3286 27.4902 83.7873 27.8076C83.2459 28.1156 82.6346 28.2696 81.9533 28.2696ZM81.9533 26.6316C82.2706 26.6316 82.5506 26.5569 82.7933 26.4076C83.0453 26.2582 83.2413 26.0296 83.3813 25.7216C83.5306 25.4136 83.6053 25.0309 83.6053 24.5736C83.6053 24.1162 83.5306 23.7382 83.3813 23.4396C83.2413 23.1316 83.0453 22.9029 82.7933 22.7536C82.5506 22.5949 82.2753 22.5156 81.9673 22.5156C81.6686 22.5156 81.3933 22.5949 81.1413 22.7536C80.8893 22.9029 80.6886 23.1316 80.5393 23.4396C80.3993 23.7382 80.3293 24.1162 80.3293 24.5736C80.3293 25.0309 80.3993 25.4136 80.5393 25.7216C80.6886 26.0296 80.8846 26.2582 81.1273 26.4076C81.3793 26.5569 81.6546 26.6316 81.9533 26.6316ZM91.2482 28.2696C90.5762 28.2696 89.9695 28.1156 89.4282 27.8076C88.8962 27.4902 88.4715 27.0562 88.1542 26.5056C87.8462 25.9456 87.6922 25.3062 87.6922 24.5876C87.6922 23.8502 87.8462 23.2062 88.1542 22.6556C88.4715 22.0956 88.9009 21.6616 89.4422 21.3536C89.9835 21.0362 90.5902 20.8776 91.2622 20.8776C91.9435 20.8776 92.5502 21.0362 93.0822 21.3536C93.6235 21.6616 94.0482 22.0956 94.3562 22.6556C94.6735 23.2062 94.8322 23.8456 94.8322 24.5736C94.8322 25.3016 94.6735 25.9456 94.3562 26.5056C94.0482 27.0562 93.6235 27.4902 93.0822 27.8076C92.5409 28.1156 91.9295 28.2696 91.2482 28.2696ZM91.2482 26.6316C91.5655 26.6316 91.8455 26.5569 92.0882 26.4076C92.3402 26.2582 92.5362 26.0296 92.6762 25.7216C92.8255 25.4136 92.9002 25.0309 92.9002 24.5736C92.9002 24.1162 92.8255 23.7382 92.6762 23.4396C92.5362 23.1316 92.3402 22.9029 92.0882 22.7536C91.8455 22.5949 91.5702 22.5156 91.2622 22.5156C90.9635 22.5156 90.6882 22.5949 90.4362 22.7536C90.1842 22.9029 89.9835 23.1316 89.8342 23.4396C89.6942 23.7382 89.6242 24.1162 89.6242 24.5736C89.6242 25.0309 89.6942 25.4136 89.8342 25.7216C89.9835 26.0296 90.1795 26.2582 90.4222 26.4076C90.6742 26.5569 90.9495 26.6316 91.2482 26.6316ZM99.7979 31.3496C99.1259 31.3496 98.5379 31.2656 98.0339 31.0976C97.5299 30.9389 97.1379 30.6916 96.8579 30.3556C96.5873 30.0289 96.4519 29.6229 96.4519 29.1376C96.4519 28.8109 96.5359 28.5029 96.7039 28.2136C96.8719 27.9242 97.1146 27.6629 97.4319 27.4296C97.7586 27.1869 98.1646 26.9816 98.6499 26.8136L99.3639 27.7376C98.9346 27.8776 98.6219 28.0502 98.4259 28.2556C98.2393 28.4702 98.1459 28.6989 98.1459 28.9416C98.1459 29.1562 98.2159 29.3382 98.3559 29.4876C98.5053 29.6369 98.7013 29.7442 98.9439 29.8096C99.1959 29.8842 99.4759 29.9216 99.7839 29.9216C100.083 29.9216 100.339 29.8842 100.554 29.8096C100.778 29.7349 100.951 29.6229 101.072 29.4736C101.203 29.3336 101.268 29.1656 101.268 28.9696C101.268 28.7176 101.179 28.5122 101.002 28.3536C100.825 28.1949 100.47 28.0969 99.9379 28.0596C99.4619 28.0222 99.0373 27.9709 98.6639 27.9056C98.2999 27.8309 97.9779 27.7469 97.6979 27.6536C97.4179 27.5509 97.1799 27.4389 96.9839 27.3176C96.7973 27.1962 96.6433 27.0749 96.5219 26.9536V26.6316L98.0199 25.0216L99.3779 25.4556L97.6139 27.1916L98.1459 26.2676C98.2486 26.3236 98.3466 26.3796 98.4399 26.4356C98.5426 26.4822 98.6686 26.5289 98.8179 26.5756C98.9673 26.6129 99.1633 26.6502 99.4059 26.6876C99.6486 26.7249 99.9566 26.7576 100.33 26.7856C100.946 26.8416 101.45 26.9582 101.842 27.1356C102.243 27.3129 102.537 27.5509 102.724 27.8496C102.911 28.1389 103.004 28.4982 103.004 28.9276C103.004 29.3476 102.887 29.7396 102.654 30.1036C102.43 30.4769 102.08 30.7756 101.604 30.9996C101.128 31.2329 100.526 31.3496 99.7979 31.3496ZM99.7979 26.0156C99.2099 26.0156 98.7013 25.9036 98.2719 25.6796C97.8519 25.4462 97.5253 25.1382 97.2919 24.7556C97.0679 24.3636 96.9559 23.9296 96.9559 23.4536C96.9559 22.9776 97.0679 22.5482 97.2919 22.1656C97.5253 21.7736 97.8519 21.4609 98.2719 21.2276C98.7013 20.9942 99.2099 20.8776 99.7979 20.8776C100.395 20.8776 100.904 20.9942 101.324 21.2276C101.753 21.4609 102.08 21.7736 102.304 22.1656C102.528 22.5482 102.64 22.9776 102.64 23.4536C102.64 23.9296 102.528 24.3636 102.304 24.7556C102.08 25.1382 101.753 25.4462 101.324 25.6796C100.904 25.9036 100.395 26.0156 99.7979 26.0156ZM99.7979 24.5736C100.162 24.5736 100.456 24.4802 100.68 24.2936C100.904 24.1069 101.016 23.8316 101.016 23.4676C101.016 23.1036 100.904 22.8282 100.68 22.6416C100.456 22.4456 100.162 22.3476 99.7979 22.3476C99.4433 22.3476 99.1493 22.4456 98.9159 22.6416C98.6919 22.8282 98.5799 23.1036 98.5799 23.4676C98.5799 23.8316 98.6919 24.1069 98.9159 24.2936C99.1493 24.4802 99.4433 24.5736 99.7979 24.5736ZM100.974 22.3896L100.666 21.0456H103.564V22.1656L100.974 22.3896ZM105.85 28.1016V18.0216H107.74V28.1016H105.85ZM113.72 28.2696C113.011 28.2696 112.381 28.1202 111.83 27.8216C111.289 27.5136 110.864 27.0889 110.556 26.5476C110.258 25.9969 110.108 25.3622 110.108 24.6436C110.108 23.9062 110.258 23.2576 110.556 22.6976C110.864 22.1282 111.289 21.6849 111.83 21.3676C112.372 21.0409 113.002 20.8776 113.72 20.8776C114.42 20.8776 115.032 21.0316 115.554 21.3396C116.077 21.6476 116.483 22.0629 116.772 22.5856C117.062 23.1082 117.206 23.7009 117.206 24.3636C117.206 24.4569 117.206 24.5642 117.206 24.6856C117.206 24.7976 117.197 24.9142 117.178 25.0356H111.452V23.8876H115.302C115.274 23.4302 115.111 23.0709 114.812 22.8096C114.523 22.5482 114.159 22.4176 113.72 22.4176C113.403 22.4176 113.109 22.4922 112.838 22.6416C112.568 22.7816 112.353 23.0009 112.194 23.2996C112.045 23.5982 111.97 23.9762 111.97 24.4336V24.8396C111.97 25.2222 112.04 25.5582 112.18 25.8476C112.33 26.1276 112.535 26.3469 112.796 26.5056C113.058 26.6549 113.361 26.7296 113.706 26.7296C114.052 26.7296 114.336 26.6549 114.56 26.5056C114.794 26.3562 114.966 26.1649 115.078 25.9316H117.01C116.88 26.3702 116.66 26.7669 116.352 27.1216C116.044 27.4762 115.666 27.7562 115.218 27.9616C114.77 28.1669 114.271 28.2696 113.72 28.2696ZM123.591 28.1016V18.3016H127.259C128.052 18.3016 128.71 18.4369 129.233 18.7076C129.756 18.9782 130.143 19.3422 130.395 19.7996C130.647 20.2569 130.773 20.7796 130.773 21.3676C130.773 21.9089 130.652 22.4082 130.409 22.8656C130.166 23.3229 129.784 23.6962 129.261 23.9856C128.738 24.2656 128.071 24.4056 127.259 24.4056H125.481V28.1016H123.591ZM125.481 22.8796H127.147C127.754 22.8796 128.188 22.7442 128.449 22.4736C128.72 22.1936 128.855 21.8249 128.855 21.3676C128.855 20.8822 128.72 20.5089 128.449 20.2476C128.188 19.9769 127.754 19.8416 127.147 19.8416H125.481V22.8796ZM132.899 28.1016V18.0216H134.789V28.1016H132.899ZM139.761 28.2696C139.173 28.2696 138.688 28.1762 138.305 27.9896C137.922 27.7936 137.638 27.5369 137.451 27.2196C137.274 26.8929 137.185 26.5336 137.185 26.1416C137.185 25.7122 137.292 25.3342 137.507 25.0076C137.731 24.6809 138.062 24.4242 138.501 24.2376C138.949 24.0509 139.509 23.9576 140.181 23.9576H141.931C141.931 23.6122 141.884 23.3276 141.791 23.1036C141.698 22.8702 141.553 22.6976 141.357 22.5856C141.161 22.4736 140.9 22.4176 140.573 22.4176C140.218 22.4176 139.915 22.4969 139.663 22.6556C139.42 22.8049 139.271 23.0382 139.215 23.3556H137.381C137.428 22.8516 137.591 22.4176 137.871 22.0536C138.16 21.6802 138.538 21.3909 139.005 21.1856C139.481 20.9802 140.008 20.8776 140.587 20.8776C141.25 20.8776 141.824 20.9896 142.309 21.2136C142.794 21.4376 143.168 21.7596 143.429 22.1796C143.69 22.5996 143.821 23.1176 143.821 23.7336V28.1016H142.225L142.015 27.0236C141.912 27.2102 141.791 27.3782 141.651 27.5276C141.511 27.6769 141.348 27.8076 141.161 27.9196C140.974 28.0316 140.764 28.1156 140.531 28.1716C140.298 28.2369 140.041 28.2696 139.761 28.2696ZM140.209 26.8136C140.452 26.8136 140.666 26.7716 140.853 26.6876C141.049 26.5942 141.217 26.4729 141.357 26.3236C141.497 26.1649 141.604 25.9876 141.679 25.7916C141.763 25.5862 141.819 25.3669 141.847 25.1336V25.1196H140.405C140.116 25.1196 139.878 25.1569 139.691 25.2316C139.514 25.2969 139.383 25.3949 139.299 25.5256C139.215 25.6562 139.173 25.8056 139.173 25.9736C139.173 26.1602 139.215 26.3142 139.299 26.4356C139.383 26.5569 139.504 26.6502 139.663 26.7156C139.822 26.7809 140.004 26.8136 140.209 26.8136ZM146.984 31.1816L148.692 27.3176H148.272L145.444 21.0456H147.502L149.518 25.5956L151.338 21.0456H153.34L148.986 31.1816H146.984Z" fill="white"/>
<defs>
<linearGradient id="paint0_linear_3389_41736" x1="49.2693" y1="33.6366" x2="33.6147" y2="17.5807" gradientUnits="userSpaceOnUse">
<stop stop-color="#00A0FF"/>
<stop offset="0.0066" stop-color="#00A1FF"/>
<stop offset="0.2601" stop-color="#00BEFF"/>
<stop offset="0.5122" stop-color="#00D2FF"/>
<stop offset="0.7604" stop-color="#00DFFF"/>
<stop offset="1" stop-color="#00E3FF"/>
</linearGradient>
<linearGradient id="paint1_linear_3389_41736" x1="60.7867" y1="23.0972" x2="37.6298" y2="23.0972" gradientUnits="userSpaceOnUse">
<stop stop-color="#FFE000"/>
<stop offset="0.4087" stop-color="#FFBD00"/>
<stop offset="0.7754" stop-color="#FFA500"/>
<stop offset="1" stop-color="#FF9C00"/>
</linearGradient>
<linearGradient id="paint2_linear_3389_41736" x1="52.166" y1="20.9571" x2="30.9372" y2="-0.816046" gradientUnits="userSpaceOnUse">
<stop stop-color="#FF3A44"/>
<stop offset="1" stop-color="#C31162"/>
</linearGradient>
<linearGradient id="paint3_linear_3389_41736" x1="35.3897" y1="41.5951" x2="44.8694" y2="31.8725" gradientUnits="userSpaceOnUse">
<stop stop-color="#32A071"/>
<stop offset="0.0685" stop-color="#2DA771"/>
<stop offset="0.4762" stop-color="#15CF74"/>
<stop offset="0.8009" stop-color="#06E775"/>
<stop offset="1" stop-color="#00F076"/>
</linearGradient>
</defs>
</svg>
