<svg width="138" height="52" viewBox="0 0 138 52" fill="none" xmlns="http://www.w3.org/2000/svg">
<rect x="1" y="0.5" width="136" height="51" rx="7.5" stroke="#F1F1F1"/>
<path d="M34.5999 12.0703L40.1639 17.8703V39.9263H19.3789V39.9983H40.2349V17.9433L34.5999 12.0703Z" fill="#909090"/>
<path d="M34.5316 12H19.3086V39.928H40.1646V17.873L34.5316 12Z" fill="#F4F4F4"/>
<path d="M19.1556 13.5H12.7656V20.327H32.8656V13.5H19.1556Z" fill="#7A7B7C"/>
<path d="M32.9715 20.2109H12.8945V13.3789H32.9715V20.2109Z" fill="#DD2025"/>
<path d="M19.5511 14.5347H18.2441V19.3347H19.2721V17.7157L19.4991 17.7287C19.7198 17.7256 19.9384 17.6861 20.1461 17.6117C20.3288 17.5496 20.4966 17.4506 20.6391 17.3207C20.7853 17.1981 20.9001 17.0425 20.9741 16.8667C21.0754 16.5754 21.1112 16.2654 21.0791 15.9587C21.0734 15.7395 21.035 15.5224 20.9651 15.3147C20.9022 15.1645 20.8085 15.0291 20.6902 14.9171C20.5719 14.8052 20.4316 14.7192 20.2781 14.6647C20.1459 14.6157 20.0088 14.5808 19.8691 14.5607C19.7637 14.5435 19.657 14.5348 19.5501 14.5347M19.3611 16.8287H19.2721V15.3487H19.4651C19.5503 15.3425 19.6358 15.3556 19.7152 15.3869C19.7947 15.4182 19.8661 15.467 19.9241 15.5297C20.0445 15.6907 20.1087 15.8867 20.1071 16.0877C20.1071 16.3337 20.1071 16.5567 19.8851 16.7137C19.7252 16.8017 19.5432 16.8423 19.3611 16.8287ZM23.0321 14.5217C22.9211 14.5217 22.8131 14.5297 22.7371 14.5327L22.4991 14.5387H21.7191V19.3387H22.6371C22.9879 19.3477 23.3371 19.2882 23.6651 19.1637C23.9293 19.0593 24.163 18.8905 24.3451 18.6727C24.5236 18.4538 24.651 18.1979 24.7181 17.9237C24.797 17.6136 24.8353 17.2946 24.8321 16.9747C24.8517 16.5968 24.8225 16.218 24.7451 15.8477C24.6711 15.5753 24.5341 15.3243 24.3451 15.1147C24.1969 14.9452 24.0146 14.8089 23.8101 14.7147C23.635 14.6335 23.4506 14.5737 23.2611 14.5367C23.1858 14.5243 23.1095 14.5186 23.0331 14.5197M22.8511 18.4567H22.7511V15.3927H22.7641C22.9703 15.3688 23.1789 15.406 23.3641 15.4997C23.4998 15.608 23.6103 15.7445 23.6881 15.8997C23.7721 16.063 23.8205 16.2423 23.8301 16.4257C23.8391 16.6457 23.8301 16.8257 23.8301 16.9747C23.8338 17.1463 23.8228 17.3179 23.7971 17.4877C23.7657 17.6617 23.7087 17.8302 23.6281 17.9877C23.5371 18.1345 23.4127 18.2578 23.2651 18.3477C23.1419 18.4277 22.9957 18.4649 22.8491 18.4537M27.9291 14.5387H25.4991V19.3387H26.5271V17.4347H27.8271V16.5427H26.5271V15.4307H27.9271V14.5387" fill="#464648"/>
<path d="M32.2807 30.2535C32.2807 30.2535 35.4687 29.6755 35.4687 30.7645C35.4687 31.8535 33.4937 31.4105 32.2807 30.2535ZM29.9237 30.3365C29.4171 30.4482 28.9235 30.612 28.4507 30.8255L28.8507 29.9255C29.2507 29.0255 29.6657 27.7985 29.6657 27.7985C30.1418 28.6027 30.6972 29.3571 31.3237 30.0505C30.8521 30.1208 30.3847 30.2169 29.9237 30.3385V30.3365ZM28.6617 23.8365C28.6617 22.8875 28.9687 22.6285 29.2077 22.6285C29.4467 22.6285 29.7157 22.7435 29.7247 23.5675C29.6467 24.3961 29.4732 25.2128 29.2077 26.0015C28.8427 25.3398 28.6543 24.5952 28.6607 23.8395L28.6617 23.8365ZM24.0127 34.3525C23.0347 33.7675 26.0637 31.9665 26.6127 31.9085C26.6097 31.9095 25.0367 34.9645 24.0127 34.3525ZM36.3997 30.8935C36.3897 30.7935 36.2997 29.6865 34.3297 29.7335C33.5085 29.7192 32.6877 29.777 31.8767 29.9065C31.0906 29.1153 30.4139 28.2223 29.8647 27.2515C30.2105 26.2508 30.42 25.2081 30.4877 24.1515C30.4587 22.9515 30.1717 22.2635 29.2517 22.2735C28.3317 22.2835 28.1977 23.0885 28.3187 24.2865C28.4371 25.0916 28.6607 25.8777 28.9837 26.6245C28.9837 26.6245 28.5587 27.9475 27.9967 29.2635C27.4347 30.5795 27.0507 31.2695 27.0507 31.2695C26.0733 31.5873 25.1532 32.06 24.3257 32.6695C23.5017 33.4365 23.1667 34.0255 23.6007 34.6145C23.9747 35.1225 25.2837 35.2375 26.4537 33.7045C27.0743 32.912 27.6422 32.0795 28.1537 31.2125C28.1537 31.2125 29.9377 30.7235 30.4927 30.5895C31.0477 30.4555 31.7187 30.3495 31.7187 30.3495C31.7187 30.3495 33.3477 31.9885 34.9187 31.9305C36.4897 31.8725 36.4137 30.9915 36.4037 30.8955" fill="#DD2025"/>
<path d="M34.4531 12.0781V17.9511H40.0861L34.4531 12.0781Z" fill="#909090"/>
<path d="M34.5312 12V17.873H40.1642L34.5312 12Z" fill="#F4F4F4"/>
<path d="M19.475 14.4565H18.168V19.2565H19.2V17.6385L19.428 17.6515C19.6486 17.6485 19.8672 17.609 20.075 17.5345C20.2576 17.4725 20.4254 17.3734 20.568 17.2435C20.713 17.1206 20.8268 16.965 20.9 16.7895C21.0012 16.4982 21.0371 16.1882 21.005 15.8815C20.9993 15.6624 20.9608 15.4453 20.891 15.2375C20.828 15.0873 20.7344 14.9519 20.6161 14.84C20.4978 14.7281 20.3574 14.6421 20.204 14.5875C20.0711 14.5381 19.9333 14.5029 19.793 14.4825C19.6875 14.4654 19.5808 14.4567 19.474 14.4565M19.285 16.7505H19.196V15.2705H19.39C19.4751 15.2644 19.5606 15.2775 19.6401 15.3088C19.7195 15.3401 19.7909 15.3889 19.849 15.4515C19.9693 15.6125 20.0336 15.8085 20.032 16.0095C20.032 16.2555 20.032 16.4785 19.81 16.6355C19.6501 16.7236 19.468 16.7632 19.286 16.7495M22.956 14.4435C22.845 14.4435 22.737 14.4515 22.661 14.4545L22.426 14.4605H21.646V19.2605H22.564C22.9148 19.2695 23.2639 19.2101 23.592 19.0855C23.8561 18.9812 24.0899 18.8124 24.272 18.5945C24.4504 18.3757 24.5778 18.1198 24.645 17.8455C24.7238 17.5355 24.7622 17.2165 24.759 16.8965C24.7785 16.5187 24.7493 16.1399 24.672 15.7695C24.5979 15.4972 24.4609 15.2461 24.272 15.0365C24.1238 14.867 23.9415 14.7307 23.737 14.6365C23.5618 14.5553 23.3775 14.4956 23.188 14.4585C23.1126 14.4462 23.0363 14.4405 22.96 14.4415M22.778 18.3785H22.678V15.3145H22.691C22.8971 15.2907 23.1058 15.3279 23.291 15.4215C23.4266 15.5299 23.5372 15.6663 23.615 15.8215C23.6989 15.9849 23.7473 16.1641 23.757 16.3475C23.766 16.5675 23.757 16.7475 23.757 16.8965C23.7607 17.0682 23.7496 17.2398 23.724 17.4095C23.6925 17.5836 23.6356 17.7521 23.555 17.9095C23.4639 18.0564 23.3396 18.1797 23.192 18.2695C23.0687 18.3495 22.9225 18.3868 22.776 18.3755M27.853 14.4605H25.423V19.2605H26.451V17.3565H27.751V16.4645H26.451V15.3525H27.851V14.4605" fill="white"/>
<path d="M54.26 21.12C53.6 21.12 53.02 20.97 52.52 20.67C52.0267 20.37 51.6433 19.9533 51.37 19.42C51.0967 18.88 50.96 18.25 50.96 17.53C50.96 16.8167 51.1 16.1867 51.38 15.64C51.66 15.0867 52.06 14.6567 52.58 14.35C53.1067 14.0367 53.73 13.88 54.45 13.88C55.2633 13.88 55.9367 14.0767 56.47 14.47C57.01 14.8567 57.36 15.3967 57.52 16.09H56.17C56.07 15.7433 55.8733 15.4733 55.58 15.28C55.2867 15.0867 54.9067 14.99 54.44 14.99C53.9667 14.99 53.56 15.0933 53.22 15.3C52.8867 15.5 52.63 15.7933 52.45 16.18C52.2767 16.56 52.19 17.0133 52.19 17.54C52.19 18.0667 52.2767 18.52 52.45 18.9C52.63 19.28 52.8833 19.57 53.21 19.77C53.5367 19.9633 53.92 20.06 54.36 20.06C55.0133 20.06 55.5067 19.8767 55.84 19.51C56.1733 19.1433 56.37 18.6667 56.43 18.08H54.62V17.17H57.64V21H56.54L56.44 20.04C56.2867 20.2667 56.11 20.4633 55.91 20.63C55.71 20.79 55.4733 20.9133 55.2 21C54.9333 21.08 54.62 21.12 54.26 21.12ZM60.7646 21.12C60.3579 21.12 60.0079 21.04 59.7146 20.88C59.4279 20.7133 59.2079 20.4667 59.0546 20.14C58.9013 19.8067 58.8246 19.3967 58.8246 18.91V15.96H60.0246V18.79C60.0246 19.2233 60.1146 19.5533 60.2946 19.78C60.4813 20 60.7613 20.11 61.1346 20.11C61.3746 20.11 61.5879 20.0533 61.7746 19.94C61.9679 19.8267 62.1179 19.6633 62.2246 19.45C62.3379 19.23 62.3946 18.9633 62.3946 18.65V15.96H63.5946V21H62.5346L62.4446 20.16C62.2913 20.4533 62.0679 20.6867 61.7746 20.86C61.4879 21.0333 61.1513 21.12 60.7646 21.12ZM64.9798 21V15.96H66.1798V21H64.9798ZM65.5798 15.16C65.3598 15.16 65.1764 15.0933 65.0298 14.96C64.8898 14.82 64.8198 14.65 64.8198 14.45C64.8198 14.2433 64.8898 14.0767 65.0298 13.95C65.1764 13.8167 65.3598 13.75 65.5798 13.75C65.7998 13.75 65.9798 13.8167 66.1198 13.95C66.2664 14.0767 66.3398 14.2433 66.3398 14.45C66.3398 14.65 66.2664 14.82 66.1198 14.96C65.9798 15.0933 65.7998 15.16 65.5798 15.16ZM69.8065 21.12C69.3398 21.12 68.9232 21.0067 68.5565 20.78C68.1898 20.5533 67.9032 20.24 67.6965 19.84C67.4965 19.44 67.3965 18.9867 67.3965 18.48C67.3965 17.9733 67.4998 17.5233 67.7065 17.13C67.9132 16.73 68.1998 16.4167 68.5665 16.19C68.9398 15.9567 69.3598 15.84 69.8265 15.84C70.2065 15.84 70.5365 15.9133 70.8165 16.06C71.1032 16.2 71.3298 16.4 71.4965 16.66V13.8H72.6965V21H71.6165L71.4965 20.27C71.3898 20.4167 71.2598 20.5567 71.1065 20.69C70.9532 20.8167 70.7698 20.92 70.5565 21C70.3432 21.08 70.0932 21.12 69.8065 21.12ZM70.0565 20.08C70.3432 20.08 70.5965 20.0133 70.8165 19.88C71.0365 19.74 71.2065 19.55 71.3265 19.31C71.4465 19.07 71.5065 18.7933 71.5065 18.48C71.5065 18.1667 71.4465 17.89 71.3265 17.65C71.2065 17.41 71.0365 17.2233 70.8165 17.09C70.5965 16.9567 70.3432 16.89 70.0565 16.89C69.7832 16.89 69.5365 16.9567 69.3165 17.09C69.0965 17.2233 68.9232 17.41 68.7965 17.65C68.6765 17.89 68.6165 18.1667 68.6165 18.48C68.6165 18.7933 68.6765 19.07 68.7965 19.31C68.9232 19.55 69.0965 19.74 69.3165 19.88C69.5365 20.0133 69.7832 20.08 70.0565 20.08ZM76.3913 21.12C75.8913 21.12 75.4513 21.0133 75.0713 20.8C74.6913 20.58 74.3947 20.2733 74.1813 19.88C73.968 19.4867 73.8613 19.0333 73.8613 18.52C73.8613 17.9867 73.9647 17.52 74.1713 17.12C74.3847 16.72 74.6813 16.4067 75.0613 16.18C75.448 15.9533 75.8947 15.84 76.4013 15.84C76.8947 15.84 77.3247 15.95 77.6913 16.17C78.058 16.39 78.3413 16.6867 78.5413 17.06C78.7413 17.4267 78.8413 17.84 78.8413 18.3C78.8413 18.3667 78.8413 18.44 78.8413 18.52C78.8413 18.6 78.8347 18.6833 78.8213 18.77H74.7213V18H77.6313C77.618 17.6333 77.4947 17.3467 77.2613 17.14C77.028 16.9267 76.738 16.82 76.3913 16.82C76.1447 16.82 75.918 16.8767 75.7113 16.99C75.5047 17.1033 75.3413 17.2733 75.2213 17.5C75.1013 17.72 75.0413 18 75.0413 18.34V18.63C75.0413 18.9433 75.098 19.2133 75.2113 19.44C75.3313 19.6667 75.4913 19.84 75.6913 19.96C75.898 20.0733 76.128 20.13 76.3813 20.13C76.6613 20.13 76.8913 20.07 77.0713 19.95C77.258 19.83 77.3947 19.67 77.4813 19.47H78.7013C78.608 19.7833 78.4547 20.0667 78.2413 20.32C78.028 20.5667 77.7647 20.7633 77.4513 20.91C77.138 21.05 76.7847 21.12 76.3913 21.12ZM79.9493 21V13.8H81.1493V21H79.9493ZM82.5384 21V15.96H83.7384V21H82.5384ZM83.1384 15.16C82.9184 15.16 82.735 15.0933 82.5884 14.96C82.4484 14.82 82.3784 14.65 82.3784 14.45C82.3784 14.2433 82.4484 14.0767 82.5884 13.95C82.735 13.8167 82.9184 13.75 83.1384 13.75C83.3584 13.75 83.5384 13.8167 83.6784 13.95C83.825 14.0767 83.8984 14.2433 83.8984 14.45C83.8984 14.65 83.825 14.82 83.6784 14.96C83.5384 15.0933 83.3584 15.16 83.1384 15.16ZM85.1251 21V15.96H86.1851L86.2751 16.8C86.4284 16.5067 86.6484 16.2733 86.9351 16.1C87.2217 15.9267 87.5617 15.84 87.9551 15.84C88.3617 15.84 88.7084 15.9267 88.9951 16.1C89.2817 16.2667 89.5017 16.5133 89.6551 16.84C89.8151 17.1667 89.8951 17.5733 89.8951 18.06V21H88.6951V18.17C88.6951 17.75 88.6017 17.4267 88.4151 17.2C88.2284 16.9733 87.9517 16.86 87.5851 16.86C87.3451 16.86 87.1284 16.9167 86.9351 17.03C86.7484 17.1433 86.5984 17.31 86.4851 17.53C86.3784 17.7433 86.3251 18.0033 86.3251 18.31V21H85.1251ZM93.5202 21.12C93.0202 21.12 92.5802 21.0133 92.2002 20.8C91.8202 20.58 91.5236 20.2733 91.3102 19.88C91.0969 19.4867 90.9902 19.0333 90.9902 18.52C90.9902 17.9867 91.0936 17.52 91.3002 17.12C91.5136 16.72 91.8102 16.4067 92.1902 16.18C92.5769 15.9533 93.0236 15.84 93.5302 15.84C94.0236 15.84 94.4536 15.95 94.8202 16.17C95.1869 16.39 95.4702 16.6867 95.6702 17.06C95.8702 17.4267 95.9702 17.84 95.9702 18.3C95.9702 18.3667 95.9702 18.44 95.9702 18.52C95.9702 18.6 95.9636 18.6833 95.9502 18.77H91.8502V18H94.7602C94.7469 17.6333 94.6236 17.3467 94.3902 17.14C94.1569 16.9267 93.8669 16.82 93.5202 16.82C93.2736 16.82 93.0469 16.8767 92.8402 16.99C92.6336 17.1033 92.4702 17.2733 92.3502 17.5C92.2302 17.72 92.1702 18 92.1702 18.34V18.63C92.1702 18.9433 92.2269 19.2133 92.3402 19.44C92.4602 19.6667 92.6202 19.84 92.8202 19.96C93.0269 20.0733 93.2569 20.13 93.5102 20.13C93.7902 20.13 94.0202 20.07 94.2002 19.95C94.3869 19.83 94.5236 19.67 94.6102 19.47H95.8302C95.7369 19.7833 95.5836 20.0667 95.3702 20.32C95.1569 20.5667 94.8936 20.7633 94.5802 20.91C94.2669 21.05 93.9136 21.12 93.5202 21.12ZM99.0882 21.12C98.6415 21.12 98.2515 21.05 97.9182 20.91C97.5915 20.7633 97.3315 20.5633 97.1382 20.31C96.9515 20.05 96.8415 19.7533 96.8082 19.42H98.0082C98.0415 19.56 98.1015 19.69 98.1882 19.81C98.2749 19.9233 98.3915 20.0133 98.5382 20.08C98.6915 20.1467 98.8715 20.18 99.0782 20.18C99.2782 20.18 99.4415 20.1533 99.5682 20.1C99.6949 20.04 99.7882 19.9633 99.8482 19.87C99.9082 19.7767 99.9382 19.6767 99.9382 19.57C99.9382 19.41 99.8949 19.2867 99.8082 19.2C99.7215 19.1133 99.5949 19.0467 99.4282 19C99.2682 18.9467 99.0749 18.8967 98.8482 18.85C98.6082 18.8033 98.3749 18.7467 98.1482 18.68C97.9282 18.6067 97.7282 18.5167 97.5482 18.41C97.3749 18.3033 97.2349 18.1667 97.1282 18C97.0282 17.8333 96.9782 17.63 96.9782 17.39C96.9782 17.0967 97.0549 16.8333 97.2082 16.6C97.3682 16.3667 97.5949 16.1833 97.8882 16.05C98.1882 15.91 98.5449 15.84 98.9582 15.84C99.5449 15.84 100.012 15.9767 100.358 16.25C100.712 16.5167 100.918 16.8933 100.978 17.38H99.8382C99.8049 17.1933 99.7115 17.05 99.5582 16.95C99.4049 16.8433 99.2015 16.79 98.9482 16.79C98.6882 16.79 98.4882 16.84 98.3482 16.94C98.2149 17.0333 98.1482 17.16 98.1482 17.32C98.1482 17.42 98.1882 17.5133 98.2682 17.6C98.3549 17.68 98.4782 17.75 98.6382 17.81C98.7982 17.8633 98.9949 17.9167 99.2282 17.97C99.6015 18.0433 99.9315 18.13 100.218 18.23C100.505 18.33 100.732 18.4767 100.898 18.67C101.065 18.8633 101.148 19.1367 101.148 19.49C101.155 19.81 101.072 20.0933 100.898 20.34C100.732 20.5867 100.495 20.78 100.188 20.92C99.8815 21.0533 99.5149 21.12 99.0882 21.12ZM102.833 21.05C102.606 21.05 102.423 20.98 102.283 20.84C102.143 20.7 102.073 20.5333 102.073 20.34C102.073 20.1333 102.143 19.96 102.283 19.82C102.423 19.68 102.606 19.61 102.833 19.61C103.053 19.61 103.233 19.68 103.373 19.82C103.513 19.96 103.583 20.1333 103.583 20.34C103.583 20.5333 103.513 20.7 103.373 20.84C103.233 20.98 103.053 21.05 102.833 21.05ZM104.676 23.2V15.96H105.746L105.876 16.69C105.983 16.5433 106.109 16.4067 106.256 16.28C106.409 16.1467 106.593 16.04 106.806 15.96C107.026 15.88 107.276 15.84 107.556 15.84C108.029 15.84 108.446 15.9567 108.806 16.19C109.173 16.4233 109.459 16.74 109.666 17.14C109.873 17.5333 109.976 17.9833 109.976 18.49C109.976 18.9967 109.869 19.45 109.656 19.85C109.449 20.2433 109.163 20.5533 108.796 20.78C108.436 21.0067 108.023 21.12 107.556 21.12C107.176 21.12 106.843 21.05 106.556 20.91C106.276 20.7633 106.049 20.5567 105.876 20.29V23.2H104.676ZM107.306 20.08C107.586 20.08 107.836 20.0133 108.056 19.88C108.276 19.7467 108.446 19.56 108.566 19.32C108.693 19.08 108.756 18.8033 108.756 18.49C108.756 18.17 108.693 17.89 108.566 17.65C108.446 17.41 108.276 17.2233 108.056 17.09C107.836 16.9567 107.586 16.89 107.306 16.89C107.019 16.89 106.766 16.9567 106.546 17.09C106.333 17.2233 106.163 17.41 106.036 17.65C105.916 17.89 105.856 18.1667 105.856 18.48C105.856 18.8 105.916 19.08 106.036 19.32C106.163 19.5533 106.333 19.74 106.546 19.88C106.766 20.0133 107.019 20.08 107.306 20.08ZM113.381 21.12C112.914 21.12 112.497 21.0067 112.131 20.78C111.764 20.5533 111.477 20.24 111.271 19.84C111.071 19.44 110.971 18.9867 110.971 18.48C110.971 17.9733 111.074 17.5233 111.281 17.13C111.487 16.73 111.774 16.4167 112.141 16.19C112.514 15.9567 112.934 15.84 113.401 15.84C113.781 15.84 114.111 15.9133 114.391 16.06C114.677 16.2 114.904 16.4 115.071 16.66V13.8H116.271V21H115.191L115.071 20.27C114.964 20.4167 114.834 20.5567 114.681 20.69C114.527 20.8167 114.344 20.92 114.131 21C113.917 21.08 113.667 21.12 113.381 21.12ZM113.631 20.08C113.917 20.08 114.171 20.0133 114.391 19.88C114.611 19.74 114.781 19.55 114.901 19.31C115.021 19.07 115.081 18.7933 115.081 18.48C115.081 18.1667 115.021 17.89 114.901 17.65C114.781 17.41 114.611 17.2233 114.391 17.09C114.171 16.9567 113.917 16.89 113.631 16.89C113.357 16.89 113.111 16.9567 112.891 17.09C112.671 17.2233 112.497 17.41 112.371 17.65C112.251 17.89 112.191 18.1667 112.191 18.48C112.191 18.7933 112.251 19.07 112.371 19.31C112.497 19.55 112.671 19.74 112.891 19.88C113.111 20.0133 113.357 20.08 113.631 20.08ZM117.856 21V15.41C117.856 15.0233 117.919 14.7133 118.046 14.48C118.179 14.24 118.369 14.0667 118.616 13.96C118.862 13.8533 119.156 13.8 119.496 13.8H120.096V14.82H119.676C119.456 14.82 119.296 14.8667 119.196 14.96C119.102 15.0467 119.056 15.2 119.056 15.42V21H117.856ZM117.136 16.97V15.96H120.196V16.97H117.136Z" fill="#101828"/>
<path d="M51.21 38V31H53.73C54.29 31 54.7533 31.0967 55.12 31.29C55.4867 31.4767 55.76 31.73 55.94 32.05C56.12 32.37 56.21 32.7367 56.21 33.15C56.21 33.5367 56.1233 33.8933 55.95 34.22C55.7767 34.54 55.5067 34.8 55.14 35C54.7733 35.1933 54.3033 35.29 53.73 35.29H52.41V38H51.21ZM52.41 34.31H53.66C54.1333 34.31 54.4733 34.2067 54.68 34C54.8867 33.7867 54.99 33.5033 54.99 33.15C54.99 32.7833 54.8867 32.4967 54.68 32.29C54.4733 32.0833 54.1333 31.98 53.66 31.98H52.41V34.31ZM57.2452 38V31H59.5052C60.3185 31 60.9885 31.1433 61.5152 31.43C62.0485 31.7167 62.4418 32.1233 62.6952 32.65C62.9552 33.17 63.0852 33.79 63.0852 34.51C63.0852 35.2167 62.9552 35.8333 62.6952 36.36C62.4418 36.88 62.0485 37.2833 61.5152 37.57C60.9885 37.8567 60.3185 38 59.5052 38H57.2452ZM58.4452 36.98H59.4452C60.0518 36.98 60.5285 36.8833 60.8752 36.69C61.2285 36.49 61.4785 36.2067 61.6252 35.84C61.7785 35.4667 61.8552 35.0233 61.8552 34.51C61.8552 33.99 61.7785 33.5467 61.6252 33.18C61.4785 32.8067 61.2285 32.52 60.8752 32.32C60.5285 32.1133 60.0518 32.01 59.4452 32.01H58.4452V36.98ZM64.2569 38V31H68.7269V31.97H65.4569V34.02H68.1269V34.97H65.4569V38H64.2569ZM72.2363 35.55V34.55H76.3763V35.55H72.2363ZM80.292 38V31H82.552C83.3654 31 84.0354 31.1433 84.562 31.43C85.0954 31.7167 85.4887 32.1233 85.742 32.65C86.002 33.17 86.132 33.79 86.132 34.51C86.132 35.2167 86.002 35.8333 85.742 36.36C85.4887 36.88 85.0954 37.2833 84.562 37.57C84.0354 37.8567 83.3654 38 82.552 38H80.292ZM81.492 36.98H82.492C83.0987 36.98 83.5754 36.8833 83.922 36.69C84.2754 36.49 84.5254 36.2067 84.672 35.84C84.8254 35.4667 84.902 35.0233 84.902 34.51C84.902 33.99 84.8254 33.5467 84.672 33.18C84.5254 32.8067 84.2754 32.52 83.922 32.32C83.5754 32.1133 83.0987 32.01 82.492 32.01H81.492V36.98ZM89.6138 38.12C89.1338 38.12 88.7004 38.01 88.3138 37.79C87.9338 37.5633 87.6338 37.2533 87.4138 36.86C87.2004 36.46 87.0938 36.0033 87.0938 35.49C87.0938 34.9633 87.2038 34.5033 87.4238 34.11C87.6438 33.71 87.9438 33.4 88.3238 33.18C88.7104 32.9533 89.1438 32.84 89.6238 32.84C90.1038 32.84 90.5338 32.9533 90.9138 33.18C91.3004 33.4 91.6004 33.7067 91.8138 34.1C92.0338 34.4933 92.1438 34.9533 92.1438 35.48C92.1438 36.0067 92.0338 36.4667 91.8138 36.86C91.5938 37.2533 91.2904 37.5633 90.9038 37.79C90.5238 38.01 90.0938 38.12 89.6138 38.12ZM89.6138 37.09C89.8538 37.09 90.0704 37.03 90.2638 36.91C90.4638 36.79 90.6238 36.61 90.7438 36.37C90.8638 36.13 90.9238 35.8333 90.9238 35.48C90.9238 35.1267 90.8638 34.8333 90.7438 34.6C90.6304 34.36 90.4738 34.18 90.2738 34.06C90.0804 33.94 89.8638 33.88 89.6238 33.88C89.3904 33.88 89.1738 33.94 88.9738 34.06C88.7738 34.18 88.6138 34.36 88.4938 34.6C88.3738 34.8333 88.3138 35.1267 88.3138 35.48C88.3138 35.8333 88.3738 36.13 88.4938 36.37C88.6138 36.61 88.7704 36.79 88.9638 36.91C89.1638 37.03 89.3804 37.09 89.6138 37.09ZM94.1427 38L92.6627 32.96H93.8527L94.8827 37.1L94.6627 37.09L95.8127 32.96H97.1527L98.3127 37.09H98.0927L99.1227 32.96H100.313L98.8327 38H97.5927L96.3627 33.73H96.6127L95.3827 38H94.1427ZM101.17 38V32.96H102.23L102.32 33.8C102.473 33.5067 102.693 33.2733 102.98 33.1C103.267 32.9267 103.607 32.84 104 32.84C104.407 32.84 104.753 32.9267 105.04 33.1C105.327 33.2667 105.547 33.5133 105.7 33.84C105.86 34.1667 105.94 34.5733 105.94 35.06V38H104.74V35.17C104.74 34.75 104.647 34.4267 104.46 34.2C104.273 33.9733 103.997 33.86 103.63 33.86C103.39 33.86 103.173 33.9167 102.98 34.03C102.793 34.1433 102.643 34.31 102.53 34.53C102.423 34.7433 102.37 35.0033 102.37 35.31V38H101.17ZM107.205 38V30.8H108.405V38H107.205ZM112.094 38.12C111.614 38.12 111.181 38.01 110.794 37.79C110.414 37.5633 110.114 37.2533 109.894 36.86C109.681 36.46 109.574 36.0033 109.574 35.49C109.574 34.9633 109.684 34.5033 109.904 34.11C110.124 33.71 110.424 33.4 110.804 33.18C111.191 32.9533 111.624 32.84 112.104 32.84C112.584 32.84 113.014 32.9533 113.394 33.18C113.781 33.4 114.081 33.7067 114.294 34.1C114.514 34.4933 114.624 34.9533 114.624 35.48C114.624 36.0067 114.514 36.4667 114.294 36.86C114.074 37.2533 113.771 37.5633 113.384 37.79C113.004 38.01 112.574 38.12 112.094 38.12ZM112.094 37.09C112.334 37.09 112.551 37.03 112.744 36.91C112.944 36.79 113.104 36.61 113.224 36.37C113.344 36.13 113.404 35.8333 113.404 35.48C113.404 35.1267 113.344 34.8333 113.224 34.6C113.111 34.36 112.954 34.18 112.754 34.06C112.561 33.94 112.344 33.88 112.104 33.88C111.871 33.88 111.654 33.94 111.454 34.06C111.254 34.18 111.094 34.36 110.974 34.6C110.854 34.8333 110.794 35.1267 110.794 35.48C110.794 35.8333 110.854 36.13 110.974 36.37C111.094 36.61 111.251 36.79 111.444 36.91C111.644 37.03 111.861 37.09 112.094 37.09ZM117.479 38.12C117.066 38.12 116.722 38.05 116.449 37.91C116.176 37.77 115.972 37.5833 115.839 37.35C115.706 37.1167 115.639 36.8633 115.639 36.59C115.639 36.27 115.719 35.9933 115.879 35.76C116.046 35.5267 116.289 35.3467 116.609 35.22C116.929 35.0867 117.322 35.02 117.789 35.02H119.059C119.059 34.7533 119.022 34.5333 118.949 34.36C118.876 34.18 118.762 34.0467 118.609 33.96C118.456 33.8733 118.259 33.83 118.019 33.83C117.746 33.83 117.512 33.8933 117.319 34.02C117.126 34.14 117.006 34.3267 116.959 34.58H115.779C115.819 34.22 115.939 33.9133 116.139 33.66C116.339 33.4 116.602 33.2 116.929 33.06C117.262 32.9133 117.626 32.84 118.019 32.84C118.492 32.84 118.896 32.9233 119.229 33.09C119.562 33.25 119.816 33.4833 119.989 33.79C120.169 34.09 120.259 34.4533 120.259 34.88V38H119.239L119.119 37.19C119.052 37.3233 118.966 37.4467 118.859 37.56C118.759 37.6733 118.642 37.7733 118.509 37.86C118.376 37.94 118.222 38.0033 118.049 38.05C117.882 38.0967 117.692 38.12 117.479 38.12ZM117.749 37.17C117.942 37.17 118.112 37.1367 118.259 37.07C118.412 36.9967 118.542 36.8967 118.649 36.77C118.762 36.6367 118.849 36.49 118.909 36.33C118.969 36.17 119.009 36 119.029 35.82V35.8H117.919C117.686 35.8 117.492 35.83 117.339 35.89C117.186 35.9433 117.076 36.0233 117.009 36.13C116.942 36.2367 116.909 36.36 116.909 36.5C116.909 36.64 116.942 36.76 117.009 36.86C117.076 36.96 117.172 37.0367 117.299 37.09C117.426 37.1433 117.576 37.17 117.749 37.17ZM123.781 38.12C123.314 38.12 122.898 38.0067 122.531 37.78C122.164 37.5533 121.878 37.24 121.671 36.84C121.471 36.44 121.371 35.9867 121.371 35.48C121.371 34.9733 121.474 34.5233 121.681 34.13C121.888 33.73 122.174 33.4167 122.541 33.19C122.914 32.9567 123.334 32.84 123.801 32.84C124.181 32.84 124.511 32.9133 124.791 33.06C125.078 33.2 125.304 33.4 125.471 33.66V30.8H126.671V38H125.591L125.471 37.27C125.364 37.4167 125.234 37.5567 125.081 37.69C124.928 37.8167 124.744 37.92 124.531 38C124.318 38.08 124.068 38.12 123.781 38.12ZM124.031 37.08C124.318 37.08 124.571 37.0133 124.791 36.88C125.011 36.74 125.181 36.55 125.301 36.31C125.421 36.07 125.481 35.7933 125.481 35.48C125.481 35.1667 125.421 34.89 125.301 34.65C125.181 34.41 125.011 34.2233 124.791 34.09C124.571 33.9567 124.318 33.89 124.031 33.89C123.758 33.89 123.511 33.9567 123.291 34.09C123.071 34.2233 122.898 34.41 122.771 34.65C122.651 34.89 122.591 35.1667 122.591 35.48C122.591 35.7933 122.651 36.07 122.771 36.31C122.898 36.55 123.071 36.74 123.291 36.88C123.511 37.0133 123.758 37.08 124.031 37.08Z" fill="#757678"/>
</svg>
