<svg width="25" height="24" viewBox="0 0 25 24" fill="none" xmlns="http://www.w3.org/2000/svg">
<path d="M17.5533 16.0401L17.5545 16.0412C18.5297 16.9214 18.8486 18.2714 18.3735 19.4988C17.8983 20.7163 16.7535 21.5 15.4395 21.5H9.54949C8.24467 21.5 7.09042 20.7156 6.61553 19.4989C6.14036 18.2714 6.45929 16.9215 7.43452 16.0412L7.43569 16.0401L11.3327 12.5H13.6563L17.5533 16.0401ZM10.6795 18.64H14.3195C14.9656 18.64 15.4995 18.1061 15.4995 17.46C15.4995 16.8187 14.9804 16.28 14.3195 16.28H10.6795C10.0333 16.28 9.49949 16.8139 9.49949 17.46C9.49949 18.1013 10.0186 18.64 10.6795 18.64Z" fill="#5B52B6" stroke="#5B52B6"/>
<path d="M7.44685 7.9599L7.44568 7.95884C6.47082 7.07888 6.1509 5.72839 6.61724 4.49972C7.09248 3.28375 8.24634 2.5 9.55065 2.5H15.4506C16.755 2.5 17.9088 3.28376 18.3841 4.49976C18.8505 5.72878 18.5304 7.08023 17.564 7.96033L13.6675 11.5H11.3438L7.44685 7.9599ZM10.6806 7.73H14.3206C14.9668 7.73 15.5006 7.19614 15.5006 6.55C15.5006 5.90866 14.9816 5.37 14.3206 5.37H10.6806C10.0345 5.37 9.50065 5.90386 9.50065 6.55C9.50065 7.19134 10.0197 7.73 10.6806 7.73Z" fill="#5B52B6" stroke="#5B52B6"/>
</svg>
