<svg width="65" height="33" viewBox="0 0 65 33" fill="none" xmlns="http://www.w3.org/2000/svg">
<path d="M4.09345 26.9177C3.39171 26.9177 2.78744 26.752 2.28063 26.4206C1.77383 26.0892 1.38397 25.6328 1.11108 25.0512C0.838182 24.4697 0.701734 23.8053 0.701734 23.0581C0.701734 22.2979 0.841431 21.627 1.12082 21.0455C1.40347 20.4607 1.79657 20.0043 2.30013 19.6762C2.80694 19.3448 3.39821 19.1791 4.07395 19.1791C4.60025 19.1791 5.07457 19.2766 5.49691 19.4715C5.91925 19.6664 6.26525 19.9393 6.5349 20.2902C6.80454 20.641 6.97185 21.0504 7.03683 21.5182H5.88677C5.79905 21.1771 5.60412 20.875 5.30199 20.6118C5.0031 20.3454 4.60025 20.2122 4.09345 20.2122C3.64512 20.2122 3.25202 20.3292 2.91414 20.5631C2.57952 20.7937 2.318 21.1202 2.12957 21.5426C1.94439 21.9617 1.8518 22.4539 1.8518 23.0191C1.8518 23.5974 1.94276 24.101 2.12469 24.5298C2.30987 24.9587 2.56978 25.2917 2.9044 25.5288C3.24227 25.766 3.63862 25.8846 4.09345 25.8846C4.39233 25.8846 4.66361 25.8326 4.90726 25.7286C5.15092 25.6247 5.35722 25.4752 5.52615 25.2803C5.69509 25.0854 5.81529 24.8514 5.88677 24.5785H7.03683C6.97185 25.0204 6.81104 25.4184 6.55439 25.7725C6.30098 26.1233 5.96474 26.4027 5.54565 26.6107C5.1298 26.8153 4.64574 26.9177 4.09345 26.9177ZM11.7589 26.9177C11.0832 26.9177 10.4903 26.7568 9.98021 26.4352C9.47341 26.1136 9.07706 25.6636 8.79116 25.0854C8.50852 24.5071 8.3672 23.8313 8.3672 23.0581C8.3672 22.2784 8.50852 21.5978 8.79116 21.0163C9.07706 20.4347 9.47341 19.9832 9.98021 19.6615C10.4903 19.3399 11.0832 19.1791 11.7589 19.1791C12.4347 19.1791 13.0259 19.3399 13.5327 19.6615C14.0428 19.9832 14.4391 20.4347 14.7218 21.0163C15.0077 21.5978 15.1506 22.2784 15.1506 23.0581C15.1506 23.8313 15.0077 24.5071 14.7218 25.0854C14.4391 25.6636 14.0428 26.1136 13.5327 26.4352C13.0259 26.7568 12.4347 26.9177 11.7589 26.9177ZM11.7589 25.8846C12.2722 25.8846 12.6946 25.753 13.0259 25.4898C13.3573 25.2267 13.6026 24.8807 13.7618 24.4518C13.921 24.023 14.0006 23.5584 14.0006 23.0581C14.0006 22.5578 13.921 22.0916 13.7618 21.6595C13.6026 21.2274 13.3573 20.8782 13.0259 20.6118C12.6946 20.3454 12.2722 20.2122 11.7589 20.2122C11.2456 20.2122 10.8233 20.3454 10.4919 20.6118C10.1605 20.8782 9.91524 21.2274 9.75605 21.6595C9.59686 22.0916 9.51726 22.5578 9.51726 23.0581C9.51726 23.5584 9.59686 24.023 9.75605 24.4518C9.91524 24.8807 10.1605 25.2267 10.4919 25.4898C10.8233 25.753 11.2456 25.8846 11.7589 25.8846ZM18.0562 22.2589V26.7617H16.9062V19.2766H18.0173V20.4461H18.1147C18.2902 20.066 18.5566 19.7606 18.9139 19.53C19.2713 19.2961 19.7326 19.1791 20.2979 19.1791C20.8047 19.1791 21.2482 19.2831 21.6283 19.491C22.0084 19.6956 22.304 20.0075 22.5152 20.4266C22.7263 20.8425 22.8319 21.3688 22.8319 22.0055V26.7617H21.6819V22.0835C21.6819 21.4955 21.5292 21.0374 21.2238 20.7093C20.9184 20.3779 20.4993 20.2122 19.9665 20.2122C19.5994 20.2122 19.2713 20.2918 18.9821 20.451C18.6963 20.6102 18.4705 20.8425 18.3048 21.1478C18.1391 21.4532 18.0562 21.8236 18.0562 22.2589ZM30.2355 20.9529L29.2024 21.2453C29.1374 21.0731 29.0415 20.9058 28.9148 20.7434C28.7914 20.5777 28.6225 20.4412 28.408 20.334C28.1936 20.2268 27.9191 20.1732 27.5845 20.1732C27.1264 20.1732 26.7447 20.2788 26.4393 20.49C26.1371 20.6979 25.9861 20.9627 25.9861 21.2843C25.9861 21.5702 26.09 21.796 26.298 21.9617C26.5059 22.1274 26.8308 22.2654 27.2726 22.3759L28.3837 22.6488C29.0529 22.8112 29.5516 23.0597 29.8797 23.3944C30.2079 23.7257 30.3719 24.153 30.3719 24.676C30.3719 25.1048 30.2485 25.4882 30.0016 25.8261C29.7579 26.1639 29.4168 26.4303 28.9782 26.6253C28.5396 26.8202 28.0296 26.9177 27.448 26.9177C26.6846 26.9177 26.0527 26.752 25.5524 26.4206C25.0521 26.0892 24.7353 25.6052 24.6021 24.9684L25.6937 24.6955C25.7976 25.0983 25.9942 25.4005 26.2833 25.6019C26.5757 25.8033 26.9575 25.904 27.4285 25.904C27.9646 25.904 28.3902 25.7903 28.7053 25.5629C29.0237 25.3323 29.1829 25.0561 29.1829 24.7345C29.1829 24.4746 29.0919 24.2569 28.91 24.0815C28.728 23.9028 28.4486 23.7696 28.0718 23.6819L26.8243 23.3895C26.1388 23.2271 25.6352 22.9753 25.3136 22.6342C24.9952 22.2898 24.836 21.8593 24.836 21.3428C24.836 20.9204 24.9546 20.5468 25.1918 20.2219C25.4322 19.8971 25.7587 19.642 26.1713 19.4569C26.5871 19.2717 27.0582 19.1791 27.5845 19.1791C28.3252 19.1791 28.9067 19.3415 29.3291 19.6664C29.7546 19.9913 30.0568 20.4201 30.2355 20.9529ZM36.8203 23.7014V19.2766H37.9704V26.7617H36.8203V25.4947H36.7423C36.5669 25.8748 36.294 26.1981 35.9237 26.4645C35.5533 26.7276 35.0855 26.8592 34.5202 26.8592C34.0524 26.8592 33.6365 26.7568 33.2727 26.5522C32.9088 26.3443 32.6229 26.0324 32.415 25.6165C32.2071 25.1974 32.1031 24.6695 32.1031 24.0328V19.2766H33.2532V23.9548C33.2532 24.5006 33.4059 24.9359 33.7112 25.2608C34.0199 25.5857 34.413 25.7481 34.8905 25.7481C35.1764 25.7481 35.4672 25.675 35.7628 25.5288C36.0617 25.3826 36.3119 25.1585 36.5133 24.8563C36.718 24.5542 36.8203 24.1692 36.8203 23.7014ZM41.2269 16.7815V26.7617H40.0768V16.7815H41.2269ZM46.5885 19.2766V20.2512H42.7095V19.2766H46.5885ZM43.8401 17.4832H44.9901V24.6175C44.9901 24.9424 45.0373 25.1861 45.1315 25.3485C45.2289 25.5077 45.3524 25.6149 45.5018 25.6701C45.6545 25.7221 45.8153 25.7481 45.9843 25.7481C46.111 25.7481 46.2149 25.7416 46.2962 25.7286C46.3774 25.7124 46.4423 25.6994 46.4911 25.6896L46.725 26.7227C46.647 26.752 46.5382 26.7812 46.3985 26.8105C46.2588 26.8429 46.0817 26.8592 45.8673 26.8592C45.5424 26.8592 45.2241 26.7893 44.9122 26.6496C44.6035 26.5099 44.3469 26.2971 44.1422 26.0113C43.9408 25.7254 43.8401 25.3647 43.8401 24.9294V17.4832ZM48.3185 26.7617V19.2766H49.4686V26.7617H48.3185ZM48.9033 18.029C48.6791 18.029 48.4858 17.9527 48.3234 17.8C48.1642 17.6473 48.0846 17.4637 48.0846 17.2493C48.0846 17.0349 48.1642 16.8514 48.3234 16.6987C48.4858 16.546 48.6791 16.4696 48.9033 16.4696C49.1275 16.4696 49.3191 16.546 49.4783 16.6987C49.6408 16.8514 49.722 17.0349 49.722 17.2493C49.722 17.4637 49.6408 17.6473 49.4783 17.8C49.3191 17.9527 49.1275 18.029 48.9033 18.029ZM53.7777 26.9372C53.3033 26.9372 52.8729 26.8478 52.4863 26.6691C52.0997 26.4872 51.7927 26.2257 51.5652 25.8846C51.3378 25.5402 51.2241 25.1243 51.2241 24.637C51.2241 24.2082 51.3086 23.8606 51.4775 23.5942C51.6465 23.3245 51.8723 23.1134 52.1549 22.9607C52.4375 22.808 52.7494 22.6943 53.0905 22.6195C53.4349 22.5416 53.7809 22.4798 54.1285 22.4344C54.5834 22.3759 54.9521 22.332 55.2347 22.3028C55.5206 22.2703 55.7285 22.2167 55.8585 22.142C55.9917 22.0672 56.0583 21.9373 56.0583 21.7521V21.7131C56.0583 21.2323 55.9267 20.8587 55.6636 20.5923C55.4037 20.3259 55.0089 20.1927 54.4794 20.1927C53.9303 20.1927 53.4999 20.3129 53.188 20.5533C52.8761 20.7937 52.6568 21.0504 52.5301 21.3233L51.4385 20.9334C51.6335 20.4786 51.8934 20.1245 52.2182 19.8711C52.5464 19.6144 52.9037 19.4357 53.2903 19.335C53.6802 19.2311 54.0635 19.1791 54.4404 19.1791C54.6808 19.1791 54.957 19.2083 55.2688 19.2668C55.584 19.322 55.8877 19.4374 56.1801 19.6128C56.4758 19.7882 56.721 20.053 56.916 20.4071C57.1109 20.7612 57.2084 21.2356 57.2084 21.8301V26.7617H56.0583V25.7481H55.9998C55.9218 25.9105 55.7919 26.0844 55.61 26.2695C55.428 26.4547 55.186 26.6123 54.8839 26.7422C54.5817 26.8722 54.213 26.9372 53.7777 26.9372ZM53.9531 25.904C54.4079 25.904 54.7913 25.8147 55.1032 25.636C55.4183 25.4573 55.6554 25.2267 55.8146 24.944C55.9771 24.6614 56.0583 24.3641 56.0583 24.0522V22.9996C56.0096 23.0581 55.9024 23.1117 55.7367 23.1605C55.5742 23.2059 55.3858 23.2466 55.1714 23.2823C54.9602 23.3148 54.7539 23.344 54.5525 23.37C54.3543 23.3927 54.1935 23.4122 54.07 23.4285C53.7712 23.4675 53.4918 23.5308 53.2319 23.6185C52.9752 23.703 52.7673 23.8313 52.6081 24.0035C52.4522 24.1725 52.3742 24.4031 52.3742 24.6955C52.3742 25.0951 52.522 25.3972 52.8176 25.6019C53.1165 25.8033 53.495 25.904 53.9531 25.904Z" fill="#3A3285"/>
<path d="M39.647 16.4812C39.247 4.05132 21.4525 1.46236 18.0151 13.7868L17.6534 16.4812H7.81055C8.05728 -0.119514 30.5779 -6.50569 39.1344 8.31794C40.5692 10.8027 41.3202 13.6204 41.4005 16.4812H39.647Z" fill="#3A3285"/>
<path d="M38.5819 16.4798C38.4226 10.0421 28.8684 9.91639 28.7067 16.4798H23.3613C23.45 7.28432 37.1949 6.05331 38.5052 15.4871L38.5783 16.4798H38.5807H38.5819Z" fill="#3A3285"/>
</svg>
