<svg width="24" height="24" viewBox="0 0 24 24" fill="none" xmlns="http://www.w3.org/2000/svg">
<path d="M9.57293 8.39099L9.5729 8.39096L9.57031 8.39338V2.5H14.4303V8.4C14.4303 8.40016 14.4303 8.40031 14.4303 8.40046C14.4294 8.4008 14.4286 8.401 14.428 8.40112C14.4276 8.40083 14.4272 8.40048 14.4267 8.40006L12.6811 6.7941C12.2993 6.43551 11.7022 6.4353 11.3202 6.79347L9.57293 8.39099Z" fill="#7B91B0" stroke="#7B91B0"/>
<path d="M16.9303 2.55972C16.9308 2.5588 16.9313 2.55781 16.932 2.55681C18.217 2.7203 19.0861 3.22576 19.6433 3.95201C20.2103 4.69112 20.5 5.71868 20.5 6.99891V16.9989C20.5 18.4223 20.1441 19.532 19.4461 20.2837C18.7543 21.0287 17.6547 21.4989 16 21.4989H8C6.3453 21.4989 5.24565 21.0287 4.5539 20.2837C3.85591 19.532 3.5 18.4223 3.5 16.9989V6.99891C3.5 5.71868 3.78965 4.69112 4.3567 3.95201C4.91388 3.22576 5.783 2.7203 7.06804 2.55681C7.06869 2.55781 7.06924 2.5588 7.06966 2.55972C7.06981 2.56005 7.06992 2.56031 7.07 2.56052V8.57891C7.07 9.538 7.63779 10.4065 8.51754 10.7961L8.51863 10.7966C8.83586 10.9361 9.1649 10.9989 9.49 10.9989C10.0781 10.9989 10.6723 10.7865 11.1307 10.3549L11.9955 9.55969C11.9974 9.558 11.9991 9.5568 12.0005 9.55595L12.0016 9.55696L12.8698 10.3553C12.8701 10.3557 12.8705 10.356 12.8709 10.3563C13.5796 11.0136 14.6005 11.1741 15.477 10.7985L15.477 10.7985L15.4825 10.7961C16.3622 10.4065 16.93 9.538 16.93 8.57891V2.56052C16.9301 2.56031 16.9302 2.56004 16.9303 2.55972ZM9 19.2489H17.5C18.1861 19.2489 18.75 18.6851 18.75 17.9989C18.75 17.3128 18.1861 16.7489 17.5 16.7489H9C8.31386 16.7489 7.75 17.3128 7.75 17.9989C7.75 18.6851 8.31386 19.2489 9 19.2489ZM13.25 15.2489H17.5C18.1861 15.2489 18.75 14.6851 18.75 13.9989C18.75 13.3128 18.1861 12.7489 17.5 12.7489H13.25C12.5639 12.7489 12 13.3128 12 13.9989C12 14.6851 12.5639 15.2489 13.25 15.2489Z" fill="#7B91B0" stroke="#7B91B0"/>
</svg>
