<svg width="24" height="24" viewBox="0 0 24 24" fill="none" xmlns="http://www.w3.org/2000/svg">
<path d="M8.63023 10.82C7.94409 10.82 7.38023 11.3839 7.38023 12.07C7.38023 12.7472 7.92668 13.3232 8.63544 13.31H13.6002V21.14C13.6002 21.3401 13.4379 21.5 13.2402 21.5C10.4146 21.5 8.04606 20.5162 6.38504 18.8552C4.72402 17.1942 3.74023 14.8256 3.74023 12C3.74023 9.17437 4.72402 6.80582 6.38504 5.1448C8.04606 3.48378 10.4146 2.5 13.2402 2.5C13.4409 2.5 13.6037 2.6544 13.6102 2.8662V10.82H8.63023Z" fill="#FFFFFF" stroke="#FFFFFF"/>
<path d="M20.1854 11.8931L20.1861 11.8937C20.2833 11.9909 20.2742 12.1346 20.1885 12.2146L20.1818 12.2208L20.1754 12.2272L17.3361 15.0766C17.336 15.0767 17.3359 15.0768 17.3358 15.0769C17.2846 15.128 17.224 15.1502 17.1596 15.1502C17.0951 15.1502 17.0345 15.1279 16.9832 15.0766C16.8884 14.9819 16.8884 14.8184 16.9832 14.7237L18.5432 13.1637L19.3967 12.3102H18.1896H14.5996V11.8102H18.1996H19.4067L18.5532 10.9566L16.9932 9.3966C16.8984 9.30187 16.8984 9.13845 16.9932 9.04371C17.0878 8.94905 17.2511 8.94897 17.3458 9.04348C17.3459 9.04356 17.346 9.04363 17.3461 9.04371L20.1854 11.8931Z" fill="#FFFFFF" stroke="#FFFFFF"/>
</svg>
