<svg width="24" height="25" viewBox="0 0 24 25" fill="none" xmlns="http://www.w3.org/2000/svg">
<path d="M5 10.668C3.9 10.668 3 11.568 3 12.668C3 13.768 3.9 14.668 5 14.668C6.1 14.668 7 13.768 7 12.668C7 11.568 6.1 10.668 5 10.668Z" fill="#5B52B6" stroke="#5B52B6" stroke-width="1.5"/>
<path d="M19 10.668C17.9 10.668 17 11.568 17 12.668C17 13.768 17.9 14.668 19 14.668C20.1 14.668 21 13.768 21 12.668C21 11.568 20.1 10.668 19 10.668Z" fill="#5B52B6" stroke="#5B52B6" stroke-width="1.5"/>
<path d="M12 10.668C10.9 10.668 10 11.568 10 12.668C10 13.768 10.9 14.668 12 14.668C13.1 14.668 14 13.768 14 12.668C14 11.568 13.1 10.668 12 10.668Z" stroke="#5B52B6" stroke-width="1.5"/>
</svg>
