<svg width="31" height="32" viewBox="0 0 31 32" fill="none" xmlns="http://www.w3.org/2000/svg">
<rect x="0.5" y="1" width="30" height="30" rx="15" stroke="#F0F0F9"/>
<path d="M9.40777 16.9284L9.4078 16.9284L9.41073 16.9234C9.5609 16.6668 9.69 16.3214 9.78129 15.9897C9.87247 15.6585 9.93923 15.293 9.93923 14.9908V13.1308C9.93923 9.77841 12.664 7.0604 16.0199 7.05078C19.363 7.05115 22.0892 9.77666 22.0892 13.1308V15.0008C22.0892 15.3032 22.156 15.6691 22.2489 16.0016C22.3416 16.3333 22.4739 16.6807 22.6315 16.9397C22.6317 16.9401 22.632 16.9406 22.6323 16.9411L23.7594 18.8162C23.7596 18.8165 23.7598 18.8168 23.76 18.8172C24.0936 19.3792 24.1565 20.0403 23.9313 20.6446C23.7037 21.2454 23.2261 21.7151 22.6001 21.9268C21.5439 22.2788 20.4606 22.5518 19.3699 22.7271L19.3699 22.727L19.3598 22.7288C19.2459 22.7496 19.158 22.7652 19.074 22.7728L19.0554 22.7745L19.037 22.7776C18.8727 22.805 18.7062 22.8236 18.524 22.8438L18.524 22.8437L18.5117 22.8454C18.3059 22.8734 18.0883 22.8925 17.8559 22.9127L17.8559 22.9126L17.8511 22.9131C17.2474 22.9715 16.6335 23.0008 16.0192 23.0008C15.3948 23.0008 14.7706 22.9715 14.1566 22.913L14.1566 22.9129L14.1462 22.9121C13.8896 22.8931 13.6426 22.8647 13.3953 22.8266L13.3953 22.8265L13.3853 22.8252C13.238 22.8055 13.0935 22.7863 12.9587 22.7671C12.8962 22.756 12.8357 22.7477 12.7859 22.7409L12.7818 22.7404C12.725 22.7326 12.681 22.7265 12.6387 22.7188L12.6387 22.7188L12.6336 22.7179C11.5448 22.5316 10.4799 22.2773 9.42734 21.9264L9.42377 21.9253C8.76106 21.7099 8.27219 21.2359 8.05818 20.6573L8.05739 20.6552C7.84779 20.0963 7.91557 19.4244 8.27897 18.8064L9.40777 16.9284ZM15.9892 15.7608C16.6854 15.7608 17.2492 15.1969 17.2492 14.5008V11.4008C17.2492 10.7046 16.6854 10.1408 15.9892 10.1408C15.2931 10.1408 14.7292 10.7046 14.7292 11.4008V14.5008C14.7292 15.1969 15.2931 15.7608 15.9892 15.7608Z" fill="#5B52B6" stroke="#5B52B6"/>
<path d="M18.8297 24.51C18.4097 25.67 17.2997 26.5 15.9997 26.5C15.2097 26.5 14.4297 26.18 13.8797 25.61C13.5597 25.31 13.3197 24.91 13.1797 24.5C13.3097 24.52 13.4397 24.53 13.5797 24.55C13.8097 24.58 14.0497 24.61 14.2897 24.63C14.8597 24.68 15.4397 24.71 16.0197 24.71C16.5897 24.71 17.1597 24.68 17.7197 24.63C17.9297 24.61 18.1397 24.6 18.3397 24.57C18.4997 24.55 18.6597 24.53 18.8297 24.51Z" fill="#5B52B6"/>
</svg>
