<svg width="25" height="24" viewBox="0 0 25 24" fill="none" xmlns="http://www.w3.org/2000/svg">
<path d="M18.2988 15.8522L18.3 15.8506C20.0037 13.5827 20.0037 10.4179 18.3 8.14997L18.3 8.14996L18.2988 8.14834C18.2194 8.04345 18.2373 7.88588 18.3522 7.79882C18.4568 7.71957 18.6138 7.73719 18.701 7.85129C20.527 10.2935 20.5267 13.7086 18.7001 16.1505C18.6489 16.2187 18.5802 16.2503 18.5003 16.2503C18.4541 16.2503 18.4062 16.2385 18.3471 16.1978C18.2368 16.1099 18.2206 15.9555 18.2988 15.8522Z" fill="#5B52B6" stroke="#5B52B6"/>
<path d="M20.1289 18.3522L20.1304 18.3503C22.9337 14.6125 22.9337 9.38805 20.1304 5.65027L20.1304 5.65027L20.1289 5.64834C20.0494 5.54345 20.0674 5.38588 20.1823 5.29882C20.287 5.21951 20.4441 5.23721 20.5313 5.35154C23.467 9.26362 23.4667 14.7383 20.5305 18.6501L20.5255 18.6567L20.5207 18.6635C20.4872 18.7114 20.4211 18.7503 20.3304 18.7503C20.2842 18.7503 20.2362 18.7385 20.1772 18.6978C20.0668 18.6099 20.0506 18.4555 20.1289 18.3522Z" fill="#5B52B6" stroke="#5B52B6"/>
<path d="M7.84725 6.49042L7.8473 6.4905L7.85552 6.48535L10.7745 4.656C10.7747 4.65589 10.7748 4.65578 10.775 4.65566C12.1407 3.80463 13.3696 3.71687 14.277 4.21863C15.1751 4.72076 15.75 5.80285 15.75 7.41168V16.5917C15.75 18.2008 15.1749 19.283 14.2764 19.785C13.9067 19.9903 13.4916 20.0917 13.05 20.0917C12.364 20.0917 11.5947 19.86 10.775 19.3477L7.85552 17.518L7.85557 17.5179L7.84725 17.5129C7.57806 17.3514 7.26007 17.2517 6.93 17.2517H6H5.5C4.37908 17.2517 3.58544 16.945 3.07105 16.4306C2.55667 15.9162 2.25 15.1226 2.25 14.0017V10.0017C2.25 8.88075 2.55667 8.08711 3.07105 7.57273C3.58544 7.05835 4.37908 6.75168 5.5 6.75168H6H6.93C7.26007 6.75168 7.57806 6.65193 7.84725 6.49042Z" fill="#5B52B6" stroke="#5B52B6"/>
</svg>
