<svg width="33" height="34" viewBox="0 0 33 34" fill="none" xmlns="http://www.w3.org/2000/svg">
<g clip-path="url(#clip0_5734_15066)">
<rect y="0.5" width="33" height="33" rx="16.5" fill="#F4F4F4"/>
<path d="M2.33012 22.9169C1.93067 22.9169 1.5867 22.8226 1.29821 22.6339C1.00972 22.4453 0.787801 22.1855 0.63246 21.8545C0.477119 21.5234 0.399449 21.1453 0.399449 20.7199C0.399449 20.2872 0.478968 19.9053 0.638008 19.5743C0.798897 19.2414 1.02266 18.9816 1.3093 18.7948C1.59779 18.6062 1.93437 18.5119 2.31902 18.5119C2.61861 18.5119 2.8886 18.5673 3.12901 18.6783C3.36942 18.7893 3.56637 18.9446 3.71986 19.1443C3.87336 19.344 3.96859 19.5771 4.00558 19.8434H3.35093C3.301 19.6492 3.19004 19.4772 3.01806 19.3274C2.84792 19.1758 2.61861 19.0999 2.33012 19.0999C2.07491 19.0999 1.85115 19.1665 1.65882 19.2997C1.46834 19.431 1.31947 19.6168 1.21222 19.8572C1.10681 20.0958 1.0541 20.376 1.0541 20.6977C1.0541 21.0269 1.10588 21.3135 1.20944 21.5577C1.31485 21.8018 1.4628 21.9913 1.65327 22.1263C1.8456 22.2613 2.07121 22.3288 2.33012 22.3288C2.50025 22.3288 2.65467 22.2992 2.79337 22.24C2.93206 22.1809 3.04949 22.0958 3.14566 21.9848C3.24182 21.8739 3.31024 21.7407 3.35093 21.5854H4.00558C3.96859 21.8369 3.87705 22.0634 3.73096 22.265C3.58671 22.4647 3.39531 22.6238 3.15675 22.7421C2.92004 22.8586 2.6445 22.9169 2.33012 22.9169ZM6.69354 22.9169C6.30888 22.9169 5.97139 22.8254 5.68105 22.6423C5.39255 22.4592 5.16694 22.2031 5.0042 21.8739C4.84331 21.5447 4.76287 21.1601 4.76287 20.7199C4.76287 20.2761 4.84331 19.8887 5.0042 19.5576C5.16694 19.2266 5.39255 18.9696 5.68105 18.7865C5.97139 18.6034 6.30888 18.5119 6.69354 18.5119C7.07819 18.5119 7.41476 18.6034 7.70325 18.7865C7.99359 18.9696 8.21921 19.2266 8.3801 19.5576C8.54283 19.8887 8.6242 20.2761 8.6242 20.7199C8.6242 21.1601 8.54283 21.5447 8.3801 21.8739C8.21921 22.2031 7.99359 22.4592 7.70325 22.6423C7.41476 22.8254 7.07819 22.9169 6.69354 22.9169ZM6.69354 22.3288C6.98573 22.3288 7.22613 22.2539 7.41476 22.1041C7.60339 21.9543 7.74301 21.7574 7.83363 21.5133C7.92424 21.2692 7.96955 21.0047 7.96955 20.7199C7.96955 20.4351 7.92424 20.1698 7.83363 19.9238C7.74301 19.6778 7.60339 19.479 7.41476 19.3274C7.22613 19.1758 6.98573 19.0999 6.69354 19.0999C6.40135 19.0999 6.16094 19.1758 5.97231 19.3274C5.78368 19.479 5.64406 19.6778 5.55344 19.9238C5.46283 20.1698 5.41752 20.4351 5.41752 20.7199C5.41752 21.0047 5.46283 21.2692 5.55344 21.5133C5.64406 21.7574 5.78368 21.9543 5.97231 22.1041C6.16094 22.2539 6.40135 22.3288 6.69354 22.3288ZM10.2782 20.265V22.8281H9.62352V18.5673H10.256V19.2331H10.3115C10.4113 19.0167 10.563 18.8429 10.7664 18.7116C10.9698 18.5784 11.2324 18.5119 11.5542 18.5119C11.8427 18.5119 12.0951 18.571 12.3115 18.6894C12.5278 18.8059 12.6961 18.9834 12.8163 19.222C12.9365 19.4587 12.9966 19.7583 12.9966 20.1208V22.8281H12.342V20.1651C12.342 19.8304 12.2551 19.5697 12.0812 19.3829C11.9074 19.1943 11.6688 19.0999 11.3656 19.0999C11.1566 19.0999 10.9698 19.1452 10.8052 19.2359C10.6425 19.3265 10.514 19.4587 10.4196 19.6325C10.3253 19.8064 10.2782 20.0172 10.2782 20.265ZM17.211 19.5216L16.6229 19.688C16.5859 19.59 16.5313 19.4948 16.4592 19.4023C16.3889 19.308 16.2928 19.2303 16.1707 19.1693C16.0487 19.1083 15.8924 19.0777 15.7019 19.0777C15.4412 19.0777 15.2239 19.1378 15.0501 19.2581C14.8781 19.3764 14.7921 19.5271 14.7921 19.7102C14.7921 19.8729 14.8513 20.0015 14.9696 20.0958C15.088 20.1901 15.2729 20.2687 15.5244 20.3316L16.1569 20.4869C16.5378 20.5794 16.8217 20.7208 17.0085 20.9113C17.1952 21.1 17.2886 21.3431 17.2886 21.6409C17.2886 21.885 17.2184 22.1032 17.0778 22.2955C16.9391 22.4879 16.7449 22.6395 16.4953 22.7505C16.2456 22.8614 15.9553 22.9169 15.6243 22.9169C15.1897 22.9169 14.83 22.8226 14.5452 22.6339C14.2604 22.4453 14.0801 22.1698 14.0043 21.8073L14.6256 21.652C14.6848 21.8813 14.7967 22.0533 14.9613 22.1679C15.1277 22.2826 15.345 22.3399 15.6132 22.3399C15.9183 22.3399 16.1606 22.2752 16.3399 22.1457C16.5212 22.0144 16.6118 21.8572 16.6118 21.6742C16.6118 21.5262 16.56 21.4023 16.4564 21.3025C16.3529 21.2007 16.1938 21.1249 15.9793 21.075L15.2692 20.9086C14.879 20.8161 14.5924 20.6728 14.4093 20.4786C14.228 20.2826 14.1374 20.0375 14.1374 19.7435C14.1374 19.5031 14.2049 19.2904 14.3399 19.1055C14.4768 18.9206 14.6626 18.7754 14.8975 18.67C15.1342 18.5646 15.4023 18.5119 15.7019 18.5119C16.1236 18.5119 16.4546 18.6043 16.695 18.7893C16.9373 18.9742 17.1092 19.2183 17.211 19.5216ZM20.9593 21.0861V18.5673H21.6139V22.8281H20.9593V22.1069H20.9149C20.815 22.3233 20.6597 22.5073 20.4488 22.6589C20.238 22.8087 19.9717 22.8836 19.65 22.8836C19.3837 22.8836 19.1469 22.8254 18.9398 22.7088C18.7327 22.5905 18.57 22.413 18.4516 22.1762C18.3333 21.9377 18.2741 21.6372 18.2741 21.2747V18.5673H18.9287V21.2303C18.9287 21.541 19.0156 21.7888 19.1895 21.9737C19.3652 22.1587 19.5889 22.2511 19.8608 22.2511C20.0235 22.2511 20.189 22.2095 20.3573 22.1263C20.5274 22.0431 20.6698 21.9155 20.7845 21.7435C20.901 21.5715 20.9593 21.3524 20.9593 21.0861ZM23.4676 17.1471V22.8281H22.8129V17.1471H23.4676ZM26.5196 18.5673V19.1221H24.3116V18.5673H26.5196ZM24.9551 17.5465H25.6098V21.6076C25.6098 21.7925 25.6366 21.9312 25.6902 22.0237C25.7457 22.1143 25.816 22.1753 25.901 22.2068C25.988 22.2363 26.0795 22.2511 26.1757 22.2511C26.2478 22.2511 26.307 22.2474 26.3532 22.24C26.3994 22.2308 26.4364 22.2234 26.4642 22.2179L26.5973 22.8059C26.5529 22.8226 26.491 22.8392 26.4115 22.8559C26.3319 22.8744 26.2311 22.8836 26.1091 22.8836C25.9242 22.8836 25.7429 22.8438 25.5654 22.7643C25.3897 22.6848 25.2436 22.5637 25.1271 22.4009C25.0125 22.2382 24.9551 22.0329 24.9551 21.7851V17.5465ZM27.5044 22.8281V18.5673H28.159V22.8281H27.5044ZM27.8373 17.8572C27.7097 17.8572 27.5996 17.8138 27.5072 17.7268C27.4165 17.6399 27.3712 17.5354 27.3712 17.4134C27.3712 17.2913 27.4165 17.1868 27.5072 17.0999C27.5996 17.013 27.7097 16.9695 27.8373 16.9695C27.9649 16.9695 28.074 17.013 28.1646 17.0999C28.257 17.1868 28.3033 17.2913 28.3033 17.4134C28.3033 17.5354 28.257 17.6399 28.1646 17.7268C28.074 17.8138 27.9649 17.8572 27.8373 17.8572ZM30.6119 22.928C30.3419 22.928 30.0969 22.8771 29.8768 22.7754C29.6567 22.6719 29.482 22.523 29.3525 22.3288C29.2231 22.1328 29.1584 21.8961 29.1584 21.6187C29.1584 21.3746 29.2064 21.1767 29.3026 21.0251C29.3988 20.8716 29.5273 20.7514 29.6882 20.6644C29.8491 20.5775 30.0266 20.5128 30.2208 20.4703C30.4168 20.4259 30.6137 20.3907 30.8116 20.3649C31.0705 20.3316 31.2804 20.3066 31.4413 20.29C31.604 20.2715 31.7224 20.241 31.7964 20.1984C31.8722 20.1559 31.9101 20.0819 31.9101 19.9765V19.9543C31.9101 19.6806 31.8352 19.4679 31.6854 19.3163C31.5375 19.1647 31.3128 19.0888 31.0113 19.0888C30.6988 19.0888 30.4538 19.1573 30.2763 19.2941C30.0987 19.431 29.9739 19.5771 29.9018 19.7324L29.2804 19.5105C29.3914 19.2516 29.5393 19.05 29.7242 18.9058C29.911 18.7597 30.1144 18.658 30.3345 18.6006C30.5564 18.5415 30.7746 18.5119 30.9892 18.5119C31.126 18.5119 31.2832 18.5285 31.4607 18.5618C31.6401 18.5932 31.813 18.6589 31.9795 18.7587C32.1477 18.8586 32.2874 19.0093 32.3983 19.2109C32.5093 19.4125 32.5648 19.6825 32.5648 20.0209V22.8281H31.9101V22.2511H31.8768C31.8324 22.3436 31.7585 22.4425 31.6549 22.548C31.5513 22.6534 31.4136 22.7431 31.2416 22.817C31.0696 22.891 30.8597 22.928 30.6119 22.928ZM30.7118 22.3399C30.9707 22.3399 31.1889 22.2891 31.3664 22.1873C31.5458 22.0856 31.6808 21.9543 31.7714 21.7934C31.8639 21.6326 31.9101 21.4633 31.9101 21.2858V20.6866C31.8824 20.7199 31.8213 20.7504 31.727 20.7782C31.6346 20.8041 31.5273 20.8272 31.4052 20.8475C31.285 20.866 31.1676 20.8827 31.053 20.8975C30.9402 20.9104 30.8486 20.9215 30.7783 20.9307C30.6082 20.9529 30.4492 20.989 30.3012 21.0389C30.1551 21.087 30.0368 21.1601 29.9462 21.2581C29.8574 21.3542 29.813 21.4855 29.813 21.652C29.813 21.8794 29.8971 22.0514 30.0654 22.1679C30.2356 22.2826 30.451 22.3399 30.7118 22.3399Z" fill="#3A3285"/>
<path d="M22.5696 17.3816C22.3418 10.3061 12.2127 8.83242 10.256 15.8479L10.0501 17.3816H4.44727C4.58771 7.93197 17.4072 4.29676 22.2778 12.7348C23.0945 14.1492 23.522 15.7531 23.5677 17.3816H22.5696Z" fill="#3A3285"/>
<path d="M21.9628 17.3827C21.8722 13.7181 16.4336 13.6466 16.3416 17.3827H13.2988C13.3493 12.1483 21.1733 11.4476 21.9192 16.8176L21.9608 17.3827H21.9622H21.9628Z" fill="#3A3285"/>
</g>
<defs>
<clipPath id="clip0_5734_15066">
<rect y="0.5" width="33" height="33" rx="16.5" fill="white"/>
</clipPath>
</defs>
</svg>
