<svg width="24" height="24" viewBox="0 0 24 24" fill="none" xmlns="http://www.w3.org/2000/svg">
<path d="M9.47797 3.74784L6.69074 5.36979C6.7118 4.39675 6.98985 3.70612 7.44 3.25405C7.90814 2.78393 8.63393 2.5 9.66945 2.5H14.3295C15.365 2.5 16.0908 2.78393 16.5589 3.25405C17.0078 3.70488 17.2856 4.39297 17.308 5.36182L14.52 3.74731L14.5186 3.74648C13.0249 2.88817 10.9645 2.88724 9.47893 3.74729L9.47797 3.74784Z" fill="white" stroke="white"/>
<path d="M9.93 15.6683L9.99 14.7083C10 14.5583 9.93 14.3483 9.83 14.2383L9.21 13.4983L8.82799 13.8209L9.44674 14.5594L9.45323 14.5671L9.45598 14.5702M9.93 15.6683L9.43115 15.6345L9.49091 14.6781M9.93 15.6683C9.89 16.2583 10.31 16.5683 10.86 16.3483M9.93 15.6683L10.86 16.3483M9.49091 14.6781C9.49093 14.6784 9.49094 14.6786 9.49094 14.6786C9.49095 14.6786 9.49095 14.6781 9.49099 14.6771C9.49101 14.6767 9.49103 14.6762 9.49106 14.6757L9.49097 14.6771L9.49091 14.6781ZM9.49091 14.6781C9.49084 14.6766 9.49055 14.6723 9.48941 14.6651C9.48738 14.6522 9.48351 14.6359 9.47761 14.6185C9.47169 14.601 9.46516 14.5866 9.45972 14.5766C9.45808 14.5736 9.45681 14.5715 9.45598 14.5702M9.45598 14.5702L9.46003 14.5746C9.45645 14.5707 9.45488 14.5685 9.45488 14.5685C9.45488 14.5685 9.45526 14.569 9.45598 14.5702ZM10.86 16.3483L11.75 15.9983C11.89 15.9483 12.12 15.9483 12.26 15.9983L10.86 16.3483ZM17.4512 8.33201L17.4636 8.33911L17.4764 8.3455L17.587 8.40081C18.4887 9.01122 18.8495 9.30287 19.0325 9.62201C19.2088 9.92941 19.25 10.3166 19.25 11.2883V15.8083C19.25 16.7878 19.211 17.1745 19.0398 17.4771C18.8629 17.7898 18.5123 18.0719 17.6153 18.6737L13.2698 21.1854L13.2687 21.186C12.9324 21.3816 12.4743 21.4883 12 21.4883C11.5092 21.4883 11.0672 21.389 10.7387 21.1904L10.7388 21.1903L10.7297 21.1851L6.42522 18.704C5.5146 18.088 5.15133 17.7951 4.96749 17.4746C4.79122 17.1672 4.75 16.7799 4.75 15.8083V11.2883C4.75 10.3163 4.79112 9.92804 4.96371 9.62363C5.14154 9.30998 5.49135 9.02617 6.37271 8.43094L6.52361 8.35549L6.53884 8.34788L6.55351 8.33925L7.91129 7.54056L10.7291 5.92183L10.7291 5.92184L10.7313 5.92053C11.0704 5.72342 11.5247 5.61328 12 5.61328C12.4753 5.61328 12.9296 5.72342 13.2687 5.92054L13.2698 5.92117L16.0898 7.55117L16.0912 7.55201L17.4512 8.33201ZM8.55911 12.6786C8.42501 13.0834 8.5557 13.498 8.82734 13.8201L9.43105 15.636C9.40333 16.0505 9.53501 16.4637 9.87807 16.7152C10.222 16.9675 10.6564 16.9678 11.0442 16.8131C11.0447 16.8129 11.0452 16.8127 11.0457 16.8125L11.9194 16.4689C11.9226 16.4681 11.9295 16.4666 11.9403 16.4651C11.9582 16.4625 11.9806 16.4608 12.005 16.4608C12.0294 16.4608 12.0518 16.4625 12.0697 16.4651C12.0794 16.4665 12.086 16.4678 12.0895 16.4687L12.9625 16.8218L12.9625 16.8219L12.9716 16.8254C13.3562 16.9722 13.7874 16.9716 14.13 16.7229C14.4744 16.4729 14.6067 16.0613 14.579 15.646C14.5789 15.6455 14.5789 15.645 14.5789 15.6445L14.5191 14.6881C14.5192 14.6866 14.5194 14.6823 14.5206 14.6751C14.5226 14.6622 14.5265 14.6459 14.5324 14.6285C14.5383 14.611 14.5448 14.5966 14.5503 14.5866C14.5519 14.5836 14.5532 14.5815 14.554 14.5802L14.5592 14.5744L14.5679 14.5638L15.1752 13.8171C15.4451 13.4954 15.5746 13.0821 15.4409 12.6786C15.3079 12.2771 14.9592 12.0205 14.5572 11.9147L14.5549 11.9141L13.6374 11.6774C13.6349 11.6764 13.6298 11.6741 13.622 11.6701C13.6084 11.6629 13.592 11.6528 13.5753 11.6404C13.5585 11.6279 13.5446 11.6156 13.5346 11.6053C13.5294 11.6001 13.5264 11.5965 13.5251 11.5948L13.5192 11.5858L12.9992 10.7858L12.9992 10.7858L12.9973 10.7829C12.7701 10.4386 12.4215 10.1833 11.9963 10.1833C11.5698 10.1833 11.2227 10.4399 10.9999 10.7871L10.4835 11.5816C10.4828 11.5826 10.4814 11.5845 10.4791 11.5873C10.4757 11.5915 10.471 11.5968 10.4649 11.6031C10.4526 11.6159 10.4374 11.6296 10.4207 11.6425C10.4039 11.6554 10.3889 11.665 10.3774 11.6712C10.3725 11.6738 10.3693 11.6753 10.3676 11.6761L9.44506 11.9141L9.44506 11.9141L9.44275 11.9147C9.04083 12.0205 8.69209 12.2771 8.55911 12.6786Z" fill="white" stroke="white"/>
</svg>
