<svg width="24" height="24" viewBox="0 0 24 24" fill="none" xmlns="http://www.w3.org/2000/svg">
<path d="M17.5019 4.21552L17.5017 4.21537L15.7717 3.22537L15.7643 3.22117L15.7644 3.2211C15.222 2.89844 14.5063 3.08416 14.1711 3.64472L14.0638 3.83007C14.0636 3.83036 14.0634 3.83066 14.0633 3.83096C13.56 4.70847 12.8258 5.2589 11.9888 5.2589C11.1522 5.2589 10.4157 4.70901 9.90741 3.83214L9.90729 3.83192L9.79729 3.64192L9.79553 3.63888L9.79554 3.63888C9.48218 3.08876 8.77192 2.89611 8.22565 3.2211L8.21837 3.22543L8.21834 3.22537L6.48834 4.21537L6.48807 4.21552C5.82207 4.59609 5.58942 5.45792 5.97313 6.1316C6.48124 7.00381 6.59087 7.91306 6.17295 8.63651C5.75511 9.35983 4.91145 9.7214 3.9 9.7214C3.13443 9.7214 2.5 10.3493 2.5 11.1214V12.8814C2.5 13.647 3.12785 14.2814 3.9 14.2814C4.91153 14.2814 5.75545 14.6431 6.17321 15.368C6.59079 16.0926 6.48109 17.004 5.97345 17.8806C5.58991 18.5533 5.8208 19.406 6.48807 19.7873L6.48834 19.7874L8.21834 20.7774L8.22568 20.7816L8.22565 20.7817C8.768 21.1044 9.48373 20.9186 9.8189 20.3581L9.92622 20.1727C9.92639 20.1724 9.92657 20.1721 9.92674 20.1718C10.4301 19.2943 11.1642 18.7439 12.0012 18.7439C12.8378 18.7439 13.5743 19.2938 14.0826 20.1707L14.0827 20.1709L14.1911 20.3581C14.5263 20.9186 15.242 21.1044 15.7844 20.7817L15.7916 20.7774L15.7917 20.7774L17.5217 19.7874L17.5219 19.7873C18.1902 19.4054 18.4191 18.5428 18.0371 17.8815L17.5019 4.21552ZM17.5019 4.21552C18.1696 4.59704 18.4004 5.4505 18.0159 6.12333M17.5019 4.21552L18.0159 6.12333M18.0159 6.12333C17.5131 7.00068 17.4072 7.91191 17.826 8.63559M18.0159 6.12333L17.826 8.63559M17.826 8.63559C18.245 9.35959 19.0881 9.7214 20.1 9.7214M17.826 8.63559L20.1 9.7214M20.1 9.7214C20.8705 9.7214 21.5014 10.3547 21.51 11.124L20.1 9.7214ZM8.25 12.0014C8.25 14.0675 9.93386 15.7514 12 15.7514C14.0661 15.7514 15.75 14.0675 15.75 12.0014C15.75 9.93526 14.0661 8.2514 12 8.2514C9.93386 8.2514 8.25 9.93526 8.25 12.0014Z" fill="white" stroke="white"/>
</svg>
