<svg width="24" height="24" viewBox="0 0 24 24" fill="none" xmlns="http://www.w3.org/2000/svg">
<path d="M3.83008 13.3184C3.83008 8.81458 7.49622 5.14844 12.0001 5.14844C16.5032 5.14844 20.1701 8.82383 20.1701 13.3284C20.1701 17.8323 16.5039 21.4984 12.0001 21.4984C7.49697 21.4984 3.83008 17.823 3.83008 13.3184ZM12.0001 14.2484C12.6862 14.2484 13.2501 13.6846 13.2501 12.9984V7.99844C13.2501 7.31229 12.6862 6.74844 12.0001 6.74844C11.3139 6.74844 10.7501 7.31229 10.7501 7.99844V12.9984C10.7501 13.6846 11.3139 14.2484 12.0001 14.2484Z" fill="#5B52B6" stroke="#5B52B6"/>
<path d="M14.8896 2.95H9.10965C8.98579 2.95 8.88965 2.85386 8.88965 2.73C8.88965 2.59712 8.99473 2.5 9.10965 2.5H14.8896C15.0135 2.5 15.1096 2.59614 15.1096 2.72C15.1096 2.85288 15.0046 2.95 14.8896 2.95Z" fill="#5B52B6" stroke="#5B52B6"/>
</svg>
