<svg width="25" height="24" viewBox="0 0 25 24" fill="none" xmlns="http://www.w3.org/2000/svg">
<path d="M4.33008 13.3184C4.33008 8.81458 7.99622 5.14844 12.5001 5.14844C17.0032 5.14844 20.6701 8.82383 20.6701 13.3284C20.6701 17.8323 17.0039 21.4984 12.5001 21.4984C7.99697 21.4984 4.33008 17.823 4.33008 13.3184ZM12.5001 14.2484C13.1862 14.2484 13.7501 13.6846 13.7501 12.9984V7.99844C13.7501 7.31229 13.1862 6.74844 12.5001 6.74844C11.8139 6.74844 11.2501 7.31229 11.2501 7.99844V12.9984C11.2501 13.6846 11.8139 14.2484 12.5001 14.2484Z" fill="#5B52B6" stroke="#5B52B6"/>
<path d="M15.3906 2.95H9.61062C9.48677 2.95 9.39062 2.85386 9.39062 2.73C9.39062 2.59712 9.4957 2.5 9.61062 2.5H15.3906C15.5145 2.5 15.6106 2.59614 15.6106 2.72C15.6106 2.85288 15.5055 2.95 15.3906 2.95Z" fill="#5B52B6" stroke="#5B52B6"/>
</svg>
