<svg width="37" height="37" viewBox="0 0 37 37" fill="none" xmlns="http://www.w3.org/2000/svg">
<rect width="37" height="37" rx="18.5" fill="#DDFDFC"/>
<path d="M27.0891 13.9795C26.2391 13.0395 24.8291 12.5695 22.7591 12.5695H22.5191V12.5295C22.5191 10.8495 22.5191 8.76953 18.7591 8.76953H17.2391C13.4791 8.76953 13.4791 10.8495 13.4791 12.5295V12.5695H13.2391C11.1691 12.5695 9.74906 13.0395 8.90906 13.9795C7.91906 15.0895 7.94906 16.5595 8.04906 17.5695L8.05906 17.6395L8.12814 18.4455C8.14134 18.5994 8.22488 18.7387 8.3546 18.8227C8.63829 19.0063 8.94012 19.199 9.22906 19.3595C9.36906 19.4495 9.51906 19.5295 9.66906 19.6095C10.7991 20.2295 12.0091 20.7195 13.2491 21.0595C13.2791 23.6495 15.3991 25.7495 17.9991 25.7495C20.6191 25.7495 22.7491 23.6195 22.7491 20.9995V20.9595C24.0091 20.5795 25.2191 20.0495 26.3491 19.3895C26.4091 19.3595 26.4491 19.3295 26.4991 19.2995C26.8937 19.0851 27.303 18.8043 27.6766 18.5395C27.7929 18.457 27.8678 18.3285 27.8832 18.1868L27.9491 17.5795C27.9591 17.5195 27.9591 17.4695 27.9691 17.3995C28.0491 16.3995 28.0291 15.0195 27.0891 13.9795ZM14.9091 12.5295C14.9091 10.8295 14.9091 10.1895 17.2391 10.1895H18.7591C21.0891 10.1895 21.0891 10.8295 21.0891 12.5295V12.5695H14.9091V12.5295ZM17.9991 24.2495C16.3491 24.2495 14.9791 23.0095 14.7791 21.4095C14.7591 21.2795 14.7491 21.1395 14.7491 20.9995C14.7491 19.2095 16.2091 17.7495 17.9991 17.7495C19.7891 17.7495 21.2491 19.2095 21.2491 20.9995C21.2491 21.1195 21.2391 21.2295 21.2291 21.3395V21.3495C21.0491 22.9795 19.6691 24.2495 17.9991 24.2495Z" fill="#12D5D5"/>
<path d="M17.4309 23.0284C17.2409 23.0284 17.0509 22.9584 16.9009 22.8084L15.9109 21.8284C15.6209 21.5384 15.6209 21.0584 15.9109 20.7684C16.2009 20.4784 16.6809 20.4784 16.9709 20.7684L17.4509 21.2484L19.0609 19.7684C19.3609 19.4884 19.8409 19.5084 20.1209 19.8084C20.4009 20.1084 20.3809 20.5884 20.0809 20.8684L17.9509 22.8384C17.7909 22.9584 17.6109 23.0284 17.4309 23.0284Z" fill="#12D5D5"/>
<path d="M27.0416 20.7311C27.2903 20.5929 27.6129 20.7931 27.587 21.0765L27.2316 24.9611C27.0216 26.9611 26.2016 29.0011 21.8016 29.0011H14.1816C9.78156 29.0011 8.96156 26.9611 8.76156 24.9711L8.41569 21.2678C8.38884 20.9802 8.69635 20.786 8.95156 20.9211C9.73156 21.3511 10.5416 21.7311 11.3716 22.0311C11.6816 22.1411 11.9016 22.4011 11.9916 22.7211C12.7416 25.3211 15.1616 27.2511 18.0016 27.2511C20.8916 27.2511 23.3316 25.2811 24.0416 22.5811C24.1216 22.2611 24.3416 22.0011 24.6516 21.8811C25.4916 21.5511 26.2916 21.1611 27.0416 20.7311Z" fill="#12D5D5"/>
</svg>
