<svg width="37" height="37" viewBox="0 0 37 37" fill="none" xmlns="http://www.w3.org/2000/svg">
<rect width="37" height="37" rx="18.5" fill="#EBE5FF"/>
<path d="M17.9392 9.21178L15.5292 14.8218H13.1192C12.7192 14.8218 12.3292 14.8518 11.9492 14.9318L12.9492 12.5318L12.9892 12.4418L13.0492 12.2818C13.0792 12.2118 13.0992 12.1518 13.1292 12.1018C14.2892 9.41178 15.5892 8.57178 17.9392 9.21178Z" fill="#399AF9"/>
<path d="M24.7291 15.0895L24.7091 15.0795C24.1091 14.9095 23.4991 14.8195 22.8791 14.8195H16.6191L18.8691 9.58953L18.8991 9.51953C19.0391 9.56953 19.1891 9.63953 19.3391 9.68953L21.5491 10.6195C22.7791 11.1295 23.6391 11.6595 24.1691 12.2995C24.2591 12.4195 24.3391 12.5295 24.4191 12.6595C24.5091 12.7995 24.5791 12.9395 24.6191 13.0895C24.6591 13.1795 24.6891 13.2595 24.7091 13.3495C24.8591 13.8595 24.8691 14.4395 24.7291 15.0895Z" fill="#399AF9"/>
<path d="M18.5195 24.6581H18.7695C19.0695 24.6581 19.3195 24.3881 19.3195 24.0581C19.3195 23.6381 19.1995 23.5781 18.9395 23.4781L18.5195 23.3281V24.6581Z" fill="#399AF9"/>
<path d="M24.2902 16.5203C23.8402 16.3903 23.3702 16.3203 22.8802 16.3203H13.1202C12.4402 16.3203 11.8002 16.4503 11.2002 16.7103C9.46023 17.4603 8.24023 19.1903 8.24023 21.2003V23.1503C8.24023 23.3903 8.26023 23.6203 8.29023 23.8603C8.51023 27.0403 10.2102 28.7403 13.3902 28.9503C13.6202 28.9803 13.8502 29.0003 14.1002 29.0003H21.9002C25.6002 29.0003 27.5502 27.2403 27.7402 23.7403C27.7502 23.5503 27.7602 23.3503 27.7602 23.1503V21.2003C27.7602 18.9903 26.2902 17.1303 24.2902 16.5203ZM19.2802 22.5003C19.7402 22.6603 20.3602 23.0003 20.3602 24.0603C20.3602 24.9703 19.6502 25.7003 18.7702 25.7003H18.5202V25.9203C18.5202 26.2103 18.2902 26.4403 18.0002 26.4403C17.7102 26.4403 17.4802 26.2103 17.4802 25.9203V25.7003H17.3902C16.4302 25.7003 15.6402 24.8903 15.6402 23.8903C15.6402 23.6003 15.8702 23.3703 16.1602 23.3703C16.4502 23.3703 16.6802 23.6003 16.6802 23.8903C16.6802 24.3103 17.0002 24.6603 17.3902 24.6603H17.4802V22.9703L16.7202 22.7003C16.2602 22.5403 15.6402 22.2003 15.6402 21.1403C15.6402 20.2303 16.3502 19.5003 17.2302 19.5003H17.4802V19.2803C17.4802 18.9903 17.7102 18.7603 18.0002 18.7603C18.2902 18.7603 18.5202 18.9903 18.5202 19.2803V19.5003H18.6102C19.5702 19.5003 20.3602 20.3103 20.3602 21.3103C20.3602 21.6003 20.1302 21.8303 19.8402 21.8303C19.5502 21.8303 19.3202 21.6003 19.3202 21.3103C19.3202 20.8903 19.0002 20.5403 18.6102 20.5403H18.5202V22.2303L19.2802 22.5003Z" fill="#399AF9"/>
<path d="M16.6797 21.1391C16.6797 21.5591 16.7997 21.6191 17.0597 21.7191L17.4797 21.8691V20.5391H17.2297C16.9197 20.5391 16.6797 20.8091 16.6797 21.1391Z" fill="#399AF9"/>
</svg>
