<svg width="37" height="37" viewBox="0 0 37 37" fill="none" xmlns="http://www.w3.org/2000/svg">
<rect width="37" height="37" rx="18.5" fill="#DDFDFC"/>
<path d="M25.97 15.75H23.03C21.76 15.75 21 14.99 21 13.72V10.78C21 9.51 21.76 8.75 23.03 8.75H25.97C27.24 8.75 28 9.51 28 10.78V13.72C28 14.99 27.24 15.75 25.97 15.75ZM26.19 12.44C26.07 12.32 25.91 12.26 25.75 12.26C25.59 12.26 25.43 12.32 25.31 12.44L25.13 12.62V10.38C25.13 10.03 24.85 9.75 24.5 9.75C24.15 9.75 23.87 10.03 23.87 10.38V12.62L23.69 12.44C23.45 12.2 23.05 12.2 22.81 12.44C22.57 12.68 22.57 13.08 22.81 13.32L24.06 14.57C24.11 14.62 24.18 14.66 24.25 14.69C24.27 14.7 24.29 14.7 24.31 14.71C24.36 14.73 24.41 14.74 24.47 14.74C24.49 14.74 24.51 14.74 24.53 14.74C24.6 14.74 24.66 14.73 24.73 14.7C24.74 14.7 24.74 14.7 24.75 14.7C24.82 14.67 24.88 14.63 24.93 14.58C24.94 14.57 24.94 14.57 24.95 14.57L26.2 13.32C26.44 13.08 26.44 12.68 26.19 12.44Z" fill="#12D5D5"/>
<path d="M8 18.46V23.46C8 25.75 9.85 27.6 12.14 27.6H23.85C26.14 27.6 28 25.74 28 23.45V18.46C28 17.79 27.46 17.25 26.79 17.25H9.21C8.54 17.25 8 17.79 8 18.46ZM14 24.25H12C11.59 24.25 11.25 23.91 11.25 23.5C11.25 23.09 11.59 22.75 12 22.75H14C14.41 22.75 14.75 23.09 14.75 23.5C14.75 23.91 14.41 24.25 14 24.25ZM20.5 24.25H16.5C16.09 24.25 15.75 23.91 15.75 23.5C15.75 23.09 16.09 22.75 16.5 22.75H20.5C20.91 22.75 21.25 23.09 21.25 23.5C21.25 23.91 20.91 24.25 20.5 24.25Z" fill="#12D5D5"/>
<path d="M19.5 11.6084V14.5384C19.5 15.2084 18.96 15.7484 18.29 15.7484H9.21C8.53 15.7484 8 15.1884 8 14.5184C8.01 13.3884 8.46 12.3584 9.21 11.6084C9.96 10.8584 11 10.3984 12.14 10.3984H18.29C18.96 10.3984 19.5 10.9384 19.5 11.6084Z" fill="#12D5D5"/>
</svg>
