<svg width="37" height="37" viewBox="0 0 37 37" fill="none" xmlns="http://www.w3.org/2000/svg">
<rect width="37" height="37" rx="18.5" fill="#FFEAE8"/>
<path d="M25.97 8.75H23.03C21.76 8.75 21 9.51 21 10.78V13.72C21 14.99 21.76 15.75 23.03 15.75H25.97C27.24 15.75 28 14.99 28 13.72V10.78C28 9.51 27.24 8.75 25.97 8.75ZM26.19 12.06C26.07 12.18 25.91 12.24 25.75 12.24C25.59 12.24 25.43 12.18 25.31 12.06L25.13 11.88V14.12C25.13 14.47 24.85 14.75 24.5 14.75C24.15 14.75 23.87 14.47 23.87 14.12V11.88L23.69 12.06C23.45 12.3 23.05 12.3 22.81 12.06C22.57 11.82 22.57 11.42 22.81 11.18L24.06 9.93C24.11 9.88 24.18 9.84 24.25 9.81C24.27 9.8 24.29 9.8 24.31 9.79C24.36 9.77 24.41 9.76 24.47 9.76C24.49 9.76 24.51 9.76 24.53 9.76C24.6 9.76 24.66 9.77 24.73 9.8C24.74 9.8 24.74 9.8 24.75 9.8C24.82 9.83 24.88 9.87 24.93 9.92C24.94 9.93 24.94 9.93 24.95 9.93L26.2 11.18C26.44 11.42 26.44 11.82 26.19 12.06Z" fill="#FF8679"/>
<path d="M8 18.46V23.46C8 25.75 9.85 27.6 12.14 27.6H23.85C26.14 27.6 28 25.74 28 23.45V18.46C28 17.79 27.46 17.25 26.79 17.25H9.21C8.54 17.25 8 17.79 8 18.46ZM14 24.25H12C11.59 24.25 11.25 23.91 11.25 23.5C11.25 23.09 11.59 22.75 12 22.75H14C14.41 22.75 14.75 23.09 14.75 23.5C14.75 23.91 14.41 24.25 14 24.25ZM20.5 24.25H16.5C16.09 24.25 15.75 23.91 15.75 23.5C15.75 23.09 16.09 22.75 16.5 22.75H20.5C20.91 22.75 21.25 23.09 21.25 23.5C21.25 23.91 20.91 24.25 20.5 24.25Z" fill="#FF8679"/>
<path d="M19.5 11.6084V14.5384C19.5 15.2084 18.96 15.7484 18.29 15.7484H9.21C8.53 15.7484 8 15.1884 8 14.5184C8.01 13.3884 8.46 12.3584 9.21 11.6084C9.96 10.8584 11 10.3984 12.14 10.3984H18.29C18.96 10.3984 19.5 10.9384 19.5 11.6084Z" fill="#FF8679"/>
</svg>
