<svg width="37" height="37" viewBox="0 0 37 37" fill="none" xmlns="http://www.w3.org/2000/svg">
<rect width="37" height="37" rx="18.5" fill="#FFEAE8"/>
<path d="M24.8105 13.2505H26.1705C25.9805 12.9805 25.7805 12.7305 25.5705 12.4805L24.8105 13.2505Z" fill="#FF8679"/>
<path d="M24.52 11.4203C24.27 11.2103 24.02 11.0103 23.75 10.8203V12.1803L24.52 11.4203Z" fill="#FF8679"/>
<path d="M25.5795 12.4814L28.5295 9.53141C28.8195 9.24141 28.8195 8.76141 28.5295 8.47141C28.2395 8.18141 27.7595 8.18141 27.4695 8.47141L24.5195 11.4214C24.8995 11.7514 25.2495 12.1114 25.5795 12.4814Z" fill="#FF8679"/>
<path d="M23.7498 10C23.7498 9.59 23.4098 9.25 22.9998 9.25C22.5998 9.25 22.2798 9.57 22.2598 9.96C22.7798 10.21 23.2798 10.49 23.7498 10.82V10Z" fill="#FF8679"/>
<path d="M27.7499 14C27.7499 13.59 27.4099 13.25 26.9999 13.25H26.1699C26.4999 13.72 26.7899 14.22 27.0299 14.74C27.4299 14.72 27.7499 14.4 27.7499 14Z" fill="#FF8679"/>
<path d="M18.75 21.7508H19.05C19.44 21.7508 19.75 21.4008 19.75 20.9708C19.75 20.4308 19.6 20.3508 19.26 20.2308L18.75 20.0508V21.7508Z" fill="#FF8679"/>
<path d="M27.04 14.74C27.03 14.74 27.02 14.75 27 14.75H23C22.9 14.75 22.81 14.73 22.71 14.69C22.53 14.61 22.38 14.47 22.3 14.28C22.27 14.19 22.25 14.1 22.25 14V10C22.25 9.99 22.26 9.98 22.26 9.96C20.96 9.35 19.52 9 18 9C12.48 9 8 13.48 8 19C8 24.52 12.48 29 18 29C23.52 29 28 24.52 28 19C28 17.48 27.65 16.04 27.04 14.74ZM19.75 18.82C20.39 19.04 21.25 19.51 21.25 20.98C21.25 22.23 20.26 23.26 19.05 23.26H18.75V23.51C18.75 23.92 18.41 24.26 18 24.26C17.59 24.26 17.25 23.92 17.25 23.51V23.26H17.17C15.84 23.26 14.75 22.14 14.75 20.76C14.75 20.34 15.09 20 15.5 20C15.91 20 16.25 20.34 16.25 20.75C16.25 21.3 16.66 21.75 17.17 21.75H17.25V19.53L16.25 19.18C15.61 18.96 14.75 18.49 14.75 17.02C14.75 15.77 15.74 14.74 16.95 14.74H17.25V14.5C17.25 14.09 17.59 13.75 18 13.75C18.41 13.75 18.75 14.09 18.75 14.5V14.75H18.83C20.16 14.75 21.25 15.87 21.25 17.25C21.25 17.66 20.91 18 20.5 18C20.09 18 19.75 17.66 19.75 17.25C19.75 16.7 19.34 16.25 18.83 16.25H18.75V18.47L19.75 18.82Z" fill="#FF8679"/>
<path d="M16.25 17.03C16.25 17.57 16.4 17.65 16.74 17.77L17.25 17.95V16.25H16.95C16.57 16.25 16.25 16.6 16.25 17.03Z" fill="#FF8679"/>
</svg>
