<svg width="37" height="37" viewBox="0 0 37 37" fill="none" xmlns="http://www.w3.org/2000/svg">
<rect width="37" height="37" rx="18.5" fill="#EBE5FF"/>
<path d="M23.5291 14.77C23.4591 14.76 23.3891 14.76 23.3191 14.77C21.7691 14.72 20.5391 13.45 20.5391 11.89C20.5391 10.3 21.8291 9 23.4291 9C25.0191 9 26.3191 10.29 26.3191 11.89C26.3091 13.45 25.0791 14.72 23.5291 14.77Z" fill="#5B52B6"/>
<path d="M26.7896 21.7004C25.6696 22.4504 24.0996 22.7304 22.6496 22.5404C23.0296 21.7204 23.2296 20.8104 23.2396 19.8504C23.2396 18.8504 23.0196 17.9004 22.5996 17.0704C24.0796 16.8704 25.6496 17.1504 26.7796 17.9004C28.3596 18.9404 28.3596 20.6504 26.7896 21.7004Z" fill="#5B52B6"/>
<path d="M12.4402 14.77C12.5102 14.76 12.5802 14.76 12.6502 14.77C14.2002 14.72 15.4302 13.45 15.4302 11.89C15.4302 10.29 14.1402 9 12.5402 9C10.9502 9 9.66016 10.29 9.66016 11.89C9.66016 13.45 10.8902 14.72 12.4402 14.77Z" fill="#5B52B6"/>
<path d="M12.5491 19.8506C12.5491 20.8206 12.7591 21.7406 13.1391 22.5706C11.7291 22.7206 10.2591 22.4206 9.17914 21.7106C7.59914 20.6606 7.59914 18.9506 9.17914 17.9006C10.2491 17.1806 11.7591 16.8906 13.1791 17.0506C12.7691 17.8906 12.5491 18.8406 12.5491 19.8506Z" fill="#5B52B6"/>
<path d="M18.1208 22.87C18.0408 22.86 17.9508 22.86 17.8608 22.87C16.0208 22.81 14.5508 21.3 14.5508 19.44C14.5608 17.54 16.0908 16 18.0008 16C19.9008 16 21.4408 17.54 21.4408 19.44C21.4308 21.3 19.9708 22.81 18.1208 22.87Z" fill="#5B52B6"/>
<path d="M14.8708 24.9406C13.3608 25.9506 13.3608 27.6106 14.8708 28.6106C16.5908 29.7606 19.4108 29.7606 21.1308 28.6106C22.6408 27.6006 22.6408 25.9406 21.1308 24.9406C19.4208 23.7906 16.6008 23.7906 14.8708 24.9406Z" fill="#5B52B6"/>
</svg>
