<svg width="37" height="37" viewBox="0 0 37 37" fill="none" xmlns="http://www.w3.org/2000/svg">
<rect width="37" height="37" rx="18.5" fill="#EBE5FF"/>
<path d="M8 18.96V23.96C8 26.25 9.85 28.1 12.14 28.1H23.85C26.14 28.1 28 26.24 28 23.95V18.96C28 18.29 27.46 17.75 26.79 17.75H9.21C8.54 17.75 8 18.29 8 18.96ZM14 24.75H12C11.59 24.75 11.25 24.41 11.25 24C11.25 23.59 11.59 23.25 12 23.25H14C14.41 23.25 14.75 23.59 14.75 24C14.75 24.41 14.41 24.75 14 24.75ZM20.5 24.75H16.5C16.09 24.75 15.75 24.41 15.75 24C15.75 23.59 16.09 23.25 16.5 23.25H20.5C20.91 23.25 21.25 23.59 21.25 24C21.25 24.41 20.91 24.75 20.5 24.75Z" fill="#5B52B6"/>
<path d="M19.5 12.1084V15.0384C19.5 15.7084 18.96 16.2484 18.29 16.2484H9.21C8.53 16.2484 8 15.6884 8 15.0184C8.01 13.8884 8.46 12.8584 9.21 12.1084C9.96 11.3584 11 10.8984 12.14 10.8984H18.29C18.96 10.8984 19.5 11.4384 19.5 12.1084Z" fill="#5B52B6"/>
<path d="M25.97 9.5H23.03C21.76 9.5 21 10.26 21 11.53V14.47C21 15.74 21.76 16.5 23.03 16.5H25.97C27.24 16.5 28 15.74 28 14.47V11.53C28 10.26 27.24 9.5 25.97 9.5ZM26.63 11.95L24.26 14.72C24.17 14.83 24.03 14.9 23.89 14.9C23.88 14.9 23.88 14.9 23.87 14.9C23.73 14.9 23.6 14.85 23.5 14.75L22.4 13.67C22.2 13.47 22.2 13.14 22.4 12.94C22.6 12.74 22.93 12.73 23.13 12.94L23.83 13.63L25.83 11.29C26.02 11.07 26.34 11.05 26.56 11.23C26.79 11.41 26.81 11.74 26.63 11.95Z" fill="#5B52B6"/>
</svg>
