<svg width="25" height="25" viewBox="0 0 25 25" fill="none" xmlns="http://www.w3.org/2000/svg">
<path d="M8.25 7.25C8.25 4.90614 10.1561 3 12.5 3C14.8435 3 16.7495 4.90562 16.75 7.24903C16.7405 9.54858 14.9468 11.4052 12.661 11.49H12.661H12.6609H12.6609H12.6609H12.6609H12.6608H12.6608H12.6608H12.6607H12.6607H12.6607H12.6606H12.6606H12.6606H12.6606H12.6605H12.6605H12.6605H12.6604H12.6604H12.6604H12.6604H12.6603H12.6603H12.6603H12.6602H12.6602H12.6602H12.6601H12.6601H12.6601H12.6601H12.66H12.66H12.66H12.6599H12.6599H12.6599H12.6599H12.6598H12.6598H12.6598H12.6597H12.6597H12.6597H12.6596H12.6596H12.6596H12.6596H12.6595H12.6595H12.6595H12.6594H12.6594H12.6594H12.6594H12.6593H12.6593H12.6593H12.6592H12.6592H12.6592H12.6591H12.6591H12.6591H12.6591H12.659H12.659H12.659H12.6589H12.6589H12.6589H12.6588H12.6588H12.6588H12.6588H12.6587H12.6587H12.6587H12.6586H12.6586H12.6586H12.6585H12.6585H12.6585H12.6585H12.6584H12.6584H12.6584H12.6583H12.6583H12.6583H12.6582H12.6582H12.6582H12.6581H12.6581H12.6581H12.6581H12.658H12.658H12.658H12.6579H12.6579H12.6579H12.6578H12.6578H12.6578H12.6577H12.6577H12.6577H12.6576H12.6576H12.6576H12.6575H12.6575H12.6575H12.6575H12.6574H12.6574H12.6574H12.6573H12.6573H12.6573H12.6572H12.6572H12.6572H12.6571H12.6571H12.6571H12.657H12.657H12.657H12.6569H12.6569H12.6569H12.6568H12.6568H12.6568H12.6567H12.6567H12.6566H12.6566H12.6566H12.6565H12.6565H12.6565H12.6564H12.6564H12.6564H12.6563H12.6563H12.6563H12.6562H12.6562H12.6562H12.6561H12.6561H12.656H12.656H12.656H12.6559H12.6559H12.6559H12.6558H12.6558H12.6558H12.6557H12.6557H12.6556H12.6556H12.6556H12.6555H12.6555H12.6555H12.6554H12.6554H12.6553H12.6553H12.6553H12.6552H12.6552H12.6551H12.6551H12.6551H12.655H12.655H12.6549H12.6549H12.6549H12.6548H12.6548H12.6547H12.6547H12.6547H12.6546H12.6546H12.6545H12.6545H12.6545H12.6544H12.6544H12.6543H12.6543H12.6542H12.6542H12.6542H12.6541H12.6541H12.654H12.654H12.6539H12.6539H12.6539H12.6538H12.6538H12.6537H12.6537H12.6536H12.6536H12.6535H12.6535H12.6535H12.6534H12.6534H12.6533H12.6533H12.6532H12.6532H12.6531H12.6531H12.653H12.653H12.6529H12.6529H12.6529H12.6528H12.6528H12.6527H12.6527H12.6526H12.6526H12.6525H12.6525H12.6524H12.6524H12.6523H12.6523H12.6522H12.6522H12.6521H12.6521H12.652H12.652H12.6519H12.6519H12.6518H12.6518H12.6517H12.6517H12.6516H12.6516H12.6515H12.6514H12.6514H12.6513H12.6513H12.6512H12.6512H12.6511H12.6511H12.651H12.651H12.6509H12.6509H12.6508H12.6507H12.6507H12.6506H12.6506H12.6505H12.6505H12.6504H12.6503H12.6503H12.6502H12.6502H12.6501H12.6501H12.65H12.6499H12.6498H12.6496H12.6495H12.6494H12.6493H12.6492H12.6491H12.649H12.6488H12.6487H12.6486H12.6485H12.6484H12.6483H12.6482H12.648H12.6479H12.6478H12.6477H12.6476H12.6475H12.6474H12.6473H12.6471H12.647H12.6469H12.6468H12.6467H12.6466H12.6465H12.6464H12.6463H12.6461H12.646H12.6459H12.6458H12.6457H12.6456H12.6455H12.6454H12.6453H12.6452H12.6451H12.6449H12.6448H12.6447H12.6446H12.6445H12.6444H12.6443H12.6442H12.6441H12.644H12.6439H12.6438H12.6437H12.6436H12.6435H12.6433H12.6432H12.6431H12.643H12.6429H12.6428H12.6427H12.6426H12.6425H12.6424H12.6423H12.6422H12.6421H12.642H12.6419H12.6418H12.6417H12.6416H12.6415H12.6414H12.6413H12.6412H12.6411H12.641H12.6409H12.6408H12.6407H12.6406H12.6405H12.6404H12.6403H12.6402H12.6401H12.64H12.6399H12.6398H12.6397H12.6396H12.6395H12.6394H12.6393H12.6392H12.6391H12.639H12.6389H12.6388H12.6387H12.6386H12.6385H12.6384H12.6383H12.6382H12.6381H12.638H12.6379H12.6378H12.6377H12.6376H12.6375H12.6374H12.6373H12.6372H12.6371H12.637H12.6369H12.6368H12.6368H12.6367H12.6366H12.6365H12.6364H12.6363H12.6362H12.6361H12.636H12.6359H12.6358H12.6357H12.6356H12.6355H12.6354H12.6353H12.6352H12.6351H12.6351H12.635H12.6349H12.6348H12.6347H12.6346H12.6345H12.6344H12.6343H12.6342H12.6341H12.634H12.6339H12.6338H12.6338C12.5433 11.4796 12.4492 11.4808 12.3625 11.489C10.0254 11.3911 8.25 9.53575 8.25 7.25Z" fill="#5B52B6" stroke="#5B52B6"/>
<path d="M7.69966 20.6738L7.69829 20.6729C6.53934 19.9002 5.96094 18.9007 5.96094 17.8789C5.96094 16.8568 6.5397 15.8474 7.70798 15.0651C9.01454 14.2007 10.7527 13.7539 12.5134 13.7539C14.2748 13.7539 16.0077 14.201 17.3036 15.0649C18.459 15.8352 19.0319 16.8345 19.0409 17.861C19.0402 18.8924 18.4613 19.8917 17.3018 20.6741C16.001 21.5473 14.2637 21.9989 12.5009 21.9989C10.738 21.9989 9.00054 21.5472 7.69966 20.6738Z" fill="#5B52B6" stroke="#5B52B6"/>
</svg>
