<svg width="25" height="24" viewBox="0 0 25 24" fill="none" xmlns="http://www.w3.org/2000/svg">
<path d="M19.4484 14.1923L19.4485 14.1923L19.4476 14.1825C19.433 14.0322 19.491 13.8866 19.5934 13.7842L19.5936 13.7843L19.6029 13.7745C19.6803 13.6928 19.7949 13.6406 19.9399 13.6406H21.4375C21.4437 13.6412 21.4477 13.6423 21.4499 13.6431V14.6399C21.449 14.6401 21.4478 14.6404 21.4461 14.6406H19.9999C19.6915 14.6406 19.4655 14.414 19.4484 14.1923Z" fill="#5B52B6" stroke="#5B52B6"/>
<path d="M17.4657 14.7979L17.4656 14.7979L17.4677 14.8052C17.7973 15.9844 18.9313 16.6906 20.0792 16.6906H20.9492C21.2231 16.6906 21.4492 16.9168 21.4492 17.1906V17.3806C21.4492 19.1745 19.9831 20.6406 18.1892 20.6406H6.70922C4.91536 20.6406 3.44922 19.1745 3.44922 17.3806V10.6506C3.44922 9.58415 3.96009 8.64031 4.74851 8.05115L4.74853 8.05117L4.75224 8.04834C5.29746 7.63294 5.97156 7.39062 6.70922 7.39062H18.1892C19.9831 7.39062 21.4492 8.85677 21.4492 10.6506V11.0906C21.4492 11.3645 21.2231 11.5906 20.9492 11.5906H19.9292C19.2373 11.5906 18.5995 11.8629 18.1351 12.3376C17.5158 12.9473 17.2184 13.858 17.4657 14.7979Z" fill="#5B52B6" stroke="#5B52B6"/>
<path d="M16.6991 4.82C16.9691 5.09 16.7391 5.51 16.3591 5.51L8.67908 5.5C8.23908 5.5 8.00908 4.96 8.32908 4.65L9.94908 3.02C11.3191 1.66 13.5391 1.66 14.9091 3.02L16.6591 4.79C16.6691 4.8 16.6891 4.81 16.6991 4.82Z" fill="#5B52B6"/>
</svg>
